solid demo
   facet normal 0.000000e+000 0.000000e+000 -1.000000e+000
      outer loop
         vertex 2.353351e+001 2.561280e+000 1.955803e+001
         vertex 2.353351e+001 5.029142e-005 1.955803e+001
         vertex 2.605128e+000 5.029142e-005 1.955803e+001
      endloop
   endfacet
   facet normal 0.000000e+000 0.000000e+000 -1.000000e+000
      outer loop
         vertex 2.605128e+000 2.119925e+001 1.955803e+001
         vertex 2.605128e+000 2.379312e+001 1.955803e+001
         vertex 2.353351e+001 2.379312e+001 1.955803e+001
      endloop
   endfacet
   facet normal 0.000000e+000 0.000000e+000 -1.000000e+000
      outer loop
         vertex 2.353351e+001 2.119925e+001 1.955803e+001
         vertex 2.612308e+001 2.119925e+001 1.955803e+001
         vertex 2.612308e+001 2.561280e+000 1.955803e+001
      endloop
   endfacet
   facet normal 0.000000e+000 0.000000e+000 -1.000000e+000
      outer loop
         vertex 2.605128e+000 2.561280e+000 1.955803e+001
         vertex 0.000000e+000 2.561280e+000 1.955803e+001
         vertex 0.000000e+000 2.119925e+001 1.955803e+001
      endloop
   endfacet
   facet normal 0.000000e+000 0.000000e+000 -1.000000e+000
      outer loop
         vertex 0.000000e+000 2.119925e+001 1.955803e+001
         vertex 2.605128e+000 2.119925e+001 1.955803e+001
         vertex 2.605128e+000 2.561280e+000 1.955803e+001
      endloop
   endfacet
   facet normal 0.000000e+000 0.000000e+000 -1.000000e+000
      outer loop
         vertex 2.605128e+000 2.561280e+000 1.955803e+001
         vertex 2.605128e+000 2.119925e+001 1.955803e+001
         vertex 2.353351e+001 2.379312e+001 1.955803e+001
      endloop
   endfacet
   facet normal 0.000000e+000 0.000000e+000 -1.000000e+000
      outer loop
         vertex 2.605128e+000 2.561280e+000 1.955803e+001
         vertex 2.353351e+001 2.379312e+001 1.955803e+001
         vertex 2.605128e+000 5.029142e-005 1.955803e+001
      endloop
   endfacet
   facet normal 0.000000e+000 0.000000e+000 -1.000000e+000
      outer loop
         vertex 2.605128e+000 5.029142e-005 1.955803e+001
         vertex 2.353351e+001 2.379312e+001 1.955803e+001
         vertex 2.353351e+001 2.119925e+001 1.955803e+001
      endloop
   endfacet
   facet normal 0.000000e+000 0.000000e+000 -1.000000e+000
      outer loop
         vertex 2.605128e+000 5.029142e-005 1.955803e+001
         vertex 2.353351e+001 2.119925e+001 1.955803e+001
         vertex 2.353351e+001 2.561280e+000 1.955803e+001
      endloop
   endfacet
   facet normal 0.000000e+000 0.000000e+000 -1.000000e+000
      outer loop
         vertex 2.353351e+001 2.561280e+000 1.955803e+001
         vertex 2.353351e+001 2.119925e+001 1.955803e+001
         vertex 2.612308e+001 2.561280e+000 1.955803e+001
      endloop
   endfacet
   facet normal -1.000000e+000 0.000000e+000 0.000000e+000
      outer loop
         vertex 0.000000e+000 2.561280e+000 1.955803e+001
         vertex 0.000000e+000 2.561280e+000 2.607703e-005
         vertex 0.000000e+000 5.029142e-005 2.607703e-005
      endloop
   endfacet
   facet normal -1.000000e+000 0.000000e+000 0.000000e+000
      outer loop
         vertex 0.000000e+000 1.997205e+001 3.528629e+001
         vertex 0.000000e+000 1.997205e+001 3.818259e+001
         vertex 0.000000e+000 2.379312e+001 4.157278e+001
      endloop
   endfacet
   facet normal -1.000000e+000 0.000000e+000 0.000000e+000
      outer loop
         vertex 0.000000e+000 2.379312e+001 4.157278e+001
         vertex 0.000000e+000 2.379312e+001 2.607703e-005
         vertex 0.000000e+000 2.119925e+001 1.955803e+001
      endloop
   endfacet
   facet normal -1.000000e+000 0.000000e+000 0.000000e+000
      outer loop
         vertex 0.000000e+000 2.119925e+001 1.955803e+001
         vertex 0.000000e+000 2.379312e+001 2.607703e-005
         vertex 0.000000e+000 2.119925e+001 2.607703e-005
      endloop
   endfacet
   facet normal -1.000000e+000 0.000000e+000 0.000000e+000
      outer loop
         vertex 0.000000e+000 2.379312e+001 4.157278e+001
         vertex 0.000000e+000 1.997205e+001 3.818259e+001
         vertex 0.000000e+000 5.029142e-005 4.157278e+001
      endloop
   endfacet
   facet normal -1.000000e+000 0.000000e+000 0.000000e+000
      outer loop
         vertex 0.000000e+000 5.029142e-005 4.157278e+001
         vertex 0.000000e+000 1.997205e+001 3.818259e+001
         vertex 0.000000e+000 3.892085e+000 3.818259e+001
      endloop
   endfacet
   facet normal -1.000000e+000 0.000000e+000 0.000000e+000
      outer loop
         vertex 0.000000e+000 5.029142e-005 4.157278e+001
         vertex 0.000000e+000 3.892085e+000 3.818259e+001
         vertex 0.000000e+000 3.892085e+000 3.528629e+001
      endloop
   endfacet
   facet normal -1.000000e+000 0.000000e+000 0.000000e+000
      outer loop
         vertex 0.000000e+000 5.029142e-005 2.607703e-005
         vertex 0.000000e+000 5.029142e-005 4.157278e+001
         vertex 0.000000e+000 2.561280e+000 1.955803e+001
      endloop
   endfacet
   facet normal -1.000000e+000 0.000000e+000 0.000000e+000
      outer loop
         vertex 0.000000e+000 2.561280e+000 1.955803e+001
         vertex 0.000000e+000 5.029142e-005 4.157278e+001
         vertex 0.000000e+000 3.892085e+000 3.528629e+001
      endloop
   endfacet
   facet normal -1.000000e+000 0.000000e+000 0.000000e+000
      outer loop
         vertex 0.000000e+000 2.561280e+000 1.955803e+001
         vertex 0.000000e+000 3.892085e+000 3.528629e+001
         vertex 0.000000e+000 3.892085e+000 2.980936e+001
      endloop
   endfacet
   facet normal -1.000000e+000 0.000000e+000 0.000000e+000
      outer loop
         vertex 0.000000e+000 3.892085e+000 2.980936e+001
         vertex 0.000000e+000 3.892085e+000 3.528629e+001
         vertex 0.000000e+000 1.997205e+001 3.528629e+001
      endloop
   endfacet
   facet normal -1.000000e+000 0.000000e+000 0.000000e+000
      outer loop
         vertex 0.000000e+000 3.892085e+000 2.980936e+001
         vertex 0.000000e+000 1.997205e+001 3.528629e+001
         vertex 0.000000e+000 1.997205e+001 2.980936e+001
      endloop
   endfacet
   facet normal -1.000000e+000 0.000000e+000 0.000000e+000
      outer loop
         vertex 0.000000e+000 1.997205e+001 2.980936e+001
         vertex 0.000000e+000 1.997205e+001 3.528629e+001
         vertex 0.000000e+000 2.379312e+001 4.157278e+001
      endloop
   endfacet
   facet normal -1.000000e+000 0.000000e+000 0.000000e+000
      outer loop
         vertex 0.000000e+000 1.997205e+001 2.980936e+001
         vertex 0.000000e+000 2.379312e+001 4.157278e+001
         vertex 0.000000e+000 1.997205e+001 2.676160e+001
      endloop
   endfacet
   facet normal -1.000000e+000 0.000000e+000 0.000000e+000
      outer loop
         vertex 0.000000e+000 1.997205e+001 2.676160e+001
         vertex 0.000000e+000 2.379312e+001 4.157278e+001
         vertex 0.000000e+000 2.119925e+001 1.955803e+001
      endloop
   endfacet
   facet normal -1.000000e+000 0.000000e+000 0.000000e+000
      outer loop
         vertex 0.000000e+000 1.997205e+001 2.676160e+001
         vertex 0.000000e+000 2.119925e+001 1.955803e+001
         vertex 0.000000e+000 3.892085e+000 2.676160e+001
      endloop
   endfacet
   facet normal -1.000000e+000 0.000000e+000 0.000000e+000
      outer loop
         vertex 0.000000e+000 3.892085e+000 2.676160e+001
         vertex 0.000000e+000 2.119925e+001 1.955803e+001
         vertex 0.000000e+000 2.561280e+000 1.955803e+001
      endloop
   endfacet
   facet normal -1.000000e+000 0.000000e+000 0.000000e+000
      outer loop
         vertex 0.000000e+000 3.892085e+000 2.676160e+001
         vertex 0.000000e+000 2.561280e+000 1.955803e+001
         vertex 0.000000e+000 3.892085e+000 2.980936e+001
      endloop
   endfacet
   facet normal 0.000000e+000 -1.000000e+000 0.000000e+000
      outer loop
         vertex 0.000000e+000 5.029142e-005 4.157278e+001
         vertex 0.000000e+000 5.029142e-005 2.607703e-005
         vertex 2.605128e+000 5.029142e-005 1.955803e+001
      endloop
   endfacet
   facet normal 0.000000e+000 -1.000000e+000 0.000000e+000
      outer loop
         vertex 2.605128e+000 5.029142e-005 1.955803e+001
         vertex 0.000000e+000 5.029142e-005 2.607703e-005
         vertex 2.605128e+000 5.029142e-005 2.607703e-005
      endloop
   endfacet
   facet normal 0.000000e+000 -1.000000e+000 0.000000e+000
      outer loop
         vertex 3.959090e+000 5.029142e-005 4.157278e+001
         vertex 0.000000e+000 5.029142e-005 4.157278e+001
         vertex 3.959090e+000 5.029142e-005 2.201478e+001
      endloop
   endfacet
   facet normal 0.000000e+000 -1.000000e+000 0.000000e+000
      outer loop
         vertex 3.959090e+000 5.029142e-005 2.201478e+001
         vertex 0.000000e+000 5.029142e-005 4.157278e+001
         vertex 2.605128e+000 5.029142e-005 1.955803e+001
      endloop
   endfacet
   facet normal 0.000000e+000 -1.000000e+000 0.000000e+000
      outer loop
         vertex 3.959090e+000 5.029142e-005 2.201478e+001
         vertex 2.605128e+000 5.029142e-005 1.955803e+001
         vertex 2.612308e+001 5.029142e-005 2.201478e+001
      endloop
   endfacet
   facet normal 0.000000e+000 -1.000000e+000 0.000000e+000
      outer loop
         vertex 2.612308e+001 5.029142e-005 2.201478e+001
         vertex 2.605128e+000 5.029142e-005 1.955803e+001
         vertex 2.353351e+001 5.029142e-005 1.955803e+001
      endloop
   endfacet
   facet normal 0.000000e+000 -1.000000e+000 0.000000e+000
      outer loop
         vertex 2.612308e+001 5.029142e-005 2.201478e+001
         vertex 2.353351e+001 5.029142e-005 1.955803e+001
         vertex 2.612308e+001 5.029142e-005 2.607703e-005
      endloop
   endfacet
   facet normal 0.000000e+000 -1.000000e+000 0.000000e+000
      outer loop
         vertex 2.612308e+001 5.029142e-005 2.607703e-005
         vertex 2.353351e+001 5.029142e-005 1.955803e+001
         vertex 2.353351e+001 5.029142e-005 2.607703e-005
      endloop
   endfacet
   facet normal 1.000000e+000 0.000000e+000 0.000000e+000
      outer loop
         vertex 2.612308e+001 2.119925e+001 2.607703e-005
         vertex 2.612308e+001 2.379312e+001 2.607703e-005
         vertex 2.612308e+001 2.119925e+001 1.955803e+001
      endloop
   endfacet
   facet normal 1.000000e+000 0.000000e+000 0.000000e+000
      outer loop
         vertex 2.612308e+001 2.119925e+001 1.955803e+001
         vertex 2.612308e+001 2.379312e+001 2.607703e-005
         vertex 2.612308e+001 2.379312e+001 2.201478e+001
      endloop
   endfacet
   facet normal 1.000000e+000 0.000000e+000 0.000000e+000
      outer loop
         vertex 2.612308e+001 2.119925e+001 1.955803e+001
         vertex 2.612308e+001 2.379312e+001 2.201478e+001
         vertex 2.612308e+001 2.561280e+000 1.955803e+001
      endloop
   endfacet
   facet normal 1.000000e+000 0.000000e+000 0.000000e+000
      outer loop
         vertex 2.612308e+001 2.561280e+000 1.955803e+001
         vertex 2.612308e+001 2.379312e+001 2.201478e+001
         vertex 2.612308e+001 5.029142e-005 2.201478e+001
      endloop
   endfacet
   facet normal 1.000000e+000 0.000000e+000 0.000000e+000
      outer loop
         vertex 2.612308e+001 2.561280e+000 1.955803e+001
         vertex 2.612308e+001 5.029142e-005 2.201478e+001
         vertex 2.612308e+001 2.561280e+000 2.607703e-005
      endloop
   endfacet
   facet normal 1.000000e+000 0.000000e+000 0.000000e+000
      outer loop
         vertex 2.612308e+001 2.561280e+000 2.607703e-005
         vertex 2.612308e+001 5.029142e-005 2.201478e+001
         vertex 2.612308e+001 5.029142e-005 2.607703e-005
      endloop
   endfacet
   facet normal 0.000000e+000 1.000000e+000 0.000000e+000
      outer loop
         vertex 2.605128e+000 2.379312e+001 2.607703e-005
         vertex 0.000000e+000 2.379312e+001 2.607703e-005
         vertex 2.605128e+000 2.379312e+001 1.955803e+001
      endloop
   endfacet
   facet normal 0.000000e+000 1.000000e+000 0.000000e+000
      outer loop
         vertex 2.605128e+000 2.379312e+001 1.955803e+001
         vertex 0.000000e+000 2.379312e+001 2.607703e-005
         vertex 0.000000e+000 2.379312e+001 4.157278e+001
      endloop
   endfacet
   facet normal 0.000000e+000 1.000000e+000 0.000000e+000
      outer loop
         vertex 2.612308e+001 2.379312e+001 2.607703e-005
         vertex 2.353351e+001 2.379312e+001 2.607703e-005
         vertex 2.612308e+001 2.379312e+001 2.201478e+001
      endloop
   endfacet
   facet normal 0.000000e+000 1.000000e+000 0.000000e+000
      outer loop
         vertex 2.612308e+001 2.379312e+001 2.201478e+001
         vertex 2.353351e+001 2.379312e+001 2.607703e-005
         vertex 2.353351e+001 2.379312e+001 1.955803e+001
      endloop
   endfacet
   facet normal 0.000000e+000 1.000000e+000 0.000000e+000
      outer loop
         vertex 2.612308e+001 2.379312e+001 2.201478e+001
         vertex 2.353351e+001 2.379312e+001 1.955803e+001
         vertex 3.959090e+000 2.379312e+001 2.201478e+001
      endloop
   endfacet
   facet normal 0.000000e+000 1.000000e+000 0.000000e+000
      outer loop
         vertex 3.959090e+000 2.379312e+001 2.201478e+001
         vertex 2.353351e+001 2.379312e+001 1.955803e+001
         vertex 2.605128e+000 2.379312e+001 1.955803e+001
      endloop
   endfacet
   facet normal 0.000000e+000 1.000000e+000 0.000000e+000
      outer loop
         vertex 3.959090e+000 2.379312e+001 2.201478e+001
         vertex 2.605128e+000 2.379312e+001 1.955803e+001
         vertex 3.959090e+000 2.379312e+001 4.157278e+001
      endloop
   endfacet
   facet normal 0.000000e+000 1.000000e+000 0.000000e+000
      outer loop
         vertex 3.959090e+000 2.379312e+001 4.157278e+001
         vertex 2.605128e+000 2.379312e+001 1.955803e+001
         vertex 0.000000e+000 2.379312e+001 4.157278e+001
      endloop
   endfacet
   facet normal 0.000000e+000 0.000000e+000 1.000000e+000
      outer loop
         vertex 2.612308e+001 5.029142e-005 2.201478e+001
         vertex 2.612308e+001 2.379312e+001 2.201478e+001
         vertex 3.959090e+000 5.029142e-005 2.201478e+001
      endloop
   endfacet
   facet normal 0.000000e+000 0.000000e+000 1.000000e+000
      outer loop
         vertex 3.959090e+000 5.029142e-005 2.201478e+001
         vertex 2.612308e+001 2.379312e+001 2.201478e+001
         vertex 3.959090e+000 2.379312e+001 2.201478e+001
      endloop
   endfacet
   facet normal 1.000000e+000 0.000000e+000 0.000000e+000
      outer loop
         vertex 3.959090e+000 1.997205e+001 3.818259e+001
         vertex 3.959090e+000 2.379312e+001 4.157278e+001
         vertex 3.959090e+000 3.892085e+000 3.818259e+001
      endloop
   endfacet
   facet normal 1.000000e+000 0.000000e+000 0.000000e+000
      outer loop
         vertex 3.959090e+000 3.892085e+000 3.818259e+001
         vertex 3.959090e+000 2.379312e+001 4.157278e+001
         vertex 3.959090e+000 5.029142e-005 4.157278e+001
      endloop
   endfacet
   facet normal 1.000000e+000 0.000000e+000 0.000000e+000
      outer loop
         vertex 3.959090e+000 3.892085e+000 3.818259e+001
         vertex 3.959090e+000 5.029142e-005 4.157278e+001
         vertex 3.959090e+000 3.892085e+000 3.528629e+001
      endloop
   endfacet
   facet normal 1.000000e+000 0.000000e+000 0.000000e+000
      outer loop
         vertex 3.959090e+000 1.997205e+001 3.528629e+001
         vertex 3.959090e+000 3.892085e+000 2.980936e+001
         vertex 3.959090e+000 1.997205e+001 2.980936e+001
      endloop
   endfacet
   facet normal 1.000000e+000 0.000000e+000 0.000000e+000
      outer loop
         vertex 3.959090e+000 1.997205e+001 3.528629e+001
         vertex 3.959090e+000 3.892085e+000 3.528629e+001
         vertex 3.959090e+000 3.892085e+000 2.980936e+001
      endloop
   endfacet
   facet normal 1.000000e+000 0.000000e+000 0.000000e+000
      outer loop
         vertex 3.959090e+000 3.892085e+000 2.980936e+001
         vertex 3.959090e+000 3.892085e+000 3.528629e+001
         vertex 3.959090e+000 5.029142e-005 4.157278e+001
      endloop
   endfacet
   facet normal 1.000000e+000 0.000000e+000 0.000000e+000
      outer loop
         vertex 3.959090e+000 3.892085e+000 2.980936e+001
         vertex 3.959090e+000 5.029142e-005 4.157278e+001
         vertex 3.959090e+000 3.892085e+000 2.676160e+001
      endloop
   endfacet
   facet normal 1.000000e+000 0.000000e+000 0.000000e+000
      outer loop
         vertex 3.959090e+000 3.892085e+000 2.676160e+001
         vertex 3.959090e+000 5.029142e-005 4.157278e+001
         vertex 3.959090e+000 5.029142e-005 2.201478e+001
      endloop
   endfacet
   facet normal 1.000000e+000 0.000000e+000 0.000000e+000
      outer loop
         vertex 3.959090e+000 3.892085e+000 2.676160e+001
         vertex 3.959090e+000 5.029142e-005 2.201478e+001
         vertex 3.959090e+000 1.997205e+001 2.676160e+001
      endloop
   endfacet
   facet normal 1.000000e+000 0.000000e+000 0.000000e+000
      outer loop
         vertex 3.959090e+000 1.997205e+001 2.676160e+001
         vertex 3.959090e+000 5.029142e-005 2.201478e+001
         vertex 3.959090e+000 2.379312e+001 2.201478e+001
      endloop
   endfacet
   facet normal 1.000000e+000 0.000000e+000 0.000000e+000
      outer loop
         vertex 3.959090e+000 1.997205e+001 2.676160e+001
         vertex 3.959090e+000 2.379312e+001 2.201478e+001
         vertex 3.959090e+000 1.997205e+001 2.980936e+001
      endloop
   endfacet
   facet normal 1.000000e+000 0.000000e+000 0.000000e+000
      outer loop
         vertex 3.959090e+000 1.997205e+001 2.980936e+001
         vertex 3.959090e+000 2.379312e+001 2.201478e+001
         vertex 3.959090e+000 2.379312e+001 4.157278e+001
      endloop
   endfacet
   facet normal 1.000000e+000 0.000000e+000 0.000000e+000
      outer loop
         vertex 3.959090e+000 1.997205e+001 2.980936e+001
         vertex 3.959090e+000 2.379312e+001 4.157278e+001
         vertex 3.959090e+000 1.997205e+001 3.528629e+001
      endloop
   endfacet
   facet normal 1.000000e+000 0.000000e+000 0.000000e+000
      outer loop
         vertex 3.959090e+000 1.997205e+001 3.528629e+001
         vertex 3.959090e+000 2.379312e+001 4.157278e+001
         vertex 3.959090e+000 1.997205e+001 3.818259e+001
      endloop
   endfacet
   facet normal 0.000000e+000 0.000000e+000 1.000000e+000
      outer loop
         vertex 3.959090e+000 5.029142e-005 4.157278e+001
         vertex 3.959090e+000 2.379312e+001 4.157278e+001
         vertex 0.000000e+000 5.029142e-005 4.157278e+001
      endloop
   endfacet
   facet normal 0.000000e+000 0.000000e+000 1.000000e+000
      outer loop
         vertex 0.000000e+000 5.029142e-005 4.157278e+001
         vertex 3.959090e+000 2.379312e+001 4.157278e+001
         vertex 0.000000e+000 2.379312e+001 4.157278e+001
      endloop
   endfacet
   facet normal 0.000000e+000 -1.000000e+000 0.000000e+000
      outer loop
         vertex 2.353351e+001 2.119925e+001 2.607703e-005
         vertex 2.612308e+001 2.119925e+001 2.607703e-005
         vertex 2.353351e+001 2.119925e+001 1.955803e+001
      endloop
   endfacet
   facet normal 0.000000e+000 -1.000000e+000 0.000000e+000
      outer loop
         vertex 2.353351e+001 2.119925e+001 1.955803e+001
         vertex 2.612308e+001 2.119925e+001 2.607703e-005
         vertex 2.612308e+001 2.119925e+001 1.955803e+001
      endloop
   endfacet
   facet normal -1.000000e+000 0.000000e+000 0.000000e+000
      outer loop
         vertex 2.353351e+001 2.379312e+001 2.607703e-005
         vertex 2.353351e+001 2.119925e+001 2.607703e-005
         vertex 2.353351e+001 2.379312e+001 1.955803e+001
      endloop
   endfacet
   facet normal -1.000000e+000 0.000000e+000 0.000000e+000
      outer loop
         vertex 2.353351e+001 2.379312e+001 1.955803e+001
         vertex 2.353351e+001 2.119925e+001 2.607703e-005
         vertex 2.353351e+001 2.119925e+001 1.955803e+001
      endloop
   endfacet
   facet normal 0.000000e+000 0.000000e+000 -1.000000e+000
      outer loop
         vertex 2.353351e+001 2.119925e+001 2.607703e-005
         vertex 2.353351e+001 2.379312e+001 2.607703e-005
         vertex 2.612308e+001 2.119925e+001 2.607703e-005
      endloop
   endfacet
   facet normal 0.000000e+000 0.000000e+000 -1.000000e+000
      outer loop
         vertex 2.612308e+001 2.119925e+001 2.607703e-005
         vertex 2.353351e+001 2.379312e+001 2.607703e-005
         vertex 2.612308e+001 2.379312e+001 2.607703e-005
      endloop
   endfacet
   facet normal 1.000000e+000 0.000000e+000 0.000000e+000
      outer loop
         vertex 2.605128e+000 2.119925e+001 2.607703e-005
         vertex 2.605128e+000 2.379312e+001 2.607703e-005
         vertex 2.605128e+000 2.119925e+001 1.955803e+001
      endloop
   endfacet
   facet normal 1.000000e+000 0.000000e+000 0.000000e+000
      outer loop
         vertex 2.605128e+000 2.119925e+001 1.955803e+001
         vertex 2.605128e+000 2.379312e+001 2.607703e-005
         vertex 2.605128e+000 2.379312e+001 1.955803e+001
      endloop
   endfacet
   facet normal 0.000000e+000 -1.000000e+000 0.000000e+000
      outer loop
         vertex 0.000000e+000 2.119925e+001 2.607703e-005
         vertex 2.605128e+000 2.119925e+001 2.607703e-005
         vertex 0.000000e+000 2.119925e+001 1.955803e+001
      endloop
   endfacet
   facet normal 0.000000e+000 -1.000000e+000 0.000000e+000
      outer loop
         vertex 0.000000e+000 2.119925e+001 1.955803e+001
         vertex 2.605128e+000 2.119925e+001 2.607703e-005
         vertex 2.605128e+000 2.119925e+001 1.955803e+001
      endloop
   endfacet
   facet normal 0.000000e+000 0.000000e+000 -1.000000e+000
      outer loop
         vertex 2.605128e+000 2.379312e+001 2.607703e-005
         vertex 2.605128e+000 2.119925e+001 2.607703e-005
         vertex 0.000000e+000 2.379312e+001 2.607703e-005
      endloop
   endfacet
   facet normal 0.000000e+000 0.000000e+000 -1.000000e+000
      outer loop
         vertex 0.000000e+000 2.379312e+001 2.607703e-005
         vertex 2.605128e+000 2.119925e+001 2.607703e-005
         vertex 0.000000e+000 2.119925e+001 2.607703e-005
      endloop
   endfacet
   facet normal -1.000000e+000 0.000000e+000 0.000000e+000
      outer loop
         vertex 2.353351e+001 2.561280e+000 2.607703e-005
         vertex 2.353351e+001 5.029142e-005 2.607703e-005
         vertex 2.353351e+001 2.561280e+000 1.955803e+001
      endloop
   endfacet
   facet normal -1.000000e+000 0.000000e+000 0.000000e+000
      outer loop
         vertex 2.353351e+001 2.561280e+000 1.955803e+001
         vertex 2.353351e+001 5.029142e-005 2.607703e-005
         vertex 2.353351e+001 5.029142e-005 1.955803e+001
      endloop
   endfacet
   facet normal 0.000000e+000 1.000000e+000 0.000000e+000
      outer loop
         vertex 2.612308e+001 2.561280e+000 2.607703e-005
         vertex 2.353351e+001 2.561280e+000 2.607703e-005
         vertex 2.612308e+001 2.561280e+000 1.955803e+001
      endloop
   endfacet
   facet normal 0.000000e+000 1.000000e+000 0.000000e+000
      outer loop
         vertex 2.612308e+001 2.561280e+000 1.955803e+001
         vertex 2.353351e+001 2.561280e+000 2.607703e-005
         vertex 2.353351e+001 2.561280e+000 1.955803e+001
      endloop
   endfacet
   facet normal 0.000000e+000 0.000000e+000 -1.000000e+000
      outer loop
         vertex 2.353351e+001 5.029142e-005 2.607703e-005
         vertex 2.353351e+001 2.561280e+000 2.607703e-005
         vertex 2.612308e+001 5.029142e-005 2.607703e-005
      endloop
   endfacet
   facet normal 0.000000e+000 0.000000e+000 -1.000000e+000
      outer loop
         vertex 2.612308e+001 5.029142e-005 2.607703e-005
         vertex 2.353351e+001 2.561280e+000 2.607703e-005
         vertex 2.612308e+001 2.561280e+000 2.607703e-005
      endloop
   endfacet
   facet normal 0.000000e+000 1.000000e+000 0.000000e+000
      outer loop
         vertex 2.605128e+000 2.561280e+000 2.607703e-005
         vertex 0.000000e+000 2.561280e+000 2.607703e-005
         vertex 2.605128e+000 2.561280e+000 1.955803e+001
      endloop
   endfacet
   facet normal 0.000000e+000 1.000000e+000 0.000000e+000
      outer loop
         vertex 2.605128e+000 2.561280e+000 1.955803e+001
         vertex 0.000000e+000 2.561280e+000 2.607703e-005
         vertex 0.000000e+000 2.561280e+000 1.955803e+001
      endloop
   endfacet
   facet normal 1.000000e+000 0.000000e+000 0.000000e+000
      outer loop
         vertex 2.605128e+000 5.029142e-005 2.607703e-005
         vertex 2.605128e+000 2.561280e+000 2.607703e-005
         vertex 2.605128e+000 5.029142e-005 1.955803e+001
      endloop
   endfacet
   facet normal 1.000000e+000 0.000000e+000 0.000000e+000
      outer loop
         vertex 2.605128e+000 5.029142e-005 1.955803e+001
         vertex 2.605128e+000 2.561280e+000 2.607703e-005
         vertex 2.605128e+000 2.561280e+000 1.955803e+001
      endloop
   endfacet
   facet normal 0.000000e+000 0.000000e+000 -1.000000e+000
      outer loop
         vertex 2.605128e+000 2.561280e+000 2.607703e-005
         vertex 2.605128e+000 5.029142e-005 2.607703e-005
         vertex 0.000000e+000 2.561280e+000 2.607703e-005
      endloop
   endfacet
   facet normal 0.000000e+000 0.000000e+000 -1.000000e+000
      outer loop
         vertex 0.000000e+000 2.561280e+000 2.607703e-005
         vertex 2.605128e+000 5.029142e-005 2.607703e-005
         vertex 0.000000e+000 5.029142e-005 2.607703e-005
      endloop
   endfacet
   facet normal 0.000000e+000 0.000000e+000 -1.000000e+000
      outer loop
         vertex 3.959090e+000 3.892085e+000 3.818259e+001
         vertex 0.000000e+000 3.892085e+000 3.818259e+001
         vertex 3.959090e+000 1.997205e+001 3.818259e+001
      endloop
   endfacet
   facet normal 0.000000e+000 0.000000e+000 -1.000000e+000
      outer loop
         vertex 3.959090e+000 1.997205e+001 3.818259e+001
         vertex 0.000000e+000 3.892085e+000 3.818259e+001
         vertex 0.000000e+000 1.997205e+001 3.818259e+001
      endloop
   endfacet
   facet normal 0.000000e+000 -1.000000e+000 0.000000e+000
      outer loop
         vertex 3.959090e+000 1.997205e+001 3.818259e+001
         vertex 0.000000e+000 1.997205e+001 3.818259e+001
         vertex 3.959090e+000 1.997205e+001 3.528629e+001
      endloop
   endfacet
   facet normal 0.000000e+000 -1.000000e+000 0.000000e+000
      outer loop
         vertex 3.959090e+000 1.997205e+001 3.528629e+001
         vertex 0.000000e+000 1.997205e+001 3.818259e+001
         vertex 0.000000e+000 1.997205e+001 3.528629e+001
      endloop
   endfacet
   facet normal 0.000000e+000 0.000000e+000 1.000000e+000
      outer loop
         vertex 3.959090e+000 1.997205e+001 3.528629e+001
         vertex 0.000000e+000 1.997205e+001 3.528629e+001
         vertex 3.959090e+000 3.892085e+000 3.528629e+001
      endloop
   endfacet
   facet normal 0.000000e+000 0.000000e+000 1.000000e+000
      outer loop
         vertex 3.959090e+000 3.892085e+000 3.528629e+001
         vertex 0.000000e+000 1.997205e+001 3.528629e+001
         vertex 0.000000e+000 3.892085e+000 3.528629e+001
      endloop
   endfacet
   facet normal 0.000000e+000 1.000000e+000 0.000000e+000
      outer loop
         vertex 3.959090e+000 3.892085e+000 3.528629e+001
         vertex 0.000000e+000 3.892085e+000 3.528629e+001
         vertex 3.959090e+000 3.892085e+000 3.818259e+001
      endloop
   endfacet
   facet normal 0.000000e+000 1.000000e+000 0.000000e+000
      outer loop
         vertex 3.959090e+000 3.892085e+000 3.818259e+001
         vertex 0.000000e+000 3.892085e+000 3.528629e+001
         vertex 0.000000e+000 3.892085e+000 3.818259e+001
      endloop
   endfacet
   facet normal 0.000000e+000 0.000000e+000 -1.000000e+000
      outer loop
         vertex 3.959090e+000 3.892085e+000 2.980936e+001
         vertex 0.000000e+000 3.892085e+000 2.980936e+001
         vertex 3.959090e+000 1.997205e+001 2.980936e+001
      endloop
   endfacet
   facet normal 0.000000e+000 0.000000e+000 -1.000000e+000
      outer loop
         vertex 3.959090e+000 1.997205e+001 2.980936e+001
         vertex 0.000000e+000 3.892085e+000 2.980936e+001
         vertex 0.000000e+000 1.997205e+001 2.980936e+001
      endloop
   endfacet
   facet normal 0.000000e+000 -1.000000e+000 0.000000e+000
      outer loop
         vertex 3.959090e+000 1.997205e+001 2.980936e+001
         vertex 0.000000e+000 1.997205e+001 2.980936e+001
         vertex 3.959090e+000 1.997205e+001 2.676160e+001
      endloop
   endfacet
   facet normal 0.000000e+000 -1.000000e+000 0.000000e+000
      outer loop
         vertex 3.959090e+000 1.997205e+001 2.676160e+001
         vertex 0.000000e+000 1.997205e+001 2.980936e+001
         vertex 0.000000e+000 1.997205e+001 2.676160e+001
      endloop
   endfacet
   facet normal 0.000000e+000 0.000000e+000 1.000000e+000
      outer loop
         vertex 3.959090e+000 1.997205e+001 2.676160e+001
         vertex 0.000000e+000 1.997205e+001 2.676160e+001
         vertex 3.959090e+000 3.892085e+000 2.676160e+001
      endloop
   endfacet
   facet normal 0.000000e+000 0.000000e+000 1.000000e+000
      outer loop
         vertex 3.959090e+000 3.892085e+000 2.676160e+001
         vertex 0.000000e+000 1.997205e+001 2.676160e+001
         vertex 0.000000e+000 3.892085e+000 2.676160e+001
      endloop
   endfacet
   facet normal 0.000000e+000 1.000000e+000 0.000000e+000
      outer loop
         vertex 3.959090e+000 3.892085e+000 2.676160e+001
         vertex 0.000000e+000 3.892085e+000 2.676160e+001
         vertex 3.959090e+000 3.892085e+000 2.980936e+001
      endloop
   endfacet
   facet normal 0.000000e+000 1.000000e+000 0.000000e+000
      outer loop
         vertex 3.959090e+000 3.892085e+000 2.980936e+001
         vertex 0.000000e+000 3.892085e+000 2.676160e+001
         vertex 0.000000e+000 3.892085e+000 2.980936e+001
      endloop
   endfacet
endsolid