solid test
   facet normal -1.000000e+000 0.000000e+000 0.000000e+000
      outer loop
         vertex 0.000000e+000 0.000000e+000 1.803400e+001
         vertex 0.000000e+000 8.322675e+001 1.803400e+001
         vertex 0.000000e+000 0.000000e+000 0.000000e+000
      endloop
   endfacet
   facet normal -1.000000e+000 0.000000e+000 0.000000e+000
      outer loop
         vertex 0.000000e+000 0.000000e+000 0.000000e+000
         vertex 0.000000e+000 8.322675e+001 1.803400e+001
         vertex 0.000000e+000 8.322675e+001 0.000000e+000
      endloop
   endfacet
   facet normal 0.000000e+000 -1.000000e+000 0.000000e+000
      outer loop
         vertex 8.763288e+001 0.000000e+000 1.803400e+001
         vertex 0.000000e+000 0.000000e+000 1.803400e+001
         vertex 8.763288e+001 0.000000e+000 0.000000e+000
      endloop
   endfacet
   facet normal 0.000000e+000 -1.000000e+000 0.000000e+000
      outer loop
         vertex 8.763288e+001 0.000000e+000 0.000000e+000
         vertex 0.000000e+000 0.000000e+000 1.803400e+001
         vertex 0.000000e+000 0.000000e+000 0.000000e+000
      endloop
   endfacet
   facet normal 1.000000e+000 0.000000e+000 0.000000e+000
      outer loop
         vertex 8.763288e+001 8.322675e+001 1.803400e+001
         vertex 8.763288e+001 0.000000e+000 1.803400e+001
         vertex 8.763288e+001 8.322675e+001 0.000000e+000
      endloop
   endfacet
   facet normal 1.000000e+000 0.000000e+000 0.000000e+000
      outer loop
         vertex 8.763288e+001 8.322675e+001 0.000000e+000
         vertex 8.763288e+001 0.000000e+000 1.803400e+001
         vertex 8.763288e+001 0.000000e+000 0.000000e+000
      endloop
   endfacet
   facet normal 0.000000e+000 1.000000e+000 0.000000e+000
      outer loop
         vertex 0.000000e+000 8.322675e+001 1.803400e+001
         vertex 8.763288e+001 8.322675e+001 1.803400e+001
         vertex 0.000000e+000 8.322675e+001 0.000000e+000
      endloop
   endfacet
   facet normal 0.000000e+000 1.000000e+000 0.000000e+000
      outer loop
         vertex 0.000000e+000 8.322675e+001 0.000000e+000
         vertex 8.763288e+001 8.322675e+001 1.803400e+001
         vertex 8.763288e+001 8.322675e+001 0.000000e+000
      endloop
   endfacet
   facet normal 0.000000e+000 0.000000e+000 1.000000e+000
      outer loop
         vertex 8.763288e+001 0.000000e+000 1.803400e+001
         vertex 8.763288e+001 8.322675e+001 1.803400e+001
         vertex 0.000000e+000 0.000000e+000 1.803400e+001
      endloop
   endfacet
   facet normal 0.000000e+000 0.000000e+000 1.000000e+000
      outer loop
         vertex 0.000000e+000 0.000000e+000 1.803400e+001
         vertex 8.763288e+001 8.322675e+001 1.803400e+001
         vertex 0.000000e+000 8.322675e+001 1.803400e+001
      endloop
   endfacet
   facet normal 0.000000e+000 0.000000e+000 -1.000000e+000
      outer loop
         vertex 8.763288e+001 8.322675e+001 0.000000e+000
         vertex 8.763288e+001 0.000000e+000 0.000000e+000
         vertex 0.000000e+000 8.322675e+001 0.000000e+000
      endloop
   endfacet
   facet normal 0.000000e+000 0.000000e+000 -1.000000e+000
      outer loop
         vertex 0.000000e+000 8.322675e+001 0.000000e+000
         vertex 8.763288e+001 0.000000e+000 0.000000e+000
         vertex 0.000000e+000 0.000000e+000 0.000000e+000
      endloop
   endfacet
endsolid