solid test
   facet normal 0.000000e+000 0.000000e+000 1.000000e+000
      outer loop
         vertex 2.273300e+002 7.224245e+001 1.277274e+002
         vertex 2.273300e+002 7.747475e+001 1.277274e+002
         vertex 0.000000e+000 7.224245e+001 1.277274e+002
      endloop
   endfacet
   facet normal 0.000000e+000 0.000000e+000 1.000000e+000
      outer loop
         vertex 0.000000e+000 7.224245e+001 1.277274e+002
         vertex 2.273300e+002 7.747475e+001 1.277274e+002
         vertex 0.000000e+000 7.747475e+001 1.277274e+002
      endloop
   endfacet
   facet normal 0.000000e+000 -1.000000e+000 0.000000e+000
      outer loop
         vertex 2.273300e+002 7.224245e+001 6.716551e+001
         vertex 2.273300e+002 7.224245e+001 1.277274e+002
         vertex 0.000000e+000 7.224245e+001 6.716551e+001
      endloop
   endfacet
   facet normal 0.000000e+000 -1.000000e+000 0.000000e+000
      outer loop
         vertex 0.000000e+000 7.224245e+001 6.716551e+001
         vertex 2.273300e+002 7.224245e+001 1.277274e+002
         vertex 0.000000e+000 7.224245e+001 1.277274e+002
      endloop
   endfacet
   facet normal 0.000000e+000 0.000000e+000 1.000000e+000
      outer loop
         vertex 2.273300e+002 0.000000e+000 6.716551e+001
         vertex 2.273300e+002 7.224245e+001 6.716551e+001
         vertex 0.000000e+000 0.000000e+000 6.716551e+001
      endloop
   endfacet
   facet normal 0.000000e+000 0.000000e+000 1.000000e+000
      outer loop
         vertex 0.000000e+000 0.000000e+000 6.716551e+001
         vertex 2.273300e+002 7.224245e+001 6.716551e+001
         vertex 0.000000e+000 7.224245e+001 6.716551e+001
      endloop
   endfacet
   facet normal 0.000000e+000 -1.000000e+000 0.000000e+000
      outer loop
         vertex 2.273300e+002 0.000000e+000 0.000000e+000
         vertex 2.273300e+002 0.000000e+000 6.716551e+001
         vertex 0.000000e+000 0.000000e+000 0.000000e+000
      endloop
   endfacet
   facet normal 0.000000e+000 -1.000000e+000 0.000000e+000
      outer loop
         vertex 0.000000e+000 0.000000e+000 0.000000e+000
         vertex 2.273300e+002 0.000000e+000 6.716551e+001
         vertex 0.000000e+000 0.000000e+000 6.716551e+001
      endloop
   endfacet
   facet normal 0.000000e+000 0.000000e+000 -1.000000e+000
      outer loop
         vertex 2.273300e+002 4.809246e+000 0.000000e+000
         vertex 2.273300e+002 0.000000e+000 0.000000e+000
         vertex 0.000000e+000 4.809246e+000 0.000000e+000
      endloop
   endfacet
   facet normal 0.000000e+000 0.000000e+000 -1.000000e+000
      outer loop
         vertex 0.000000e+000 4.809246e+000 0.000000e+000
         vertex 2.273300e+002 0.000000e+000 0.000000e+000
         vertex 0.000000e+000 0.000000e+000 0.000000e+000
      endloop
   endfacet
   facet normal 0.000000e+000 1.000000e+000 0.000000e+000
      outer loop
         vertex 2.273300e+002 4.809246e+000 6.111908e+001
         vertex 2.273300e+002 4.809246e+000 0.000000e+000
         vertex 0.000000e+000 4.809246e+000 6.111908e+001
      endloop
   endfacet
   facet normal 0.000000e+000 1.000000e+000 0.000000e+000
      outer loop
         vertex 0.000000e+000 4.809246e+000 6.111908e+001
         vertex 2.273300e+002 4.809246e+000 0.000000e+000
         vertex 0.000000e+000 4.809246e+000 0.000000e+000
      endloop
   endfacet
   facet normal 0.000000e+000 0.000000e+000 -1.000000e+000
      outer loop
         vertex 2.273300e+002 7.224245e+001 6.111908e+001
         vertex 2.273300e+002 4.809246e+000 6.111908e+001
         vertex 0.000000e+000 7.224245e+001 6.111908e+001
      endloop
   endfacet
   facet normal 0.000000e+000 0.000000e+000 -1.000000e+000
      outer loop
         vertex 0.000000e+000 7.224245e+001 6.111908e+001
         vertex 2.273300e+002 4.809246e+000 6.111908e+001
         vertex 0.000000e+000 4.809246e+000 6.111908e+001
      endloop
   endfacet
   facet normal 0.000000e+000 -1.000000e+000 0.000000e+000
      outer loop
         vertex 2.273300e+002 7.224245e+001 0.000000e+000
         vertex 2.273300e+002 7.224245e+001 6.111908e+001
         vertex 0.000000e+000 7.224245e+001 0.000000e+000
      endloop
   endfacet
   facet normal 0.000000e+000 -1.000000e+000 0.000000e+000
      outer loop
         vertex 0.000000e+000 7.224245e+001 0.000000e+000
         vertex 2.273300e+002 7.224245e+001 6.111908e+001
         vertex 0.000000e+000 7.224245e+001 6.111908e+001
      endloop
   endfacet
   facet normal 0.000000e+000 0.000000e+000 -1.000000e+000
      outer loop
         vertex 2.273300e+002 7.747475e+001 0.000000e+000
         vertex 2.273300e+002 7.224245e+001 0.000000e+000
         vertex 0.000000e+000 7.747475e+001 0.000000e+000
      endloop
   endfacet
   facet normal 0.000000e+000 0.000000e+000 -1.000000e+000
      outer loop
         vertex 0.000000e+000 7.747475e+001 0.000000e+000
         vertex 2.273300e+002 7.224245e+001 0.000000e+000
         vertex 0.000000e+000 7.224245e+001 0.000000e+000
      endloop
   endfacet
   facet normal 0.000000e+000 1.000000e+000 0.000000e+000
      outer loop
         vertex 2.273300e+002 7.747475e+001 1.277274e+002
         vertex 2.273300e+002 7.747475e+001 0.000000e+000
         vertex 0.000000e+000 7.747475e+001 1.277274e+002
      endloop
   endfacet
   facet normal 0.000000e+000 1.000000e+000 0.000000e+000
      outer loop
         vertex 0.000000e+000 7.747475e+001 1.277274e+002
         vertex 2.273300e+002 7.747475e+001 0.000000e+000
         vertex 0.000000e+000 7.747475e+001 0.000000e+000
      endloop
   endfacet
   facet normal 1.000000e+000 0.000000e+000 0.000000e+000
      outer loop
         vertex 2.273300e+002 7.747475e+001 0.000000e+000
         vertex 2.273300e+002 7.747475e+001 1.277274e+002
         vertex 2.273300e+002 7.224245e+001 6.716551e+001
      endloop
   endfacet
   facet normal 1.000000e+000 0.000000e+000 0.000000e+000
      outer loop
         vertex 2.273300e+002 7.224245e+001 6.716551e+001
         vertex 2.273300e+002 7.747475e+001 1.277274e+002
         vertex 2.273300e+002 7.224245e+001 1.277274e+002
      endloop
   endfacet
   facet normal 1.000000e+000 0.000000e+000 0.000000e+000
      outer loop
         vertex 2.273300e+002 7.224245e+001 0.000000e+000
         vertex 2.273300e+002 7.747475e+001 0.000000e+000
         vertex 2.273300e+002 7.224245e+001 6.111908e+001
      endloop
   endfacet
   facet normal 1.000000e+000 0.000000e+000 0.000000e+000
      outer loop
         vertex 2.273300e+002 7.224245e+001 6.111908e+001
         vertex 2.273300e+002 7.747475e+001 0.000000e+000
         vertex 2.273300e+002 7.224245e+001 6.716551e+001
      endloop
   endfacet
   facet normal 1.000000e+000 0.000000e+000 0.000000e+000
      outer loop
         vertex 2.273300e+002 7.224245e+001 6.111908e+001
         vertex 2.273300e+002 7.224245e+001 6.716551e+001
         vertex 2.273300e+002 4.809246e+000 6.111908e+001
      endloop
   endfacet
   facet normal 1.000000e+000 0.000000e+000 0.000000e+000
      outer loop
         vertex 2.273300e+002 4.809246e+000 6.111908e+001
         vertex 2.273300e+002 7.224245e+001 6.716551e+001
         vertex 2.273300e+002 0.000000e+000 6.716551e+001
      endloop
   endfacet
   facet normal 1.000000e+000 0.000000e+000 0.000000e+000
      outer loop
         vertex 2.273300e+002 4.809246e+000 6.111908e+001
         vertex 2.273300e+002 0.000000e+000 6.716551e+001
         vertex 2.273300e+002 4.809246e+000 0.000000e+000
      endloop
   endfacet
   facet normal 1.000000e+000 0.000000e+000 0.000000e+000
      outer loop
         vertex 2.273300e+002 4.809246e+000 0.000000e+000
         vertex 2.273300e+002 0.000000e+000 6.716551e+001
         vertex 2.273300e+002 0.000000e+000 0.000000e+000
      endloop
   endfacet
   facet normal -1.000000e+000 0.000000e+000 0.000000e+000
      outer loop
         vertex 0.000000e+000 7.747475e+001 1.277274e+002
         vertex 0.000000e+000 7.747475e+001 0.000000e+000
         vertex 0.000000e+000 7.224245e+001 6.111908e+001
      endloop
   endfacet
   facet normal -1.000000e+000 0.000000e+000 0.000000e+000
      outer loop
         vertex 0.000000e+000 7.224245e+001 6.111908e+001
         vertex 0.000000e+000 7.747475e+001 0.000000e+000
         vertex 0.000000e+000 7.224245e+001 0.000000e+000
      endloop
   endfacet
   facet normal -1.000000e+000 0.000000e+000 0.000000e+000
      outer loop
         vertex 0.000000e+000 7.224245e+001 1.277274e+002
         vertex 0.000000e+000 7.747475e+001 1.277274e+002
         vertex 0.000000e+000 7.224245e+001 6.716551e+001
      endloop
   endfacet
   facet normal -1.000000e+000 0.000000e+000 0.000000e+000
      outer loop
         vertex 0.000000e+000 7.224245e+001 6.716551e+001
         vertex 0.000000e+000 7.747475e+001 1.277274e+002
         vertex 0.000000e+000 7.224245e+001 6.111908e+001
      endloop
   endfacet
   facet normal -1.000000e+000 0.000000e+000 0.000000e+000
      outer loop
         vertex 0.000000e+000 7.224245e+001 6.716551e+001
         vertex 0.000000e+000 7.224245e+001 6.111908e+001
         vertex 0.000000e+000 0.000000e+000 6.716551e+001
      endloop
   endfacet
   facet normal -1.000000e+000 0.000000e+000 0.000000e+000
      outer loop
         vertex 0.000000e+000 0.000000e+000 6.716551e+001
         vertex 0.000000e+000 7.224245e+001 6.111908e+001
         vertex 0.000000e+000 4.809246e+000 6.111908e+001
      endloop
   endfacet
   facet normal -1.000000e+000 0.000000e+000 0.000000e+000
      outer loop
         vertex 0.000000e+000 0.000000e+000 6.716551e+001
         vertex 0.000000e+000 4.809246e+000 6.111908e+001
         vertex 0.000000e+000 0.000000e+000 0.000000e+000
      endloop
   endfacet
   facet normal -1.000000e+000 0.000000e+000 0.000000e+000
      outer loop
         vertex 0.000000e+000 0.000000e+000 0.000000e+000
         vertex 0.000000e+000 4.809246e+000 6.111908e+001
         vertex 0.000000e+000 4.809246e+000 0.000000e+000
      endloop
   endfacet
endsolid