solid test
   facet normal 0.000000e+000 0.000000e+000 -1.000000e+000
      outer loop
         vertex 1.214969e+001 0.000000e+000 0.000000e+000
         vertex 0.000000e+000 0.000000e+000 0.000000e+000
         vertex 1.214969e+001 6.790906e+000 0.000000e+000
      endloop
   endfacet
   facet normal 0.000000e+000 0.000000e+000 -1.000000e+000
      outer loop
         vertex 1.214969e+001 6.790906e+000 0.000000e+000
         vertex 0.000000e+000 0.000000e+000 0.000000e+000
         vertex 0.000000e+000 6.790906e+000 0.000000e+000
      endloop
   endfacet
   facet normal 0.000000e+000 0.000000e+000 -1.000000e+000
      outer loop
         vertex 1.214969e+001 4.505936e+001 0.000000e+000
         vertex 0.000000e+000 4.505936e+001 0.000000e+000
         vertex 1.214969e+001 4.999644e+001 0.000000e+000
      endloop
   endfacet
   facet normal 0.000000e+000 0.000000e+000 -1.000000e+000
      outer loop
         vertex 1.214969e+001 4.999644e+001 0.000000e+000
         vertex 0.000000e+000 4.505936e+001 0.000000e+000
         vertex 0.000000e+000 4.999644e+001 0.000000e+000
      endloop
   endfacet
   facet normal 0.000000e+000 0.000000e+000 1.000000e+000
      outer loop
         vertex 5.969000e+001 4.505936e+001 9.337634e+001
         vertex 5.969000e+001 4.999644e+001 9.337634e+001
         vertex 0.000000e+000 4.505936e+001 9.337634e+001
      endloop
   endfacet
   facet normal 0.000000e+000 0.000000e+000 1.000000e+000
      outer loop
         vertex 0.000000e+000 4.505936e+001 9.337634e+001
         vertex 5.969000e+001 4.999644e+001 9.337634e+001
         vertex 0.000000e+000 4.999644e+001 9.337634e+001
      endloop
   endfacet
   facet normal 0.000000e+000 -1.000000e+000 0.000000e+000
      outer loop
         vertex 4.903516e+001 4.505936e+001 7.847491e+001
         vertex 5.969000e+001 4.505936e+001 4.668817e+001
         vertex 4.903516e+001 4.505936e+001 8.464374e+001
      endloop
   endfacet
   facet normal 0.000000e+000 -1.000000e+000 0.000000e+000
      outer loop
         vertex 4.903516e+001 4.505936e+001 8.464374e+001
         vertex 5.969000e+001 4.505936e+001 4.668817e+001
         vertex 5.969000e+001 4.505936e+001 9.337634e+001
      endloop
   endfacet
   facet normal 0.000000e+000 -1.000000e+000 0.000000e+000
      outer loop
         vertex 4.903516e+001 4.505936e+001 8.464374e+001
         vertex 5.969000e+001 4.505936e+001 9.337634e+001
         vertex 1.214969e+001 4.505936e+001 8.464374e+001
      endloop
   endfacet
   facet normal 0.000000e+000 -1.000000e+000 0.000000e+000
      outer loop
         vertex 1.214969e+001 4.505936e+001 8.464374e+001
         vertex 5.969000e+001 4.505936e+001 9.337634e+001
         vertex 1.387779e-014 4.505936e+001 9.337634e+001
      endloop
   endfacet
   facet normal 0.000000e+000 -1.000000e+000 0.000000e+000
      outer loop
         vertex 1.214969e+001 4.505936e+001 8.464374e+001
         vertex 1.387779e-014 4.505936e+001 9.337634e+001
         vertex 1.214969e+001 4.505936e+001 7.847491e+001
      endloop
   endfacet
   facet normal 0.000000e+000 -1.000000e+000 0.000000e+000
      outer loop
         vertex 5.969000e+001 4.505936e+001 4.668817e+001
         vertex 1.504250e+001 4.505936e+001 6.190965e+001
         vertex 1.387779e-014 4.505936e+001 4.668817e+001
      endloop
   endfacet
   facet normal 0.000000e+000 -1.000000e+000 0.000000e+000
      outer loop
         vertex 1.387779e-014 4.505936e+001 4.668817e+001
         vertex 1.504250e+001 4.505936e+001 6.190965e+001
         vertex 1.504250e+001 4.505936e+001 6.708385e+001
      endloop
   endfacet
   facet normal 0.000000e+000 -1.000000e+000 0.000000e+000
      outer loop
         vertex 1.387779e-014 4.505936e+001 9.337634e+001
         vertex 1.387779e-014 4.505936e+001 4.668817e+001
         vertex 1.214969e+001 4.505936e+001 7.847491e+001
      endloop
   endfacet
   facet normal 0.000000e+000 -1.000000e+000 0.000000e+000
      outer loop
         vertex 1.214969e+001 4.505936e+001 7.847491e+001
         vertex 1.387779e-014 4.505936e+001 4.668817e+001
         vertex 1.504250e+001 4.505936e+001 6.708385e+001
      endloop
   endfacet
   facet normal 0.000000e+000 -1.000000e+000 0.000000e+000
      outer loop
         vertex 1.214969e+001 4.505936e+001 7.847491e+001
         vertex 1.504250e+001 4.505936e+001 6.708385e+001
         vertex 4.903516e+001 4.505936e+001 7.847491e+001
      endloop
   endfacet
   facet normal 0.000000e+000 -1.000000e+000 0.000000e+000
      outer loop
         vertex 4.903516e+001 4.505936e+001 7.847491e+001
         vertex 1.504250e+001 4.505936e+001 6.708385e+001
         vertex 4.284289e+001 4.505936e+001 6.708385e+001
      endloop
   endfacet
   facet normal 0.000000e+000 -1.000000e+000 0.000000e+000
      outer loop
         vertex 4.903516e+001 4.505936e+001 7.847491e+001
         vertex 4.284289e+001 4.505936e+001 6.708385e+001
         vertex 5.969000e+001 4.505936e+001 4.668817e+001
      endloop
   endfacet
   facet normal 0.000000e+000 -1.000000e+000 0.000000e+000
      outer loop
         vertex 5.969000e+001 4.505936e+001 4.668817e+001
         vertex 4.284289e+001 4.505936e+001 6.708385e+001
         vertex 4.284289e+001 4.505936e+001 6.190965e+001
      endloop
   endfacet
   facet normal 0.000000e+000 -1.000000e+000 0.000000e+000
      outer loop
         vertex 5.969000e+001 4.505936e+001 4.668817e+001
         vertex 4.284289e+001 4.505936e+001 6.190965e+001
         vertex 1.504250e+001 4.505936e+001 6.190965e+001
      endloop
   endfacet
   facet normal 0.000000e+000 0.000000e+000 1.000000e+000
      outer loop
         vertex 5.969000e+001 0.000000e+000 4.668817e+001
         vertex 5.969000e+001 4.505936e+001 4.668817e+001
         vertex 0.000000e+000 0.000000e+000 4.668817e+001
      endloop
   endfacet
   facet normal 0.000000e+000 0.000000e+000 1.000000e+000
      outer loop
         vertex 0.000000e+000 0.000000e+000 4.668817e+001
         vertex 5.969000e+001 4.505936e+001 4.668817e+001
         vertex 0.000000e+000 4.505936e+001 4.668817e+001
      endloop
   endfacet
   facet normal 0.000000e+000 -1.000000e+000 0.000000e+000
      outer loop
         vertex 4.903516e+001 0.000000e+000 0.000000e+000
         vertex 5.969000e+001 0.000000e+000 0.000000e+000
         vertex 4.903516e+001 0.000000e+000 3.663611e+001
      endloop
   endfacet
   facet normal 0.000000e+000 -1.000000e+000 0.000000e+000
      outer loop
         vertex 4.903516e+001 0.000000e+000 3.663611e+001
         vertex 5.969000e+001 0.000000e+000 0.000000e+000
         vertex 5.969000e+001 0.000000e+000 4.668817e+001
      endloop
   endfacet
   facet normal 0.000000e+000 -1.000000e+000 0.000000e+000
      outer loop
         vertex 4.903516e+001 0.000000e+000 3.663611e+001
         vertex 5.969000e+001 0.000000e+000 4.668817e+001
         vertex 1.214969e+001 0.000000e+000 3.663611e+001
      endloop
   endfacet
   facet normal 0.000000e+000 -1.000000e+000 0.000000e+000
      outer loop
         vertex 1.214969e+001 0.000000e+000 3.663611e+001
         vertex 5.969000e+001 0.000000e+000 4.668817e+001
         vertex 1.387779e-014 0.000000e+000 4.668817e+001
      endloop
   endfacet
   facet normal 0.000000e+000 -1.000000e+000 0.000000e+000
      outer loop
         vertex 1.214969e+001 0.000000e+000 3.663611e+001
         vertex 1.387779e-014 0.000000e+000 4.668817e+001
         vertex 1.214969e+001 0.000000e+000 0.000000e+000
      endloop
   endfacet
   facet normal 0.000000e+000 -1.000000e+000 0.000000e+000
      outer loop
         vertex 1.214969e+001 0.000000e+000 0.000000e+000
         vertex 1.387779e-014 0.000000e+000 4.668817e+001
         vertex 1.387779e-014 0.000000e+000 0.000000e+000
      endloop
   endfacet
   facet normal 0.000000e+000 0.000000e+000 -1.000000e+000
      outer loop
         vertex 4.903516e+001 6.790906e+000 0.000000e+000
         vertex 5.969000e+001 6.790906e+000 0.000000e+000
         vertex 4.903516e+001 0.000000e+000 0.000000e+000
      endloop
   endfacet
   facet normal 0.000000e+000 0.000000e+000 -1.000000e+000
      outer loop
         vertex 4.903516e+001 0.000000e+000 0.000000e+000
         vertex 5.969000e+001 6.790906e+000 0.000000e+000
         vertex 5.969000e+001 0.000000e+000 0.000000e+000
      endloop
   endfacet
   facet normal 0.000000e+000 1.000000e+000 0.000000e+000
      outer loop
         vertex 1.214969e+001 6.790906e+000 0.000000e+000
         vertex 1.387779e-014 6.790906e+000 0.000000e+000
         vertex 1.214969e+001 6.790906e+000 3.663611e+001
      endloop
   endfacet
   facet normal 0.000000e+000 1.000000e+000 0.000000e+000
      outer loop
         vertex 1.214969e+001 6.790906e+000 3.663611e+001
         vertex 1.387779e-014 6.790906e+000 0.000000e+000
         vertex 1.387779e-014 6.790906e+000 4.189815e+001
      endloop
   endfacet
   facet normal 0.000000e+000 1.000000e+000 0.000000e+000
      outer loop
         vertex 1.214969e+001 6.790906e+000 3.663611e+001
         vertex 1.387779e-014 6.790906e+000 4.189815e+001
         vertex 4.903516e+001 6.790906e+000 3.663611e+001
      endloop
   endfacet
   facet normal 0.000000e+000 1.000000e+000 0.000000e+000
      outer loop
         vertex 4.903516e+001 6.790906e+000 3.663611e+001
         vertex 1.387779e-014 6.790906e+000 4.189815e+001
         vertex 5.969000e+001 6.790906e+000 4.189815e+001
      endloop
   endfacet
   facet normal 0.000000e+000 1.000000e+000 0.000000e+000
      outer loop
         vertex 4.903516e+001 6.790906e+000 3.663611e+001
         vertex 5.969000e+001 6.790906e+000 4.189815e+001
         vertex 4.903516e+001 6.790906e+000 0.000000e+000
      endloop
   endfacet
   facet normal 0.000000e+000 1.000000e+000 0.000000e+000
      outer loop
         vertex 4.903516e+001 6.790906e+000 0.000000e+000
         vertex 5.969000e+001 6.790906e+000 4.189815e+001
         vertex 5.969000e+001 6.790906e+000 0.000000e+000
      endloop
   endfacet
   facet normal 0.000000e+000 0.000000e+000 -1.000000e+000
      outer loop
         vertex 5.969000e+001 4.505936e+001 4.189815e+001
         vertex 5.969000e+001 6.790906e+000 4.189815e+001
         vertex 0.000000e+000 4.505936e+001 4.189815e+001
      endloop
   endfacet
   facet normal 0.000000e+000 0.000000e+000 -1.000000e+000
      outer loop
         vertex 0.000000e+000 4.505936e+001 4.189815e+001
         vertex 5.969000e+001 6.790906e+000 4.189815e+001
         vertex 0.000000e+000 6.790906e+000 4.189815e+001
      endloop
   endfacet
   facet normal 0.000000e+000 -1.000000e+000 0.000000e+000
      outer loop
         vertex 4.903516e+001 4.505936e+001 0.000000e+000
         vertex 5.969000e+001 4.505936e+001 0.000000e+000
         vertex 4.903516e+001 4.505936e+001 3.663611e+001
      endloop
   endfacet
   facet normal 0.000000e+000 -1.000000e+000 0.000000e+000
      outer loop
         vertex 4.903516e+001 4.505936e+001 3.663611e+001
         vertex 5.969000e+001 4.505936e+001 0.000000e+000
         vertex 5.969000e+001 4.505936e+001 4.189815e+001
      endloop
   endfacet
   facet normal 0.000000e+000 -1.000000e+000 0.000000e+000
      outer loop
         vertex 4.903516e+001 4.505936e+001 3.663611e+001
         vertex 5.969000e+001 4.505936e+001 4.189815e+001
         vertex 1.214969e+001 4.505936e+001 3.663611e+001
      endloop
   endfacet
   facet normal 0.000000e+000 -1.000000e+000 0.000000e+000
      outer loop
         vertex 1.214969e+001 4.505936e+001 3.663611e+001
         vertex 5.969000e+001 4.505936e+001 4.189815e+001
         vertex 1.387779e-014 4.505936e+001 4.189815e+001
      endloop
   endfacet
   facet normal 0.000000e+000 -1.000000e+000 0.000000e+000
      outer loop
         vertex 1.214969e+001 4.505936e+001 3.663611e+001
         vertex 1.387779e-014 4.505936e+001 4.189815e+001
         vertex 1.214969e+001 4.505936e+001 0.000000e+000
      endloop
   endfacet
   facet normal 0.000000e+000 -1.000000e+000 0.000000e+000
      outer loop
         vertex 1.214969e+001 4.505936e+001 0.000000e+000
         vertex 1.387779e-014 4.505936e+001 4.189815e+001
         vertex 1.387779e-014 4.505936e+001 0.000000e+000
      endloop
   endfacet
   facet normal 0.000000e+000 0.000000e+000 -1.000000e+000
      outer loop
         vertex 4.903516e+001 4.999644e+001 0.000000e+000
         vertex 5.969000e+001 4.999644e+001 0.000000e+000
         vertex 4.903516e+001 4.505936e+001 0.000000e+000
      endloop
   endfacet
   facet normal 0.000000e+000 0.000000e+000 -1.000000e+000
      outer loop
         vertex 4.903516e+001 4.505936e+001 0.000000e+000
         vertex 5.969000e+001 4.999644e+001 0.000000e+000
         vertex 5.969000e+001 4.505936e+001 0.000000e+000
      endloop
   endfacet
   facet normal 0.000000e+000 1.000000e+000 0.000000e+000
      outer loop
         vertex 1.214969e+001 4.999644e+001 0.000000e+000
         vertex 1.387779e-014 4.999644e+001 0.000000e+000
         vertex 1.214969e+001 4.999644e+001 3.663611e+001
      endloop
   endfacet
   facet normal 0.000000e+000 1.000000e+000 0.000000e+000
      outer loop
         vertex 1.214969e+001 4.999644e+001 3.663611e+001
         vertex 1.387779e-014 4.999644e+001 0.000000e+000
         vertex 1.387779e-014 4.999644e+001 9.337634e+001
      endloop
   endfacet
   facet normal 0.000000e+000 1.000000e+000 0.000000e+000
      outer loop
         vertex 1.504250e+001 4.999644e+001 6.190965e+001
         vertex 4.284289e+001 4.999644e+001 6.190965e+001
         vertex 4.903516e+001 4.999644e+001 3.663611e+001
      endloop
   endfacet
   facet normal 0.000000e+000 1.000000e+000 0.000000e+000
      outer loop
         vertex 4.284289e+001 4.999644e+001 6.708385e+001
         vertex 5.969000e+001 4.999644e+001 9.337634e+001
         vertex 4.284289e+001 4.999644e+001 6.190965e+001
      endloop
   endfacet
   facet normal 0.000000e+000 1.000000e+000 0.000000e+000
      outer loop
         vertex 4.284289e+001 4.999644e+001 6.190965e+001
         vertex 5.969000e+001 4.999644e+001 9.337634e+001
         vertex 5.969000e+001 4.999644e+001 0.000000e+000
      endloop
   endfacet
   facet normal 0.000000e+000 1.000000e+000 0.000000e+000
      outer loop
         vertex 4.284289e+001 4.999644e+001 6.190965e+001
         vertex 5.969000e+001 4.999644e+001 0.000000e+000
         vertex 4.903516e+001 4.999644e+001 3.663611e+001
      endloop
   endfacet
   facet normal 0.000000e+000 1.000000e+000 0.000000e+000
      outer loop
         vertex 4.903516e+001 4.999644e+001 3.663611e+001
         vertex 5.969000e+001 4.999644e+001 0.000000e+000
         vertex 4.903516e+001 4.999644e+001 0.000000e+000
      endloop
   endfacet
   facet normal 0.000000e+000 1.000000e+000 0.000000e+000
      outer loop
         vertex 4.903516e+001 4.999644e+001 3.663611e+001
         vertex 1.214969e+001 4.999644e+001 3.663611e+001
         vertex 1.504250e+001 4.999644e+001 6.190965e+001
      endloop
   endfacet
   facet normal 0.000000e+000 1.000000e+000 0.000000e+000
      outer loop
         vertex 1.504250e+001 4.999644e+001 6.190965e+001
         vertex 1.214969e+001 4.999644e+001 3.663611e+001
         vertex 1.387779e-014 4.999644e+001 9.337634e+001
      endloop
   endfacet
   facet normal 0.000000e+000 1.000000e+000 0.000000e+000
      outer loop
         vertex 1.504250e+001 4.999644e+001 6.190965e+001
         vertex 1.387779e-014 4.999644e+001 9.337634e+001
         vertex 1.504250e+001 4.999644e+001 6.708385e+001
      endloop
   endfacet
   facet normal 0.000000e+000 1.000000e+000 0.000000e+000
      outer loop
         vertex 1.504250e+001 4.999644e+001 6.708385e+001
         vertex 1.387779e-014 4.999644e+001 9.337634e+001
         vertex 1.214969e+001 4.999644e+001 7.847491e+001
      endloop
   endfacet
   facet normal 0.000000e+000 1.000000e+000 0.000000e+000
      outer loop
         vertex 1.504250e+001 4.999644e+001 6.708385e+001
         vertex 1.214969e+001 4.999644e+001 7.847491e+001
         vertex 4.284289e+001 4.999644e+001 6.708385e+001
      endloop
   endfacet
   facet normal 0.000000e+000 1.000000e+000 0.000000e+000
      outer loop
         vertex 4.284289e+001 4.999644e+001 6.708385e+001
         vertex 1.214969e+001 4.999644e+001 7.847491e+001
         vertex 4.903516e+001 4.999644e+001 7.847491e+001
      endloop
   endfacet
   facet normal 0.000000e+000 1.000000e+000 0.000000e+000
      outer loop
         vertex 4.284289e+001 4.999644e+001 6.708385e+001
         vertex 4.903516e+001 4.999644e+001 7.847491e+001
         vertex 5.969000e+001 4.999644e+001 9.337634e+001
      endloop
   endfacet
   facet normal 0.000000e+000 1.000000e+000 0.000000e+000
      outer loop
         vertex 5.969000e+001 4.999644e+001 9.337634e+001
         vertex 4.903516e+001 4.999644e+001 7.847491e+001
         vertex 4.903516e+001 4.999644e+001 8.464374e+001
      endloop
   endfacet
   facet normal 0.000000e+000 1.000000e+000 0.000000e+000
      outer loop
         vertex 5.969000e+001 4.999644e+001 9.337634e+001
         vertex 4.903516e+001 4.999644e+001 8.464374e+001
         vertex 1.387779e-014 4.999644e+001 9.337634e+001
      endloop
   endfacet
   facet normal 0.000000e+000 1.000000e+000 0.000000e+000
      outer loop
         vertex 1.387779e-014 4.999644e+001 9.337634e+001
         vertex 4.903516e+001 4.999644e+001 8.464374e+001
         vertex 1.214969e+001 4.999644e+001 8.464374e+001
      endloop
   endfacet
   facet normal 0.000000e+000 1.000000e+000 0.000000e+000
      outer loop
         vertex 1.387779e-014 4.999644e+001 9.337634e+001
         vertex 1.214969e+001 4.999644e+001 8.464374e+001
         vertex 1.214969e+001 4.999644e+001 7.847491e+001
      endloop
   endfacet
   facet normal 1.000000e+000 0.000000e+000 0.000000e+000
      outer loop
         vertex 5.969000e+001 4.999644e+001 0.000000e+000
         vertex 5.969000e+001 4.999644e+001 9.337634e+001
         vertex 5.969000e+001 4.505936e+001 4.668817e+001
      endloop
   endfacet
   facet normal 1.000000e+000 0.000000e+000 0.000000e+000
      outer loop
         vertex 5.969000e+001 4.505936e+001 4.668817e+001
         vertex 5.969000e+001 4.999644e+001 9.337634e+001
         vertex 5.969000e+001 4.505936e+001 9.337634e+001
      endloop
   endfacet
   facet normal 1.000000e+000 0.000000e+000 0.000000e+000
      outer loop
         vertex 5.969000e+001 4.505936e+001 0.000000e+000
         vertex 5.969000e+001 4.999644e+001 0.000000e+000
         vertex 5.969000e+001 4.505936e+001 4.189815e+001
      endloop
   endfacet
   facet normal 1.000000e+000 0.000000e+000 0.000000e+000
      outer loop
         vertex 5.969000e+001 4.505936e+001 4.189815e+001
         vertex 5.969000e+001 4.999644e+001 0.000000e+000
         vertex 5.969000e+001 4.505936e+001 4.668817e+001
      endloop
   endfacet
   facet normal 1.000000e+000 0.000000e+000 0.000000e+000
      outer loop
         vertex 5.969000e+001 4.505936e+001 4.189815e+001
         vertex 5.969000e+001 4.505936e+001 4.668817e+001
         vertex 5.969000e+001 6.790906e+000 4.189815e+001
      endloop
   endfacet
   facet normal 1.000000e+000 0.000000e+000 0.000000e+000
      outer loop
         vertex 5.969000e+001 6.790906e+000 4.189815e+001
         vertex 5.969000e+001 4.505936e+001 4.668817e+001
         vertex 5.969000e+001 0.000000e+000 4.668817e+001
      endloop
   endfacet
   facet normal 1.000000e+000 0.000000e+000 0.000000e+000
      outer loop
         vertex 5.969000e+001 6.790906e+000 4.189815e+001
         vertex 5.969000e+001 0.000000e+000 4.668817e+001
         vertex 5.969000e+001 6.790906e+000 0.000000e+000
      endloop
   endfacet
   facet normal 1.000000e+000 0.000000e+000 0.000000e+000
      outer loop
         vertex 5.969000e+001 6.790906e+000 0.000000e+000
         vertex 5.969000e+001 0.000000e+000 4.668817e+001
         vertex 5.969000e+001 0.000000e+000 0.000000e+000
      endloop
   endfacet
   facet normal -1.000000e+000 0.000000e+000 0.000000e+000
      outer loop
         vertex 0.000000e+000 4.999644e+001 9.337634e+001
         vertex 0.000000e+000 4.999644e+001 0.000000e+000
         vertex 0.000000e+000 4.505936e+001 4.189815e+001
      endloop
   endfacet
   facet normal -1.000000e+000 0.000000e+000 0.000000e+000
      outer loop
         vertex 0.000000e+000 4.505936e+001 4.189815e+001
         vertex 0.000000e+000 4.999644e+001 0.000000e+000
         vertex 0.000000e+000 4.505936e+001 0.000000e+000
      endloop
   endfacet
   facet normal -1.000000e+000 0.000000e+000 0.000000e+000
      outer loop
         vertex 0.000000e+000 4.505936e+001 9.337634e+001
         vertex 0.000000e+000 4.999644e+001 9.337634e+001
         vertex 0.000000e+000 4.505936e+001 4.668817e+001
      endloop
   endfacet
   facet normal -1.000000e+000 0.000000e+000 0.000000e+000
      outer loop
         vertex 0.000000e+000 4.505936e+001 4.668817e+001
         vertex 0.000000e+000 4.999644e+001 9.337634e+001
         vertex 0.000000e+000 4.505936e+001 4.189815e+001
      endloop
   endfacet
   facet normal -1.000000e+000 0.000000e+000 0.000000e+000
      outer loop
         vertex 0.000000e+000 4.505936e+001 4.668817e+001
         vertex 0.000000e+000 4.505936e+001 4.189815e+001
         vertex 0.000000e+000 0.000000e+000 4.668817e+001
      endloop
   endfacet
   facet normal -1.000000e+000 0.000000e+000 0.000000e+000
      outer loop
         vertex 0.000000e+000 0.000000e+000 4.668817e+001
         vertex 0.000000e+000 4.505936e+001 4.189815e+001
         vertex 0.000000e+000 6.790906e+000 4.189815e+001
      endloop
   endfacet
   facet normal -1.000000e+000 0.000000e+000 0.000000e+000
      outer loop
         vertex 0.000000e+000 0.000000e+000 4.668817e+001
         vertex 0.000000e+000 6.790906e+000 4.189815e+001
         vertex 0.000000e+000 0.000000e+000 0.000000e+000
      endloop
   endfacet
   facet normal -1.000000e+000 0.000000e+000 0.000000e+000
      outer loop
         vertex 0.000000e+000 0.000000e+000 0.000000e+000
         vertex 0.000000e+000 6.790906e+000 4.189815e+001
         vertex 0.000000e+000 6.790906e+000 0.000000e+000
      endloop
   endfacet
   facet normal 1.000000e+000 0.000000e+000 0.000000e+000
      outer loop
         vertex 1.214969e+001 4.999644e+001 8.464374e+001
         vertex 1.214969e+001 4.505936e+001 8.464374e+001
         vertex 1.214969e+001 4.999644e+001 7.847491e+001
      endloop
   endfacet
   facet normal 1.000000e+000 0.000000e+000 0.000000e+000
      outer loop
         vertex 1.214969e+001 4.999644e+001 7.847491e+001
         vertex 1.214969e+001 4.505936e+001 8.464374e+001
         vertex 1.214969e+001 4.505936e+001 7.847491e+001
      endloop
   endfacet
   facet normal 0.000000e+000 0.000000e+000 -1.000000e+000
      outer loop
         vertex 4.903516e+001 4.999644e+001 8.464374e+001
         vertex 4.903516e+001 4.505936e+001 8.464374e+001
         vertex 1.214969e+001 4.999644e+001 8.464374e+001
      endloop
   endfacet
   facet normal 0.000000e+000 0.000000e+000 -1.000000e+000
      outer loop
         vertex 1.214969e+001 4.999644e+001 8.464374e+001
         vertex 4.903516e+001 4.505936e+001 8.464374e+001
         vertex 1.214969e+001 4.505936e+001 8.464374e+001
      endloop
   endfacet
   facet normal -1.000000e+000 0.000000e+000 0.000000e+000
      outer loop
         vertex 4.903516e+001 4.999644e+001 7.847491e+001
         vertex 4.903516e+001 4.505936e+001 7.847491e+001
         vertex 4.903516e+001 4.999644e+001 8.464374e+001
      endloop
   endfacet
   facet normal -1.000000e+000 0.000000e+000 0.000000e+000
      outer loop
         vertex 4.903516e+001 4.999644e+001 8.464374e+001
         vertex 4.903516e+001 4.505936e+001 7.847491e+001
         vertex 4.903516e+001 4.505936e+001 8.464374e+001
      endloop
   endfacet
   facet normal 0.000000e+000 0.000000e+000 1.000000e+000
      outer loop
         vertex 1.214969e+001 4.999644e+001 7.847491e+001
         vertex 1.214969e+001 4.505936e+001 7.847491e+001
         vertex 4.903516e+001 4.999644e+001 7.847491e+001
      endloop
   endfacet
   facet normal 0.000000e+000 0.000000e+000 1.000000e+000
      outer loop
         vertex 4.903516e+001 4.999644e+001 7.847491e+001
         vertex 1.214969e+001 4.505936e+001 7.847491e+001
         vertex 4.903516e+001 4.505936e+001 7.847491e+001
      endloop
   endfacet
   facet normal 1.000000e+000 0.000000e+000 0.000000e+000
      outer loop
         vertex 1.504250e+001 4.999644e+001 6.708385e+001
         vertex 1.504250e+001 4.505936e+001 6.708385e+001
         vertex 1.504250e+001 4.999644e+001 6.190965e+001
      endloop
   endfacet
   facet normal 1.000000e+000 0.000000e+000 0.000000e+000
      outer loop
         vertex 1.504250e+001 4.999644e+001 6.190965e+001
         vertex 1.504250e+001 4.505936e+001 6.708385e+001
         vertex 1.504250e+001 4.505936e+001 6.190965e+001
      endloop
   endfacet
   facet normal 0.000000e+000 0.000000e+000 -1.000000e+000
      outer loop
         vertex 4.284289e+001 4.999644e+001 6.708385e+001
         vertex 4.284289e+001 4.505936e+001 6.708385e+001
         vertex 1.504250e+001 4.999644e+001 6.708385e+001
      endloop
   endfacet
   facet normal 0.000000e+000 0.000000e+000 -1.000000e+000
      outer loop
         vertex 1.504250e+001 4.999644e+001 6.708385e+001
         vertex 4.284289e+001 4.505936e+001 6.708385e+001
         vertex 1.504250e+001 4.505936e+001 6.708385e+001
      endloop
   endfacet
   facet normal -1.000000e+000 0.000000e+000 0.000000e+000
      outer loop
         vertex 4.284289e+001 4.999644e+001 6.190965e+001
         vertex 4.284289e+001 4.505936e+001 6.190965e+001
         vertex 4.284289e+001 4.999644e+001 6.708385e+001
      endloop
   endfacet
   facet normal -1.000000e+000 0.000000e+000 0.000000e+000
      outer loop
         vertex 4.284289e+001 4.999644e+001 6.708385e+001
         vertex 4.284289e+001 4.505936e+001 6.190965e+001
         vertex 4.284289e+001 4.505936e+001 6.708385e+001
      endloop
   endfacet
   facet normal 0.000000e+000 0.000000e+000 1.000000e+000
      outer loop
         vertex 1.504250e+001 4.999644e+001 6.190965e+001
         vertex 1.504250e+001 4.505936e+001 6.190965e+001
         vertex 4.284289e+001 4.999644e+001 6.190965e+001
      endloop
   endfacet
   facet normal 0.000000e+000 0.000000e+000 1.000000e+000
      outer loop
         vertex 4.284289e+001 4.999644e+001 6.190965e+001
         vertex 1.504250e+001 4.505936e+001 6.190965e+001
         vertex 4.284289e+001 4.505936e+001 6.190965e+001
      endloop
   endfacet
   facet normal -1.000000e+000 0.000000e+000 0.000000e+000
      outer loop
         vertex 4.903516e+001 4.999644e+001 0.000000e+000
         vertex 4.903516e+001 4.505936e+001 0.000000e+000
         vertex 4.903516e+001 4.999644e+001 3.663611e+001
      endloop
   endfacet
   facet normal -1.000000e+000 0.000000e+000 0.000000e+000
      outer loop
         vertex 4.903516e+001 4.999644e+001 3.663611e+001
         vertex 4.903516e+001 4.505936e+001 0.000000e+000
         vertex 4.903516e+001 4.505936e+001 3.663611e+001
      endloop
   endfacet
   facet normal 0.000000e+000 0.000000e+000 -1.000000e+000
      outer loop
         vertex 4.903516e+001 4.999644e+001 3.663611e+001
         vertex 4.903516e+001 4.505936e+001 3.663611e+001
         vertex 1.214969e+001 4.999644e+001 3.663611e+001
      endloop
   endfacet
   facet normal 0.000000e+000 0.000000e+000 -1.000000e+000
      outer loop
         vertex 1.214969e+001 4.999644e+001 3.663611e+001
         vertex 4.903516e+001 4.505936e+001 3.663611e+001
         vertex 1.214969e+001 4.505936e+001 3.663611e+001
      endloop
   endfacet
   facet normal 1.000000e+000 0.000000e+000 0.000000e+000
      outer loop
         vertex 1.214969e+001 4.999644e+001 3.663611e+001
         vertex 1.214969e+001 4.505936e+001 3.663611e+001
         vertex 1.214969e+001 4.999644e+001 0.000000e+000
      endloop
   endfacet
   facet normal 1.000000e+000 0.000000e+000 0.000000e+000
      outer loop
         vertex 1.214969e+001 4.999644e+001 0.000000e+000
         vertex 1.214969e+001 4.505936e+001 3.663611e+001
         vertex 1.214969e+001 4.505936e+001 0.000000e+000
      endloop
   endfacet
   facet normal 1.000000e+000 0.000000e+000 0.000000e+000
      outer loop
         vertex 1.214969e+001 0.000000e+000 0.000000e+000
         vertex 1.214969e+001 6.790906e+000 0.000000e+000
         vertex 1.214969e+001 0.000000e+000 3.663611e+001
      endloop
   endfacet
   facet normal 1.000000e+000 0.000000e+000 0.000000e+000
      outer loop
         vertex 1.214969e+001 0.000000e+000 3.663611e+001
         vertex 1.214969e+001 6.790906e+000 0.000000e+000
         vertex 1.214969e+001 6.790906e+000 3.663611e+001
      endloop
   endfacet
   facet normal 0.000000e+000 0.000000e+000 -1.000000e+000
      outer loop
         vertex 1.214969e+001 0.000000e+000 3.663611e+001
         vertex 1.214969e+001 6.790906e+000 3.663611e+001
         vertex 4.903516e+001 0.000000e+000 3.663611e+001
      endloop
   endfacet
   facet normal 0.000000e+000 0.000000e+000 -1.000000e+000
      outer loop
         vertex 4.903516e+001 0.000000e+000 3.663611e+001
         vertex 1.214969e+001 6.790906e+000 3.663611e+001
         vertex 4.903516e+001 6.790906e+000 3.663611e+001
      endloop
   endfacet
   facet normal -1.000000e+000 0.000000e+000 0.000000e+000
      outer loop
         vertex 4.903516e+001 0.000000e+000 3.663611e+001
         vertex 4.903516e+001 6.790906e+000 3.663611e+001
         vertex 4.903516e+001 0.000000e+000 0.000000e+000
      endloop
   endfacet
   facet normal -1.000000e+000 0.000000e+000 0.000000e+000
      outer loop
         vertex 4.903516e+001 0.000000e+000 0.000000e+000
         vertex 4.903516e+001 6.790906e+000 3.663611e+001
         vertex 4.903516e+001 6.790906e+000 0.000000e+000
      endloop
   endfacet
endsolid