solid test
   facet normal 1.000000e+000 0.000000e+000 0.000000e+000
      outer loop
         vertex 1.154285e+001 5.022089e+001 9.347448e+001
         vertex 1.154285e+001 4.056799e+001 9.347448e+001
         vertex 1.154285e+001 5.022089e+001 8.773561e+001
      endloop
   endfacet
   facet normal 1.000000e+000 0.000000e+000 0.000000e+000
      outer loop
         vertex 1.154285e+001 5.022089e+001 8.773561e+001
         vertex 1.154285e+001 4.056799e+001 9.347448e+001
         vertex 1.154285e+001 4.056799e+001 8.773561e+001
      endloop
   endfacet
   facet normal 0.000000e+000 0.000000e+000 -1.000000e+000
      outer loop
         vertex 4.541373e+001 5.022089e+001 9.347448e+001
         vertex 4.541373e+001 4.056799e+001 9.347448e+001
         vertex 1.154285e+001 5.022089e+001 9.347448e+001
      endloop
   endfacet
   facet normal 0.000000e+000 0.000000e+000 -1.000000e+000
      outer loop
         vertex 1.154285e+001 5.022089e+001 9.347448e+001
         vertex 4.541373e+001 4.056799e+001 9.347448e+001
         vertex 1.154285e+001 4.056799e+001 9.347448e+001
      endloop
   endfacet
   facet normal -1.000000e+000 0.000000e+000 0.000000e+000
      outer loop
         vertex 4.541373e+001 5.022089e+001 8.773561e+001
         vertex 4.541373e+001 4.056799e+001 8.773561e+001
         vertex 4.541373e+001 5.022089e+001 9.347448e+001
      endloop
   endfacet
   facet normal -1.000000e+000 0.000000e+000 0.000000e+000
      outer loop
         vertex 4.541373e+001 5.022089e+001 9.347448e+001
         vertex 4.541373e+001 4.056799e+001 8.773561e+001
         vertex 4.541373e+001 4.056799e+001 9.347448e+001
      endloop
   endfacet
   facet normal 0.000000e+000 0.000000e+000 1.000000e+000
      outer loop
         vertex 1.154285e+001 5.022089e+001 8.773561e+001
         vertex 1.154285e+001 4.056799e+001 8.773561e+001
         vertex 4.541373e+001 5.022089e+001 8.773561e+001
      endloop
   endfacet
   facet normal 0.000000e+000 0.000000e+000 1.000000e+000
      outer loop
         vertex 4.541373e+001 5.022089e+001 8.773561e+001
         vertex 1.154285e+001 4.056799e+001 8.773561e+001
         vertex 4.541373e+001 4.056799e+001 8.773561e+001
      endloop
   endfacet
   facet normal 1.000000e+000 0.000000e+000 0.000000e+000
      outer loop
         vertex 1.154285e+001 5.022089e+001 7.891222e+001
         vertex 1.154285e+001 4.056799e+001 7.891222e+001
         vertex 1.154285e+001 5.022089e+001 7.163335e+001
      endloop
   endfacet
   facet normal 1.000000e+000 0.000000e+000 0.000000e+000
      outer loop
         vertex 1.154285e+001 5.022089e+001 7.163335e+001
         vertex 1.154285e+001 4.056799e+001 7.891222e+001
         vertex 1.154285e+001 4.056799e+001 7.163335e+001
      endloop
   endfacet
   facet normal 0.000000e+000 0.000000e+000 -1.000000e+000
      outer loop
         vertex 4.541373e+001 5.022089e+001 7.891222e+001
         vertex 4.541373e+001 4.056799e+001 7.891222e+001
         vertex 1.154285e+001 5.022089e+001 7.891222e+001
      endloop
   endfacet
   facet normal 0.000000e+000 0.000000e+000 -1.000000e+000
      outer loop
         vertex 1.154285e+001 5.022089e+001 7.891222e+001
         vertex 4.541373e+001 4.056799e+001 7.891222e+001
         vertex 1.154285e+001 4.056799e+001 7.891222e+001
      endloop
   endfacet
   facet normal -1.000000e+000 0.000000e+000 0.000000e+000
      outer loop
         vertex 4.541373e+001 5.022089e+001 7.163335e+001
         vertex 4.541373e+001 4.056799e+001 7.163335e+001
         vertex 4.541373e+001 5.022089e+001 7.891222e+001
      endloop
   endfacet
   facet normal -1.000000e+000 0.000000e+000 0.000000e+000
      outer loop
         vertex 4.541373e+001 5.022089e+001 7.891222e+001
         vertex 4.541373e+001 4.056799e+001 7.163335e+001
         vertex 4.541373e+001 4.056799e+001 7.891222e+001
      endloop
   endfacet
   facet normal 0.000000e+000 0.000000e+000 1.000000e+000
      outer loop
         vertex 1.154285e+001 5.022089e+001 7.163335e+001
         vertex 1.154285e+001 4.056799e+001 7.163335e+001
         vertex 4.541373e+001 5.022089e+001 7.163335e+001
      endloop
   endfacet
   facet normal 0.000000e+000 0.000000e+000 1.000000e+000
      outer loop
         vertex 4.541373e+001 5.022089e+001 7.163335e+001
         vertex 1.154285e+001 4.056799e+001 7.163335e+001
         vertex 4.541373e+001 4.056799e+001 7.163335e+001
      endloop
   endfacet
   facet normal -1.000000e+000 0.000000e+000 0.000000e+000
      outer loop
         vertex 4.541373e+001 5.022089e+001 0.000000e+000
         vertex 4.541373e+001 4.056799e+001 0.000000e+000
         vertex 4.541373e+001 5.022089e+001 3.991219e+001
      endloop
   endfacet
   facet normal -1.000000e+000 0.000000e+000 0.000000e+000
      outer loop
         vertex 4.541373e+001 5.022089e+001 3.991219e+001
         vertex 4.541373e+001 4.056799e+001 0.000000e+000
         vertex 4.541373e+001 4.056799e+001 3.991219e+001
      endloop
   endfacet
   facet normal 0.000000e+000 0.000000e+000 -1.000000e+000
      outer loop
         vertex 4.541373e+001 5.022089e+001 3.991219e+001
         vertex 4.541373e+001 4.056799e+001 3.991219e+001
         vertex 1.154285e+001 5.022089e+001 3.991219e+001
      endloop
   endfacet
   facet normal 0.000000e+000 0.000000e+000 -1.000000e+000
      outer loop
         vertex 1.154285e+001 5.022089e+001 3.991219e+001
         vertex 4.541373e+001 4.056799e+001 3.991219e+001
         vertex 1.154285e+001 4.056799e+001 3.991219e+001
      endloop
   endfacet
   facet normal 1.000000e+000 0.000000e+000 0.000000e+000
      outer loop
         vertex 1.154285e+001 5.022089e+001 3.991219e+001
         vertex 1.154285e+001 4.056799e+001 3.991219e+001
         vertex 1.154285e+001 5.022089e+001 0.000000e+000
      endloop
   endfacet
   facet normal 1.000000e+000 0.000000e+000 0.000000e+000
      outer loop
         vertex 1.154285e+001 5.022089e+001 0.000000e+000
         vertex 1.154285e+001 4.056799e+001 3.991219e+001
         vertex 1.154285e+001 4.056799e+001 0.000000e+000
      endloop
   endfacet
   facet normal 1.000000e+000 0.000000e+000 0.000000e+000
      outer loop
         vertex 1.154285e+001 0.000000e+000 0.000000e+000
         vertex 1.154285e+001 7.179706e+000 0.000000e+000
         vertex 1.154285e+001 0.000000e+000 3.991219e+001
      endloop
   endfacet
   facet normal 1.000000e+000 0.000000e+000 0.000000e+000
      outer loop
         vertex 1.154285e+001 0.000000e+000 3.991219e+001
         vertex 1.154285e+001 7.179706e+000 0.000000e+000
         vertex 1.154285e+001 7.179706e+000 3.991219e+001
      endloop
   endfacet
   facet normal 0.000000e+000 0.000000e+000 -1.000000e+000
      outer loop
         vertex 1.154285e+001 0.000000e+000 3.991219e+001
         vertex 1.154285e+001 7.179706e+000 3.991219e+001
         vertex 4.541373e+001 0.000000e+000 3.991219e+001
      endloop
   endfacet
   facet normal 0.000000e+000 0.000000e+000 -1.000000e+000
      outer loop
         vertex 4.541373e+001 0.000000e+000 3.991219e+001
         vertex 1.154285e+001 7.179706e+000 3.991219e+001
         vertex 4.541373e+001 7.179706e+000 3.991219e+001
      endloop
   endfacet
   facet normal -1.000000e+000 0.000000e+000 0.000000e+000
      outer loop
         vertex 4.541373e+001 0.000000e+000 3.991219e+001
         vertex 4.541373e+001 7.179706e+000 3.991219e+001
         vertex 4.541373e+001 0.000000e+000 0.000000e+000
      endloop
   endfacet
   facet normal -1.000000e+000 0.000000e+000 0.000000e+000
      outer loop
         vertex 4.541373e+001 0.000000e+000 0.000000e+000
         vertex 4.541373e+001 7.179706e+000 3.991219e+001
         vertex 4.541373e+001 7.179706e+000 0.000000e+000
      endloop
   endfacet
endsolid