solid test
   facet normal 0.000000e+000 0.000000e+000 -1.000000e+000
      outer loop
         vertex 0.000000e+000 8.174229e+001 0.000000e+000
         vertex 0.000000e+000 9.751245e+001 0.000000e+000
         vertex 2.404734e+001 8.174229e+001 0.000000e+000
      endloop
   endfacet
   facet normal 0.000000e+000 0.000000e+000 -1.000000e+000
      outer loop
         vertex 2.404734e+001 8.174229e+001 0.000000e+000
         vertex 0.000000e+000 9.751245e+001 0.000000e+000
         vertex 2.404734e+001 9.751245e+001 0.000000e+000
      endloop
   endfacet
   facet normal 0.000000e+000 0.000000e+000 -1.000000e+000
      outer loop
         vertex 0.000000e+000 0.000000e+000 0.000000e+000
         vertex 0.000000e+000 1.762918e+001 0.000000e+000
         vertex 2.404734e+001 0.000000e+000 0.000000e+000
      endloop
   endfacet
   facet normal 0.000000e+000 0.000000e+000 -1.000000e+000
      outer loop
         vertex 2.404734e+001 0.000000e+000 0.000000e+000
         vertex 0.000000e+000 1.762918e+001 0.000000e+000
         vertex 2.404734e+001 1.762918e+001 0.000000e+000
      endloop
   endfacet
   facet normal 0.000000e+000 0.000000e+000 1.000000e+000
      outer loop
         vertex 0.000000e+000 9.751245e+001 1.441776e+002
         vertex 0.000000e+000 8.174229e+001 1.441776e+002
         vertex 7.061200e+001 9.751245e+001 1.441776e+002
      endloop
   endfacet
   facet normal 0.000000e+000 0.000000e+000 1.000000e+000
      outer loop
         vertex 7.061200e+001 9.751245e+001 1.441776e+002
         vertex 0.000000e+000 8.174229e+001 1.441776e+002
         vertex 7.061200e+001 8.174229e+001 1.441776e+002
      endloop
   endfacet
   facet normal 0.000000e+000 1.000000e+000 0.000000e+000
      outer loop
         vertex 7.061200e+001 9.751245e+001 0.000000e+000
         vertex 5.281305e+001 9.751245e+001 0.000000e+000
         vertex 5.281305e+001 9.751245e+001 5.807529e+001
      endloop
   endfacet
   facet normal 0.000000e+000 1.000000e+000 0.000000e+000
      outer loop
         vertex 2.404734e+001 9.751245e+001 0.000000e+000
         vertex 0.000000e+000 9.751245e+001 0.000000e+000
         vertex 2.404734e+001 9.751245e+001 5.807529e+001
      endloop
   endfacet
   facet normal 0.000000e+000 1.000000e+000 0.000000e+000
      outer loop
         vertex 2.404734e+001 9.751245e+001 5.807529e+001
         vertex 0.000000e+000 9.751245e+001 0.000000e+000
         vertex 0.000000e+000 9.751245e+001 1.441776e+002
      endloop
   endfacet
   facet normal 0.000000e+000 1.000000e+000 0.000000e+000
      outer loop
         vertex 2.404734e+001 9.751245e+001 5.807529e+001
         vertex 0.000000e+000 9.751245e+001 1.441776e+002
         vertex 5.281305e+001 9.751245e+001 5.807529e+001
      endloop
   endfacet
   facet normal 0.000000e+000 1.000000e+000 0.000000e+000
      outer loop
         vertex 5.281305e+001 9.751245e+001 5.807529e+001
         vertex 0.000000e+000 9.751245e+001 1.441776e+002
         vertex 7.061200e+001 9.751245e+001 1.441776e+002
      endloop
   endfacet
   facet normal 0.000000e+000 1.000000e+000 0.000000e+000
      outer loop
         vertex 5.281305e+001 9.751245e+001 5.807529e+001
         vertex 7.061200e+001 9.751245e+001 1.441776e+002
         vertex 7.061200e+001 9.751245e+001 0.000000e+000
      endloop
   endfacet
   facet normal 0.000000e+000 0.000000e+000 -1.000000e+000
      outer loop
         vertex 7.061200e+001 9.751245e+001 0.000000e+000
         vertex 7.061200e+001 8.174229e+001 0.000000e+000
         vertex 5.281305e+001 9.751245e+001 0.000000e+000
      endloop
   endfacet
   facet normal 0.000000e+000 0.000000e+000 -1.000000e+000
      outer loop
         vertex 5.281305e+001 9.751245e+001 0.000000e+000
         vertex 7.061200e+001 8.174229e+001 0.000000e+000
         vertex 5.281305e+001 8.174229e+001 0.000000e+000
      endloop
   endfacet
   facet normal 0.000000e+000 -1.000000e+000 0.000000e+000
      outer loop
         vertex 5.281305e+001 8.174229e+001 0.000000e+000
         vertex 7.061200e+001 8.174229e+001 0.000000e+000
         vertex 5.281305e+001 8.174229e+001 5.807529e+001
      endloop
   endfacet
   facet normal 0.000000e+000 -1.000000e+000 0.000000e+000
      outer loop
         vertex 5.281305e+001 8.174229e+001 5.807529e+001
         vertex 7.061200e+001 8.174229e+001 0.000000e+000
         vertex 7.061200e+001 8.174229e+001 6.674322e+001
      endloop
   endfacet
   facet normal 0.000000e+000 -1.000000e+000 0.000000e+000
      outer loop
         vertex 5.281305e+001 8.174229e+001 5.807529e+001
         vertex 7.061200e+001 8.174229e+001 6.674322e+001
         vertex 2.404734e+001 8.174229e+001 5.807529e+001
      endloop
   endfacet
   facet normal 0.000000e+000 -1.000000e+000 0.000000e+000
      outer loop
         vertex 2.404734e+001 8.174229e+001 5.807529e+001
         vertex 7.061200e+001 8.174229e+001 6.674322e+001
         vertex 0.000000e+000 8.174229e+001 6.674322e+001
      endloop
   endfacet
   facet normal 0.000000e+000 -1.000000e+000 0.000000e+000
      outer loop
         vertex 2.404734e+001 8.174229e+001 5.807529e+001
         vertex 0.000000e+000 8.174229e+001 6.674322e+001
         vertex 2.404734e+001 8.174229e+001 0.000000e+000
      endloop
   endfacet
   facet normal 0.000000e+000 -1.000000e+000 0.000000e+000
      outer loop
         vertex 2.404734e+001 8.174229e+001 0.000000e+000
         vertex 0.000000e+000 8.174229e+001 6.674322e+001
         vertex 0.000000e+000 8.174229e+001 0.000000e+000
      endloop
   endfacet
   facet normal 0.000000e+000 0.000000e+000 -1.000000e+000
      outer loop
         vertex 0.000000e+000 1.762918e+001 6.674322e+001
         vertex 0.000000e+000 8.174229e+001 6.674322e+001
         vertex 7.061200e+001 1.762918e+001 6.674322e+001
      endloop
   endfacet
   facet normal 0.000000e+000 0.000000e+000 -1.000000e+000
      outer loop
         vertex 7.061200e+001 1.762918e+001 6.674322e+001
         vertex 0.000000e+000 8.174229e+001 6.674322e+001
         vertex 7.061200e+001 8.174229e+001 6.674322e+001
      endloop
   endfacet
   facet normal 0.000000e+000 1.000000e+000 0.000000e+000
      outer loop
         vertex 2.404734e+001 1.762918e+001 0.000000e+000
         vertex 0.000000e+000 1.762918e+001 0.000000e+000
         vertex 2.404734e+001 1.762918e+001 5.807529e+001
      endloop
   endfacet
   facet normal 0.000000e+000 1.000000e+000 0.000000e+000
      outer loop
         vertex 2.404734e+001 1.762918e+001 5.807529e+001
         vertex 0.000000e+000 1.762918e+001 0.000000e+000
         vertex 0.000000e+000 1.762918e+001 6.674322e+001
      endloop
   endfacet
   facet normal 0.000000e+000 1.000000e+000 0.000000e+000
      outer loop
         vertex 2.404734e+001 1.762918e+001 5.807529e+001
         vertex 0.000000e+000 1.762918e+001 6.674322e+001
         vertex 5.281305e+001 1.762918e+001 5.807529e+001
      endloop
   endfacet
   facet normal 0.000000e+000 1.000000e+000 0.000000e+000
      outer loop
         vertex 5.281305e+001 1.762918e+001 5.807529e+001
         vertex 0.000000e+000 1.762918e+001 6.674322e+001
         vertex 7.061200e+001 1.762918e+001 6.674322e+001
      endloop
   endfacet
   facet normal 0.000000e+000 1.000000e+000 0.000000e+000
      outer loop
         vertex 5.281305e+001 1.762918e+001 5.807529e+001
         vertex 7.061200e+001 1.762918e+001 6.674322e+001
         vertex 5.281305e+001 1.762918e+001 0.000000e+000
      endloop
   endfacet
   facet normal 0.000000e+000 1.000000e+000 0.000000e+000
      outer loop
         vertex 5.281305e+001 1.762918e+001 0.000000e+000
         vertex 7.061200e+001 1.762918e+001 6.674322e+001
         vertex 7.061200e+001 1.762918e+001 0.000000e+000
      endloop
   endfacet
   facet normal 0.000000e+000 0.000000e+000 -1.000000e+000
      outer loop
         vertex 7.061200e+001 1.762918e+001 0.000000e+000
         vertex 7.061200e+001 0.000000e+000 0.000000e+000
         vertex 5.281305e+001 1.762918e+001 0.000000e+000
      endloop
   endfacet
   facet normal 0.000000e+000 0.000000e+000 -1.000000e+000
      outer loop
         vertex 5.281305e+001 1.762918e+001 0.000000e+000
         vertex 7.061200e+001 0.000000e+000 0.000000e+000
         vertex 5.281305e+001 0.000000e+000 0.000000e+000
      endloop
   endfacet
   facet normal 0.000000e+000 -1.000000e+000 0.000000e+000
      outer loop
         vertex 5.281305e+001 0.000000e+000 0.000000e+000
         vertex 7.061200e+001 0.000000e+000 0.000000e+000
         vertex 5.281305e+001 0.000000e+000 5.807529e+001
      endloop
   endfacet
   facet normal 0.000000e+000 -1.000000e+000 0.000000e+000
      outer loop
         vertex 5.281305e+001 0.000000e+000 5.807529e+001
         vertex 7.061200e+001 0.000000e+000 0.000000e+000
         vertex 7.061200e+001 0.000000e+000 8.236029e+001
      endloop
   endfacet
   facet normal 0.000000e+000 -1.000000e+000 0.000000e+000
      outer loop
         vertex 5.281305e+001 0.000000e+000 5.807529e+001
         vertex 7.061200e+001 0.000000e+000 8.236029e+001
         vertex 2.404734e+001 0.000000e+000 5.807529e+001
      endloop
   endfacet
   facet normal 0.000000e+000 -1.000000e+000 0.000000e+000
      outer loop
         vertex 2.404734e+001 0.000000e+000 5.807529e+001
         vertex 7.061200e+001 0.000000e+000 8.236029e+001
         vertex 0.000000e+000 0.000000e+000 8.236029e+001
      endloop
   endfacet
   facet normal 0.000000e+000 -1.000000e+000 0.000000e+000
      outer loop
         vertex 2.404734e+001 0.000000e+000 5.807529e+001
         vertex 0.000000e+000 0.000000e+000 8.236029e+001
         vertex 2.404734e+001 0.000000e+000 0.000000e+000
      endloop
   endfacet
   facet normal 0.000000e+000 -1.000000e+000 0.000000e+000
      outer loop
         vertex 2.404734e+001 0.000000e+000 0.000000e+000
         vertex 0.000000e+000 0.000000e+000 8.236029e+001
         vertex 0.000000e+000 0.000000e+000 0.000000e+000
      endloop
   endfacet
   facet normal 0.000000e+000 0.000000e+000 1.000000e+000
      outer loop
         vertex 0.000000e+000 8.174229e+001 8.236029e+001
         vertex 0.000000e+000 0.000000e+000 8.236029e+001
         vertex 7.061200e+001 8.174229e+001 8.236029e+001
      endloop
   endfacet
   facet normal 0.000000e+000 0.000000e+000 1.000000e+000
      outer loop
         vertex 7.061200e+001 8.174229e+001 8.236029e+001
         vertex 0.000000e+000 0.000000e+000 8.236029e+001
         vertex 7.061200e+001 0.000000e+000 8.236029e+001
      endloop
   endfacet
   facet normal 0.000000e+000 -1.000000e+000 0.000000e+000
      outer loop
         vertex 0.000000e+000 8.174229e+001 1.441776e+002
         vertex 0.000000e+000 8.174229e+001 8.236029e+001
         vertex 7.061200e+001 8.174229e+001 1.441776e+002
      endloop
   endfacet
   facet normal 0.000000e+000 -1.000000e+000 0.000000e+000
      outer loop
         vertex 7.061200e+001 8.174229e+001 1.441776e+002
         vertex 0.000000e+000 8.174229e+001 8.236029e+001
         vertex 7.061200e+001 8.174229e+001 8.236029e+001
      endloop
   endfacet
   facet normal -1.000000e+000 0.000000e+000 0.000000e+000
      outer loop
         vertex 0.000000e+000 9.751245e+001 1.441776e+002
         vertex 0.000000e+000 9.751245e+001 0.000000e+000
         vertex 0.000000e+000 8.174229e+001 6.674322e+001
      endloop
   endfacet
   facet normal -1.000000e+000 0.000000e+000 0.000000e+000
      outer loop
         vertex 0.000000e+000 8.174229e+001 6.674322e+001
         vertex 0.000000e+000 9.751245e+001 0.000000e+000
         vertex 0.000000e+000 8.174229e+001 0.000000e+000
      endloop
   endfacet
   facet normal -1.000000e+000 0.000000e+000 0.000000e+000
      outer loop
         vertex 0.000000e+000 8.174229e+001 1.441776e+002
         vertex 0.000000e+000 9.751245e+001 1.441776e+002
         vertex 0.000000e+000 8.174229e+001 8.236029e+001
      endloop
   endfacet
   facet normal -1.000000e+000 0.000000e+000 0.000000e+000
      outer loop
         vertex 0.000000e+000 8.174229e+001 8.236029e+001
         vertex 0.000000e+000 9.751245e+001 1.441776e+002
         vertex 0.000000e+000 8.174229e+001 6.674322e+001
      endloop
   endfacet
   facet normal -1.000000e+000 0.000000e+000 0.000000e+000
      outer loop
         vertex 0.000000e+000 8.174229e+001 8.236029e+001
         vertex 0.000000e+000 8.174229e+001 6.674322e+001
         vertex 0.000000e+000 0.000000e+000 8.236029e+001
      endloop
   endfacet
   facet normal -1.000000e+000 0.000000e+000 0.000000e+000
      outer loop
         vertex 0.000000e+000 0.000000e+000 8.236029e+001
         vertex 0.000000e+000 8.174229e+001 6.674322e+001
         vertex 0.000000e+000 1.762918e+001 6.674322e+001
      endloop
   endfacet
   facet normal -1.000000e+000 0.000000e+000 0.000000e+000
      outer loop
         vertex 0.000000e+000 0.000000e+000 8.236029e+001
         vertex 0.000000e+000 1.762918e+001 6.674322e+001
         vertex 0.000000e+000 0.000000e+000 0.000000e+000
      endloop
   endfacet
   facet normal -1.000000e+000 0.000000e+000 0.000000e+000
      outer loop
         vertex 0.000000e+000 0.000000e+000 0.000000e+000
         vertex 0.000000e+000 1.762918e+001 6.674322e+001
         vertex 0.000000e+000 1.762918e+001 0.000000e+000
      endloop
   endfacet
   facet normal 1.000000e+000 0.000000e+000 0.000000e+000
      outer loop
         vertex 7.061200e+001 9.751245e+001 0.000000e+000
         vertex 7.061200e+001 9.751245e+001 1.441776e+002
         vertex 7.061200e+001 8.174229e+001 8.236029e+001
      endloop
   endfacet
   facet normal 1.000000e+000 0.000000e+000 0.000000e+000
      outer loop
         vertex 7.061200e+001 8.174229e+001 8.236029e+001
         vertex 7.061200e+001 9.751245e+001 1.441776e+002
         vertex 7.061200e+001 8.174229e+001 1.441776e+002
      endloop
   endfacet
   facet normal 1.000000e+000 0.000000e+000 0.000000e+000
      outer loop
         vertex 7.061200e+001 8.174229e+001 0.000000e+000
         vertex 7.061200e+001 9.751245e+001 0.000000e+000
         vertex 7.061200e+001 8.174229e+001 6.674322e+001
      endloop
   endfacet
   facet normal 1.000000e+000 0.000000e+000 0.000000e+000
      outer loop
         vertex 7.061200e+001 8.174229e+001 6.674322e+001
         vertex 7.061200e+001 9.751245e+001 0.000000e+000
         vertex 7.061200e+001 8.174229e+001 8.236029e+001
      endloop
   endfacet
   facet normal 1.000000e+000 0.000000e+000 0.000000e+000
      outer loop
         vertex 7.061200e+001 8.174229e+001 6.674322e+001
         vertex 7.061200e+001 8.174229e+001 8.236029e+001
         vertex 7.061200e+001 1.762918e+001 6.674322e+001
      endloop
   endfacet
   facet normal 1.000000e+000 0.000000e+000 0.000000e+000
      outer loop
         vertex 7.061200e+001 1.762918e+001 6.674322e+001
         vertex 7.061200e+001 8.174229e+001 8.236029e+001
         vertex 7.061200e+001 0.000000e+000 8.236029e+001
      endloop
   endfacet
   facet normal 1.000000e+000 0.000000e+000 0.000000e+000
      outer loop
         vertex 7.061200e+001 1.762918e+001 6.674322e+001
         vertex 7.061200e+001 0.000000e+000 8.236029e+001
         vertex 7.061200e+001 1.762918e+001 0.000000e+000
      endloop
   endfacet
   facet normal 1.000000e+000 0.000000e+000 0.000000e+000
      outer loop
         vertex 7.061200e+001 1.762918e+001 0.000000e+000
         vertex 7.061200e+001 0.000000e+000 8.236029e+001
         vertex 7.061200e+001 0.000000e+000 0.000000e+000
      endloop
   endfacet
   facet normal -1.000000e+000 0.000000e+000 0.000000e+000
      outer loop
         vertex 5.281305e+001 0.000000e+000 0.000000e+000
         vertex 5.281305e+001 0.000000e+000 5.807529e+001
         vertex 5.281305e+001 1.762918e+001 0.000000e+000
      endloop
   endfacet
   facet normal -1.000000e+000 0.000000e+000 0.000000e+000
      outer loop
         vertex 5.281305e+001 1.762918e+001 0.000000e+000
         vertex 5.281305e+001 0.000000e+000 5.807529e+001
         vertex 5.281305e+001 1.762918e+001 5.807529e+001
      endloop
   endfacet
   facet normal 0.000000e+000 0.000000e+000 -1.000000e+000
      outer loop
         vertex 5.281305e+001 0.000000e+000 5.807529e+001
         vertex 2.404734e+001 0.000000e+000 5.807529e+001
         vertex 5.281305e+001 1.762918e+001 5.807529e+001
      endloop
   endfacet
   facet normal 0.000000e+000 0.000000e+000 -1.000000e+000
      outer loop
         vertex 5.281305e+001 1.762918e+001 5.807529e+001
         vertex 2.404734e+001 0.000000e+000 5.807529e+001
         vertex 2.404734e+001 1.762918e+001 5.807529e+001
      endloop
   endfacet
   facet normal 1.000000e+000 0.000000e+000 0.000000e+000
      outer loop
         vertex 2.404734e+001 0.000000e+000 5.807529e+001
         vertex 2.404734e+001 0.000000e+000 0.000000e+000
         vertex 2.404734e+001 1.762918e+001 5.807529e+001
      endloop
   endfacet
   facet normal 1.000000e+000 0.000000e+000 0.000000e+000
      outer loop
         vertex 2.404734e+001 1.762918e+001 5.807529e+001
         vertex 2.404734e+001 0.000000e+000 0.000000e+000
         vertex 2.404734e+001 1.762918e+001 0.000000e+000
      endloop
   endfacet
   facet normal 1.000000e+000 0.000000e+000 0.000000e+000
      outer loop
         vertex 2.404734e+001 8.174229e+001 5.807529e+001
         vertex 2.404734e+001 8.174229e+001 0.000000e+000
         vertex 2.404734e+001 9.751245e+001 5.807529e+001
      endloop
   endfacet
   facet normal 1.000000e+000 0.000000e+000 0.000000e+000
      outer loop
         vertex 2.404734e+001 9.751245e+001 5.807529e+001
         vertex 2.404734e+001 8.174229e+001 0.000000e+000
         vertex 2.404734e+001 9.751245e+001 0.000000e+000
      endloop
   endfacet
   facet normal 0.000000e+000 0.000000e+000 -1.000000e+000
      outer loop
         vertex 5.281305e+001 8.174229e+001 5.807529e+001
         vertex 2.404734e+001 8.174229e+001 5.807529e+001
         vertex 5.281305e+001 9.751245e+001 5.807529e+001
      endloop
   endfacet
   facet normal 0.000000e+000 0.000000e+000 -1.000000e+000
      outer loop
         vertex 5.281305e+001 9.751245e+001 5.807529e+001
         vertex 2.404734e+001 8.174229e+001 5.807529e+001
         vertex 2.404734e+001 9.751245e+001 5.807529e+001
      endloop
   endfacet
   facet normal -1.000000e+000 0.000000e+000 0.000000e+000
      outer loop
         vertex 5.281305e+001 8.174229e+001 0.000000e+000
         vertex 5.281305e+001 8.174229e+001 5.807529e+001
         vertex 5.281305e+001 9.751245e+001 0.000000e+000
      endloop
   endfacet
   facet normal -1.000000e+000 0.000000e+000 0.000000e+000
      outer loop
         vertex 5.281305e+001 9.751245e+001 0.000000e+000
         vertex 5.281305e+001 8.174229e+001 5.807529e+001
         vertex 5.281305e+001 9.751245e+001 5.807529e+001
      endloop
   endfacet
endsolid