solid test
   facet normal 0.000000e+000 0.000000e+000 1.000000e+000
      outer loop
         vertex 1.346200e+001 0.000000e+000 6.541063e+001
         vertex 1.346200e+001 8.080776e+001 6.541063e+001
         vertex 0.000000e+000 0.000000e+000 6.541063e+001
      endloop
   endfacet
   facet normal 0.000000e+000 0.000000e+000 1.000000e+000
      outer loop
         vertex 0.000000e+000 0.000000e+000 6.541063e+001
         vertex 1.346200e+001 8.080776e+001 6.541063e+001
         vertex 0.000000e+000 8.080776e+001 6.541063e+001
      endloop
   endfacet
   facet normal 0.000000e+000 -1.000000e+000 0.000000e+000
      outer loop
         vertex 1.346200e+001 0.000000e+000 0.000000e+000
         vertex 1.346200e+001 0.000000e+000 6.541063e+001
         vertex 3.469447e-015 0.000000e+000 0.000000e+000
      endloop
   endfacet
   facet normal 0.000000e+000 -1.000000e+000 0.000000e+000
      outer loop
         vertex 3.469447e-015 0.000000e+000 0.000000e+000
         vertex 1.346200e+001 0.000000e+000 6.541063e+001
         vertex 3.469447e-015 0.000000e+000 6.541063e+001
      endloop
   endfacet
   facet normal 0.000000e+000 0.000000e+000 -1.000000e+000
      outer loop
         vertex 1.346200e+001 8.080776e+001 0.000000e+000
         vertex 1.346200e+001 0.000000e+000 0.000000e+000
         vertex 0.000000e+000 8.080776e+001 0.000000e+000
      endloop
   endfacet
   facet normal 0.000000e+000 0.000000e+000 -1.000000e+000
      outer loop
         vertex 0.000000e+000 8.080776e+001 0.000000e+000
         vertex 1.346200e+001 0.000000e+000 0.000000e+000
         vertex 0.000000e+000 0.000000e+000 0.000000e+000
      endloop
   endfacet
   facet normal 0.000000e+000 1.000000e+000 0.000000e+000
      outer loop
         vertex 1.346200e+001 8.080776e+001 6.541063e+001
         vertex 1.346200e+001 8.080776e+001 0.000000e+000
         vertex 3.469447e-015 8.080776e+001 6.541063e+001
      endloop
   endfacet
   facet normal 0.000000e+000 1.000000e+000 0.000000e+000
      outer loop
         vertex 3.469447e-015 8.080776e+001 6.541063e+001
         vertex 1.346200e+001 8.080776e+001 0.000000e+000
         vertex 3.469447e-015 8.080776e+001 0.000000e+000
      endloop
   endfacet
   facet normal 1.000000e+000 0.000000e+000 0.000000e+000
      outer loop
         vertex 1.346200e+001 0.000000e+000 0.000000e+000
         vertex 1.346200e+001 8.080776e+001 0.000000e+000
         vertex 1.346200e+001 0.000000e+000 6.541063e+001
      endloop
   endfacet
   facet normal 1.000000e+000 0.000000e+000 0.000000e+000
      outer loop
         vertex 1.346200e+001 0.000000e+000 6.541063e+001
         vertex 1.346200e+001 8.080776e+001 0.000000e+000
         vertex 1.346200e+001 8.080776e+001 6.541063e+001
      endloop
   endfacet
   facet normal -1.000000e+000 0.000000e+000 0.000000e+000
      outer loop
         vertex 0.000000e+000 8.080776e+001 0.000000e+000
         vertex 0.000000e+000 0.000000e+000 0.000000e+000
         vertex 0.000000e+000 8.080776e+001 6.541063e+001
      endloop
   endfacet
   facet normal -1.000000e+000 0.000000e+000 0.000000e+000
      outer loop
         vertex 0.000000e+000 8.080776e+001 6.541063e+001
         vertex 0.000000e+000 0.000000e+000 0.000000e+000
         vertex 0.000000e+000 0.000000e+000 6.541063e+001
      endloop
   endfacet
endsolid