solid test
   facet normal 0.000000e+000 0.000000e+000 -1.000000e+000
      outer loop
         vertex 9.513437e+000 0.000000e+000 0.000000e+000
         vertex 0.000000e+000 0.000000e+000 0.000000e+000
         vertex 9.513437e+000 5.355220e+000 0.000000e+000
      endloop
   endfacet
   facet normal 0.000000e+000 0.000000e+000 -1.000000e+000
      outer loop
         vertex 9.513437e+000 5.355220e+000 0.000000e+000
         vertex 0.000000e+000 0.000000e+000 0.000000e+000
         vertex 0.000000e+000 5.355220e+000 0.000000e+000
      endloop
   endfacet
   facet normal 0.000000e+000 0.000000e+000 -1.000000e+000
      outer loop
         vertex 9.513437e+000 6.034369e+001 0.000000e+000
         vertex 0.000000e+000 6.034369e+001 0.000000e+000
         vertex 9.513437e+000 6.664120e+001 0.000000e+000
      endloop
   endfacet
   facet normal 0.000000e+000 0.000000e+000 -1.000000e+000
      outer loop
         vertex 9.513437e+000 6.664120e+001 0.000000e+000
         vertex 0.000000e+000 6.034369e+001 0.000000e+000
         vertex 0.000000e+000 6.664120e+001 0.000000e+000
      endloop
   endfacet
   facet normal 0.000000e+000 0.000000e+000 1.000000e+000
      outer loop
         vertex 7.950200e+001 6.034369e+001 1.164890e+002
         vertex 7.950200e+001 6.664120e+001 1.164890e+002
         vertex 0.000000e+000 6.034369e+001 1.164890e+002
      endloop
   endfacet
   facet normal 0.000000e+000 0.000000e+000 1.000000e+000
      outer loop
         vertex 0.000000e+000 6.034369e+001 1.164890e+002
         vertex 7.950200e+001 6.664120e+001 1.164890e+002
         vertex 0.000000e+000 6.664120e+001 1.164890e+002
      endloop
   endfacet
   facet normal 0.000000e+000 -1.000000e+000 0.000000e+000
      outer loop
         vertex 0.000000e+000 6.034369e+001 5.824451e+001
         vertex 9.513437e+000 6.034369e+001 1.073103e+002
         vertex 0.000000e+000 6.034369e+001 1.164890e+002
      endloop
   endfacet
   facet normal 0.000000e+000 -1.000000e+000 0.000000e+000
      outer loop
         vertex 0.000000e+000 6.034369e+001 1.164890e+002
         vertex 9.513437e+000 6.034369e+001 1.073103e+002
         vertex 9.513437e+000 6.034369e+001 1.161353e+002
      endloop
   endfacet
   facet normal 0.000000e+000 -1.000000e+000 0.000000e+000
      outer loop
         vertex 0.000000e+000 6.034369e+001 1.164890e+002
         vertex 9.513437e+000 6.034369e+001 1.161353e+002
         vertex 7.950200e+001 6.034369e+001 1.164890e+002
      endloop
   endfacet
   facet normal 0.000000e+000 -1.000000e+000 0.000000e+000
      outer loop
         vertex 9.513437e+000 6.034369e+001 9.801932e+001
         vertex 7.091073e+001 6.034369e+001 9.801932e+001
         vertex 7.091073e+001 6.034369e+001 1.073103e+002
      endloop
   endfacet
   facet normal 0.000000e+000 -1.000000e+000 0.000000e+000
      outer loop
         vertex 9.513437e+000 6.034369e+001 1.161353e+002
         vertex 7.091073e+001 6.034369e+001 1.161353e+002
         vertex 7.950200e+001 6.034369e+001 1.164890e+002
      endloop
   endfacet
   facet normal 0.000000e+000 -1.000000e+000 0.000000e+000
      outer loop
         vertex 7.950200e+001 6.034369e+001 1.164890e+002
         vertex 7.091073e+001 6.034369e+001 1.161353e+002
         vertex 7.091073e+001 6.034369e+001 1.073103e+002
      endloop
   endfacet
   facet normal 0.000000e+000 -1.000000e+000 0.000000e+000
      outer loop
         vertex 7.950200e+001 6.034369e+001 1.164890e+002
         vertex 7.091073e+001 6.034369e+001 1.073103e+002
         vertex 7.950200e+001 6.034369e+001 5.824451e+001
      endloop
   endfacet
   facet normal 0.000000e+000 -1.000000e+000 0.000000e+000
      outer loop
         vertex 7.950200e+001 6.034369e+001 5.824451e+001
         vertex 7.091073e+001 6.034369e+001 1.073103e+002
         vertex 7.091073e+001 6.034369e+001 9.801932e+001
      endloop
   endfacet
   facet normal 0.000000e+000 -1.000000e+000 0.000000e+000
      outer loop
         vertex 7.950200e+001 6.034369e+001 5.824451e+001
         vertex 7.091073e+001 6.034369e+001 9.801932e+001
         vertex 7.091073e+001 6.034369e+001 8.782108e+001
      endloop
   endfacet
   facet normal 0.000000e+000 -1.000000e+000 0.000000e+000
      outer loop
         vertex 7.950200e+001 6.034369e+001 5.824451e+001
         vertex 9.513437e+000 6.034369e+001 6.968855e+001
         vertex 0.000000e+000 6.034369e+001 5.824451e+001
      endloop
   endfacet
   facet normal 0.000000e+000 -1.000000e+000 0.000000e+000
      outer loop
         vertex 0.000000e+000 6.034369e+001 5.824451e+001
         vertex 9.513437e+000 6.034369e+001 6.968855e+001
         vertex 9.513437e+000 6.034369e+001 7.970477e+001
      endloop
   endfacet
   facet normal 0.000000e+000 -1.000000e+000 0.000000e+000
      outer loop
         vertex 7.091073e+001 6.034369e+001 1.073103e+002
         vertex 9.513437e+000 6.034369e+001 1.073103e+002
         vertex 9.513437e+000 6.034369e+001 9.801932e+001
      endloop
   endfacet
   facet normal 0.000000e+000 -1.000000e+000 0.000000e+000
      outer loop
         vertex 9.513437e+000 6.034369e+001 9.801932e+001
         vertex 9.513437e+000 6.034369e+001 1.073103e+002
         vertex 0.000000e+000 6.034369e+001 5.824451e+001
      endloop
   endfacet
   facet normal 0.000000e+000 -1.000000e+000 0.000000e+000
      outer loop
         vertex 9.513437e+000 6.034369e+001 9.801932e+001
         vertex 0.000000e+000 6.034369e+001 5.824451e+001
         vertex 9.513437e+000 6.034369e+001 8.782108e+001
      endloop
   endfacet
   facet normal 0.000000e+000 -1.000000e+000 0.000000e+000
      outer loop
         vertex 9.513437e+000 6.034369e+001 8.782108e+001
         vertex 0.000000e+000 6.034369e+001 5.824451e+001
         vertex 9.513437e+000 6.034369e+001 7.970477e+001
      endloop
   endfacet
   facet normal 0.000000e+000 -1.000000e+000 0.000000e+000
      outer loop
         vertex 9.513437e+000 6.034369e+001 8.782108e+001
         vertex 9.513437e+000 6.034369e+001 7.970477e+001
         vertex 7.091073e+001 6.034369e+001 8.782108e+001
      endloop
   endfacet
   facet normal 0.000000e+000 -1.000000e+000 0.000000e+000
      outer loop
         vertex 7.091073e+001 6.034369e+001 8.782108e+001
         vertex 9.513437e+000 6.034369e+001 7.970477e+001
         vertex 7.091073e+001 6.034369e+001 7.970477e+001
      endloop
   endfacet
   facet normal 0.000000e+000 -1.000000e+000 0.000000e+000
      outer loop
         vertex 7.091073e+001 6.034369e+001 8.782108e+001
         vertex 7.091073e+001 6.034369e+001 7.970477e+001
         vertex 7.950200e+001 6.034369e+001 5.824451e+001
      endloop
   endfacet
   facet normal 0.000000e+000 -1.000000e+000 0.000000e+000
      outer loop
         vertex 7.950200e+001 6.034369e+001 5.824451e+001
         vertex 7.091073e+001 6.034369e+001 7.970477e+001
         vertex 7.091073e+001 6.034369e+001 6.968855e+001
      endloop
   endfacet
   facet normal 0.000000e+000 -1.000000e+000 0.000000e+000
      outer loop
         vertex 7.950200e+001 6.034369e+001 5.824451e+001
         vertex 7.091073e+001 6.034369e+001 6.968855e+001
         vertex 9.513437e+000 6.034369e+001 6.968855e+001
      endloop
   endfacet
   facet normal 0.000000e+000 0.000000e+000 1.000000e+000
      outer loop
         vertex 7.950200e+001 0.000000e+000 5.824451e+001
         vertex 7.950200e+001 6.034369e+001 5.824451e+001
         vertex 0.000000e+000 0.000000e+000 5.824451e+001
      endloop
   endfacet
   facet normal 0.000000e+000 0.000000e+000 1.000000e+000
      outer loop
         vertex 0.000000e+000 0.000000e+000 5.824451e+001
         vertex 7.950200e+001 6.034369e+001 5.824451e+001
         vertex 0.000000e+000 6.034369e+001 5.824451e+001
      endloop
   endfacet
   facet normal 0.000000e+000 -1.000000e+000 0.000000e+000
      outer loop
         vertex 7.091073e+001 0.000000e+000 0.000000e+000
         vertex 7.950200e+001 0.000000e+000 0.000000e+000
         vertex 7.091073e+001 0.000000e+000 4.991182e+001
      endloop
   endfacet
   facet normal 0.000000e+000 -1.000000e+000 0.000000e+000
      outer loop
         vertex 7.091073e+001 0.000000e+000 4.991182e+001
         vertex 7.950200e+001 0.000000e+000 0.000000e+000
         vertex 7.950200e+001 0.000000e+000 5.824451e+001
      endloop
   endfacet
   facet normal 0.000000e+000 -1.000000e+000 0.000000e+000
      outer loop
         vertex 7.091073e+001 0.000000e+000 4.991182e+001
         vertex 7.950200e+001 0.000000e+000 5.824451e+001
         vertex 9.513437e+000 0.000000e+000 4.991182e+001
      endloop
   endfacet
   facet normal 0.000000e+000 -1.000000e+000 0.000000e+000
      outer loop
         vertex 9.513437e+000 0.000000e+000 4.991182e+001
         vertex 7.950200e+001 0.000000e+000 5.824451e+001
         vertex 0.000000e+000 0.000000e+000 5.824451e+001
      endloop
   endfacet
   facet normal 0.000000e+000 -1.000000e+000 0.000000e+000
      outer loop
         vertex 9.513437e+000 0.000000e+000 4.991182e+001
         vertex 0.000000e+000 0.000000e+000 5.824451e+001
         vertex 9.513437e+000 0.000000e+000 0.000000e+000
      endloop
   endfacet
   facet normal 0.000000e+000 -1.000000e+000 0.000000e+000
      outer loop
         vertex 9.513437e+000 0.000000e+000 0.000000e+000
         vertex 0.000000e+000 0.000000e+000 5.824451e+001
         vertex 0.000000e+000 0.000000e+000 0.000000e+000
      endloop
   endfacet
   facet normal 0.000000e+000 0.000000e+000 -1.000000e+000
      outer loop
         vertex 7.091073e+001 5.355220e+000 0.000000e+000
         vertex 7.950200e+001 5.355220e+000 0.000000e+000
         vertex 7.091073e+001 0.000000e+000 0.000000e+000
      endloop
   endfacet
   facet normal 0.000000e+000 0.000000e+000 -1.000000e+000
      outer loop
         vertex 7.091073e+001 0.000000e+000 0.000000e+000
         vertex 7.950200e+001 5.355220e+000 0.000000e+000
         vertex 7.950200e+001 0.000000e+000 0.000000e+000
      endloop
   endfacet
   facet normal 0.000000e+000 1.000000e+000 0.000000e+000
      outer loop
         vertex 9.513437e+000 5.355220e+000 0.000000e+000
         vertex 0.000000e+000 5.355220e+000 0.000000e+000
         vertex 9.513437e+000 5.355220e+000 4.991182e+001
      endloop
   endfacet
   facet normal 0.000000e+000 1.000000e+000 0.000000e+000
      outer loop
         vertex 9.513437e+000 5.355220e+000 4.991182e+001
         vertex 0.000000e+000 5.355220e+000 0.000000e+000
         vertex 0.000000e+000 5.355220e+000 5.334926e+001
      endloop
   endfacet
   facet normal 0.000000e+000 1.000000e+000 0.000000e+000
      outer loop
         vertex 9.513437e+000 5.355220e+000 4.991182e+001
         vertex 0.000000e+000 5.355220e+000 5.334926e+001
         vertex 7.091073e+001 5.355220e+000 4.991182e+001
      endloop
   endfacet
   facet normal 0.000000e+000 1.000000e+000 0.000000e+000
      outer loop
         vertex 7.091073e+001 5.355220e+000 4.991182e+001
         vertex 0.000000e+000 5.355220e+000 5.334926e+001
         vertex 7.950200e+001 5.355220e+000 5.334926e+001
      endloop
   endfacet
   facet normal 0.000000e+000 1.000000e+000 0.000000e+000
      outer loop
         vertex 7.091073e+001 5.355220e+000 4.991182e+001
         vertex 7.950200e+001 5.355220e+000 5.334926e+001
         vertex 7.091073e+001 5.355220e+000 0.000000e+000
      endloop
   endfacet
   facet normal 0.000000e+000 1.000000e+000 0.000000e+000
      outer loop
         vertex 7.091073e+001 5.355220e+000 0.000000e+000
         vertex 7.950200e+001 5.355220e+000 5.334926e+001
         vertex 7.950200e+001 5.355220e+000 0.000000e+000
      endloop
   endfacet
   facet normal 0.000000e+000 0.000000e+000 -1.000000e+000
      outer loop
         vertex 7.950200e+001 6.034369e+001 5.334926e+001
         vertex 7.950200e+001 5.355220e+000 5.334926e+001
         vertex 0.000000e+000 6.034369e+001 5.334926e+001
      endloop
   endfacet
   facet normal 0.000000e+000 0.000000e+000 -1.000000e+000
      outer loop
         vertex 0.000000e+000 6.034369e+001 5.334926e+001
         vertex 7.950200e+001 5.355220e+000 5.334926e+001
         vertex 0.000000e+000 5.355220e+000 5.334926e+001
      endloop
   endfacet
   facet normal 0.000000e+000 -1.000000e+000 0.000000e+000
      outer loop
         vertex 7.091073e+001 6.034369e+001 0.000000e+000
         vertex 7.950200e+001 6.034369e+001 0.000000e+000
         vertex 7.091073e+001 6.034369e+001 4.991182e+001
      endloop
   endfacet
   facet normal 0.000000e+000 -1.000000e+000 0.000000e+000
      outer loop
         vertex 7.091073e+001 6.034369e+001 4.991182e+001
         vertex 7.950200e+001 6.034369e+001 0.000000e+000
         vertex 7.950200e+001 6.034369e+001 5.334926e+001
      endloop
   endfacet
   facet normal 0.000000e+000 -1.000000e+000 0.000000e+000
      outer loop
         vertex 7.091073e+001 6.034369e+001 4.991182e+001
         vertex 7.950200e+001 6.034369e+001 5.334926e+001
         vertex 9.513437e+000 6.034369e+001 4.991182e+001
      endloop
   endfacet
   facet normal 0.000000e+000 -1.000000e+000 0.000000e+000
      outer loop
         vertex 9.513437e+000 6.034369e+001 4.991182e+001
         vertex 7.950200e+001 6.034369e+001 5.334926e+001
         vertex 0.000000e+000 6.034369e+001 5.334926e+001
      endloop
   endfacet
   facet normal 0.000000e+000 -1.000000e+000 0.000000e+000
      outer loop
         vertex 9.513437e+000 6.034369e+001 4.991182e+001
         vertex 0.000000e+000 6.034369e+001 5.334926e+001
         vertex 9.513437e+000 6.034369e+001 0.000000e+000
      endloop
   endfacet
   facet normal 0.000000e+000 -1.000000e+000 0.000000e+000
      outer loop
         vertex 9.513437e+000 6.034369e+001 0.000000e+000
         vertex 0.000000e+000 6.034369e+001 5.334926e+001
         vertex 0.000000e+000 6.034369e+001 0.000000e+000
      endloop
   endfacet
   facet normal 0.000000e+000 0.000000e+000 -1.000000e+000
      outer loop
         vertex 7.091073e+001 6.664120e+001 0.000000e+000
         vertex 7.950200e+001 6.664120e+001 0.000000e+000
         vertex 7.091073e+001 6.034369e+001 0.000000e+000
      endloop
   endfacet
   facet normal 0.000000e+000 0.000000e+000 -1.000000e+000
      outer loop
         vertex 7.091073e+001 6.034369e+001 0.000000e+000
         vertex 7.950200e+001 6.664120e+001 0.000000e+000
         vertex 7.950200e+001 6.034369e+001 0.000000e+000
      endloop
   endfacet
   facet normal 0.000000e+000 1.000000e+000 0.000000e+000
      outer loop
         vertex 9.513437e+000 6.664120e+001 4.991182e+001
         vertex 9.513437e+000 6.664120e+001 0.000000e+000
         vertex 0.000000e+000 6.664120e+001 0.000000e+000
      endloop
   endfacet
   facet normal 0.000000e+000 1.000000e+000 0.000000e+000
      outer loop
         vertex 0.000000e+000 6.664120e+001 1.164890e+002
         vertex 9.513437e+000 6.664120e+001 7.970477e+001
         vertex 9.513437e+000 6.664120e+001 6.968855e+001
      endloop
   endfacet
   facet normal 0.000000e+000 1.000000e+000 0.000000e+000
      outer loop
         vertex 0.000000e+000 6.664120e+001 0.000000e+000
         vertex 0.000000e+000 6.664120e+001 1.164890e+002
         vertex 9.513437e+000 6.664120e+001 4.991182e+001
      endloop
   endfacet
   facet normal 0.000000e+000 1.000000e+000 0.000000e+000
      outer loop
         vertex 9.513437e+000 6.664120e+001 4.991182e+001
         vertex 0.000000e+000 6.664120e+001 1.164890e+002
         vertex 9.513437e+000 6.664120e+001 6.968855e+001
      endloop
   endfacet
   facet normal 0.000000e+000 1.000000e+000 0.000000e+000
      outer loop
         vertex 9.513437e+000 6.664120e+001 4.991182e+001
         vertex 9.513437e+000 6.664120e+001 6.968855e+001
         vertex 7.091073e+001 6.664120e+001 4.991182e+001
      endloop
   endfacet
   facet normal 0.000000e+000 1.000000e+000 0.000000e+000
      outer loop
         vertex 7.091073e+001 6.664120e+001 4.991182e+001
         vertex 9.513437e+000 6.664120e+001 6.968855e+001
         vertex 7.091073e+001 6.664120e+001 6.968855e+001
      endloop
   endfacet
   facet normal 0.000000e+000 1.000000e+000 0.000000e+000
      outer loop
         vertex 7.091073e+001 6.664120e+001 8.782108e+001
         vertex 7.091073e+001 6.664120e+001 9.801932e+001
         vertex 7.950200e+001 6.664120e+001 1.164890e+002
      endloop
   endfacet
   facet normal 0.000000e+000 1.000000e+000 0.000000e+000
      outer loop
         vertex 9.513437e+000 6.664120e+001 8.782108e+001
         vertex 7.091073e+001 6.664120e+001 8.782108e+001
         vertex 7.091073e+001 6.664120e+001 7.970477e+001
      endloop
   endfacet
   facet normal 0.000000e+000 1.000000e+000 0.000000e+000
      outer loop
         vertex 7.091073e+001 6.664120e+001 7.970477e+001
         vertex 7.091073e+001 6.664120e+001 8.782108e+001
         vertex 7.950200e+001 6.664120e+001 1.164890e+002
      endloop
   endfacet
   facet normal 0.000000e+000 1.000000e+000 0.000000e+000
      outer loop
         vertex 7.091073e+001 6.664120e+001 7.970477e+001
         vertex 7.950200e+001 6.664120e+001 1.164890e+002
         vertex 7.091073e+001 6.664120e+001 6.968855e+001
      endloop
   endfacet
   facet normal 0.000000e+000 1.000000e+000 0.000000e+000
      outer loop
         vertex 7.091073e+001 6.664120e+001 6.968855e+001
         vertex 7.950200e+001 6.664120e+001 1.164890e+002
         vertex 7.950200e+001 6.664120e+001 0.000000e+000
      endloop
   endfacet
   facet normal 0.000000e+000 1.000000e+000 0.000000e+000
      outer loop
         vertex 7.091073e+001 6.664120e+001 6.968855e+001
         vertex 7.950200e+001 6.664120e+001 0.000000e+000
         vertex 7.091073e+001 6.664120e+001 4.991182e+001
      endloop
   endfacet
   facet normal 0.000000e+000 1.000000e+000 0.000000e+000
      outer loop
         vertex 7.091073e+001 6.664120e+001 4.991182e+001
         vertex 7.950200e+001 6.664120e+001 0.000000e+000
         vertex 7.091073e+001 6.664120e+001 0.000000e+000
      endloop
   endfacet
   facet normal 0.000000e+000 1.000000e+000 0.000000e+000
      outer loop
         vertex 7.950200e+001 6.664120e+001 1.164890e+002
         vertex 9.513437e+000 6.664120e+001 1.161353e+002
         vertex 0.000000e+000 6.664120e+001 1.164890e+002
      endloop
   endfacet
   facet normal 0.000000e+000 1.000000e+000 0.000000e+000
      outer loop
         vertex 0.000000e+000 6.664120e+001 1.164890e+002
         vertex 9.513437e+000 6.664120e+001 1.161353e+002
         vertex 9.513437e+000 6.664120e+001 1.073103e+002
      endloop
   endfacet
   facet normal 0.000000e+000 1.000000e+000 0.000000e+000
      outer loop
         vertex 7.091073e+001 6.664120e+001 7.970477e+001
         vertex 9.513437e+000 6.664120e+001 7.970477e+001
         vertex 9.513437e+000 6.664120e+001 8.782108e+001
      endloop
   endfacet
   facet normal 0.000000e+000 1.000000e+000 0.000000e+000
      outer loop
         vertex 9.513437e+000 6.664120e+001 8.782108e+001
         vertex 9.513437e+000 6.664120e+001 7.970477e+001
         vertex 0.000000e+000 6.664120e+001 1.164890e+002
      endloop
   endfacet
   facet normal 0.000000e+000 1.000000e+000 0.000000e+000
      outer loop
         vertex 9.513437e+000 6.664120e+001 8.782108e+001
         vertex 0.000000e+000 6.664120e+001 1.164890e+002
         vertex 9.513437e+000 6.664120e+001 9.801932e+001
      endloop
   endfacet
   facet normal 0.000000e+000 1.000000e+000 0.000000e+000
      outer loop
         vertex 9.513437e+000 6.664120e+001 9.801932e+001
         vertex 0.000000e+000 6.664120e+001 1.164890e+002
         vertex 9.513437e+000 6.664120e+001 1.073103e+002
      endloop
   endfacet
   facet normal 0.000000e+000 1.000000e+000 0.000000e+000
      outer loop
         vertex 9.513437e+000 6.664120e+001 9.801932e+001
         vertex 9.513437e+000 6.664120e+001 1.073103e+002
         vertex 7.091073e+001 6.664120e+001 9.801932e+001
      endloop
   endfacet
   facet normal 0.000000e+000 1.000000e+000 0.000000e+000
      outer loop
         vertex 7.091073e+001 6.664120e+001 9.801932e+001
         vertex 9.513437e+000 6.664120e+001 1.073103e+002
         vertex 7.091073e+001 6.664120e+001 1.073103e+002
      endloop
   endfacet
   facet normal 0.000000e+000 1.000000e+000 0.000000e+000
      outer loop
         vertex 7.091073e+001 6.664120e+001 9.801932e+001
         vertex 7.091073e+001 6.664120e+001 1.073103e+002
         vertex 7.950200e+001 6.664120e+001 1.164890e+002
      endloop
   endfacet
   facet normal 0.000000e+000 1.000000e+000 0.000000e+000
      outer loop
         vertex 7.950200e+001 6.664120e+001 1.164890e+002
         vertex 7.091073e+001 6.664120e+001 1.073103e+002
         vertex 7.091073e+001 6.664120e+001 1.161353e+002
      endloop
   endfacet
   facet normal 0.000000e+000 1.000000e+000 0.000000e+000
      outer loop
         vertex 7.950200e+001 6.664120e+001 1.164890e+002
         vertex 7.091073e+001 6.664120e+001 1.161353e+002
         vertex 9.513437e+000 6.664120e+001 1.161353e+002
      endloop
   endfacet
   facet normal 1.000000e+000 0.000000e+000 0.000000e+000
      outer loop
         vertex 7.950200e+001 6.664120e+001 0.000000e+000
         vertex 7.950200e+001 6.664120e+001 1.164890e+002
         vertex 7.950200e+001 6.034369e+001 5.824451e+001
      endloop
   endfacet
   facet normal 1.000000e+000 0.000000e+000 0.000000e+000
      outer loop
         vertex 7.950200e+001 6.034369e+001 5.824451e+001
         vertex 7.950200e+001 6.664120e+001 1.164890e+002
         vertex 7.950200e+001 6.034369e+001 1.164890e+002
      endloop
   endfacet
   facet normal 1.000000e+000 0.000000e+000 0.000000e+000
      outer loop
         vertex 7.950200e+001 6.034369e+001 0.000000e+000
         vertex 7.950200e+001 6.664120e+001 0.000000e+000
         vertex 7.950200e+001 6.034369e+001 5.334926e+001
      endloop
   endfacet
   facet normal 1.000000e+000 0.000000e+000 0.000000e+000
      outer loop
         vertex 7.950200e+001 6.034369e+001 5.334926e+001
         vertex 7.950200e+001 6.664120e+001 0.000000e+000
         vertex 7.950200e+001 6.034369e+001 5.824451e+001
      endloop
   endfacet
   facet normal 1.000000e+000 0.000000e+000 0.000000e+000
      outer loop
         vertex 7.950200e+001 6.034369e+001 5.334926e+001
         vertex 7.950200e+001 6.034369e+001 5.824451e+001
         vertex 7.950200e+001 5.355220e+000 5.334926e+001
      endloop
   endfacet
   facet normal 1.000000e+000 0.000000e+000 0.000000e+000
      outer loop
         vertex 7.950200e+001 5.355220e+000 5.334926e+001
         vertex 7.950200e+001 6.034369e+001 5.824451e+001
         vertex 7.950200e+001 0.000000e+000 5.824451e+001
      endloop
   endfacet
   facet normal 1.000000e+000 0.000000e+000 0.000000e+000
      outer loop
         vertex 7.950200e+001 5.355220e+000 5.334926e+001
         vertex 7.950200e+001 0.000000e+000 5.824451e+001
         vertex 7.950200e+001 5.355220e+000 0.000000e+000
      endloop
   endfacet
   facet normal 1.000000e+000 0.000000e+000 0.000000e+000
      outer loop
         vertex 7.950200e+001 5.355220e+000 0.000000e+000
         vertex 7.950200e+001 0.000000e+000 5.824451e+001
         vertex 7.950200e+001 0.000000e+000 0.000000e+000
      endloop
   endfacet
   facet normal -1.000000e+000 0.000000e+000 0.000000e+000
      outer loop
         vertex 0.000000e+000 6.664120e+001 1.164890e+002
         vertex 0.000000e+000 6.664120e+001 0.000000e+000
         vertex 0.000000e+000 6.034369e+001 5.334926e+001
      endloop
   endfacet
   facet normal -1.000000e+000 0.000000e+000 0.000000e+000
      outer loop
         vertex 0.000000e+000 6.034369e+001 5.334926e+001
         vertex 0.000000e+000 6.664120e+001 0.000000e+000
         vertex 0.000000e+000 6.034369e+001 0.000000e+000
      endloop
   endfacet
   facet normal -1.000000e+000 0.000000e+000 0.000000e+000
      outer loop
         vertex 0.000000e+000 6.034369e+001 1.164890e+002
         vertex 0.000000e+000 6.664120e+001 1.164890e+002
         vertex 0.000000e+000 6.034369e+001 5.824451e+001
      endloop
   endfacet
   facet normal -1.000000e+000 0.000000e+000 0.000000e+000
      outer loop
         vertex 0.000000e+000 6.034369e+001 5.824451e+001
         vertex 0.000000e+000 6.664120e+001 1.164890e+002
         vertex 0.000000e+000 6.034369e+001 5.334926e+001
      endloop
   endfacet
   facet normal -1.000000e+000 0.000000e+000 0.000000e+000
      outer loop
         vertex 0.000000e+000 6.034369e+001 5.824451e+001
         vertex 0.000000e+000 6.034369e+001 5.334926e+001
         vertex 0.000000e+000 0.000000e+000 5.824451e+001
      endloop
   endfacet
   facet normal -1.000000e+000 0.000000e+000 0.000000e+000
      outer loop
         vertex 0.000000e+000 0.000000e+000 5.824451e+001
         vertex 0.000000e+000 6.034369e+001 5.334926e+001
         vertex 0.000000e+000 5.355220e+000 5.334926e+001
      endloop
   endfacet
   facet normal -1.000000e+000 0.000000e+000 0.000000e+000
      outer loop
         vertex 0.000000e+000 0.000000e+000 5.824451e+001
         vertex 0.000000e+000 5.355220e+000 5.334926e+001
         vertex 0.000000e+000 0.000000e+000 0.000000e+000
      endloop
   endfacet
   facet normal -1.000000e+000 0.000000e+000 0.000000e+000
      outer loop
         vertex 0.000000e+000 0.000000e+000 0.000000e+000
         vertex 0.000000e+000 5.355220e+000 5.334926e+001
         vertex 0.000000e+000 5.355220e+000 0.000000e+000
      endloop
   endfacet
   facet normal -1.000000e+000 0.000000e+000 0.000000e+000
      outer loop
         vertex 7.091073e+001 6.664120e+001 0.000000e+000
         vertex 7.091073e+001 6.034369e+001 0.000000e+000
         vertex 7.091073e+001 6.664120e+001 4.991182e+001
      endloop
   endfacet
   facet normal -1.000000e+000 0.000000e+000 0.000000e+000
      outer loop
         vertex 7.091073e+001 6.664120e+001 4.991182e+001
         vertex 7.091073e+001 6.034369e+001 0.000000e+000
         vertex 7.091073e+001 6.034369e+001 4.991182e+001
      endloop
   endfacet
   facet normal 0.000000e+000 0.000000e+000 -1.000000e+000
      outer loop
         vertex 7.091073e+001 6.664120e+001 4.991182e+001
         vertex 7.091073e+001 6.034369e+001 4.991182e+001
         vertex 9.513437e+000 6.664120e+001 4.991182e+001
      endloop
   endfacet
   facet normal 0.000000e+000 0.000000e+000 -1.000000e+000
      outer loop
         vertex 9.513437e+000 6.664120e+001 4.991182e+001
         vertex 7.091073e+001 6.034369e+001 4.991182e+001
         vertex 9.513437e+000 6.034369e+001 4.991182e+001
      endloop
   endfacet
   facet normal 1.000000e+000 0.000000e+000 0.000000e+000
      outer loop
         vertex 9.513437e+000 6.664120e+001 4.991182e+001
         vertex 9.513437e+000 6.034369e+001 4.991182e+001
         vertex 9.513437e+000 6.664120e+001 0.000000e+000
      endloop
   endfacet
   facet normal 1.000000e+000 0.000000e+000 0.000000e+000
      outer loop
         vertex 9.513437e+000 6.664120e+001 0.000000e+000
         vertex 9.513437e+000 6.034369e+001 4.991182e+001
         vertex 9.513437e+000 6.034369e+001 0.000000e+000
      endloop
   endfacet
   facet normal 1.000000e+000 0.000000e+000 0.000000e+000
      outer loop
         vertex 9.513437e+000 0.000000e+000 0.000000e+000
         vertex 9.513437e+000 5.355220e+000 0.000000e+000
         vertex 9.513437e+000 0.000000e+000 4.991182e+001
      endloop
   endfacet
   facet normal 1.000000e+000 0.000000e+000 0.000000e+000
      outer loop
         vertex 9.513437e+000 0.000000e+000 4.991182e+001
         vertex 9.513437e+000 5.355220e+000 0.000000e+000
         vertex 9.513437e+000 5.355220e+000 4.991182e+001
      endloop
   endfacet
   facet normal 0.000000e+000 0.000000e+000 -1.000000e+000
      outer loop
         vertex 9.513437e+000 0.000000e+000 4.991182e+001
         vertex 9.513437e+000 5.355220e+000 4.991182e+001
         vertex 7.091073e+001 0.000000e+000 4.991182e+001
      endloop
   endfacet
   facet normal 0.000000e+000 0.000000e+000 -1.000000e+000
      outer loop
         vertex 7.091073e+001 0.000000e+000 4.991182e+001
         vertex 9.513437e+000 5.355220e+000 4.991182e+001
         vertex 7.091073e+001 5.355220e+000 4.991182e+001
      endloop
   endfacet
   facet normal -1.000000e+000 0.000000e+000 0.000000e+000
      outer loop
         vertex 7.091073e+001 0.000000e+000 4.991182e+001
         vertex 7.091073e+001 5.355220e+000 4.991182e+001
         vertex 7.091073e+001 0.000000e+000 0.000000e+000
      endloop
   endfacet
   facet normal -1.000000e+000 0.000000e+000 0.000000e+000
      outer loop
         vertex 7.091073e+001 0.000000e+000 0.000000e+000
         vertex 7.091073e+001 5.355220e+000 4.991182e+001
         vertex 7.091073e+001 5.355220e+000 0.000000e+000
      endloop
   endfacet
   facet normal 1.000000e+000 0.000000e+000 0.000000e+000
      outer loop
         vertex 9.513437e+000 6.664120e+001 1.161353e+002
         vertex 9.513437e+000 6.034369e+001 1.161353e+002
         vertex 9.513437e+000 6.664120e+001 1.073103e+002
      endloop
   endfacet
   facet normal 1.000000e+000 0.000000e+000 0.000000e+000
      outer loop
         vertex 9.513437e+000 6.664120e+001 1.073103e+002
         vertex 9.513437e+000 6.034369e+001 1.161353e+002
         vertex 9.513437e+000 6.034369e+001 1.073103e+002
      endloop
   endfacet
   facet normal 0.000000e+000 0.000000e+000 -1.000000e+000
      outer loop
         vertex 7.091073e+001 6.664120e+001 1.161353e+002
         vertex 7.091073e+001 6.034369e+001 1.161353e+002
         vertex 9.513437e+000 6.664120e+001 1.161353e+002
      endloop
   endfacet
   facet normal 0.000000e+000 0.000000e+000 -1.000000e+000
      outer loop
         vertex 9.513437e+000 6.664120e+001 1.161353e+002
         vertex 7.091073e+001 6.034369e+001 1.161353e+002
         vertex 9.513437e+000 6.034369e+001 1.161353e+002
      endloop
   endfacet
   facet normal -1.000000e+000 0.000000e+000 0.000000e+000
      outer loop
         vertex 7.091073e+001 6.664120e+001 1.073103e+002
         vertex 7.091073e+001 6.034369e+001 1.073103e+002
         vertex 7.091073e+001 6.664120e+001 1.161353e+002
      endloop
   endfacet
   facet normal -1.000000e+000 0.000000e+000 0.000000e+000
      outer loop
         vertex 7.091073e+001 6.664120e+001 1.161353e+002
         vertex 7.091073e+001 6.034369e+001 1.073103e+002
         vertex 7.091073e+001 6.034369e+001 1.161353e+002
      endloop
   endfacet
   facet normal 0.000000e+000 0.000000e+000 1.000000e+000
      outer loop
         vertex 9.513437e+000 6.664120e+001 1.073103e+002
         vertex 9.513437e+000 6.034369e+001 1.073103e+002
         vertex 7.091073e+001 6.664120e+001 1.073103e+002
      endloop
   endfacet
   facet normal 0.000000e+000 0.000000e+000 1.000000e+000
      outer loop
         vertex 7.091073e+001 6.664120e+001 1.073103e+002
         vertex 9.513437e+000 6.034369e+001 1.073103e+002
         vertex 7.091073e+001 6.034369e+001 1.073103e+002
      endloop
   endfacet
   facet normal 1.000000e+000 0.000000e+000 0.000000e+000
      outer loop
         vertex 9.513437e+000 6.664120e+001 9.801932e+001
         vertex 9.513437e+000 6.034369e+001 9.801932e+001
         vertex 9.513437e+000 6.664120e+001 8.782108e+001
      endloop
   endfacet
   facet normal 1.000000e+000 0.000000e+000 0.000000e+000
      outer loop
         vertex 9.513437e+000 6.664120e+001 8.782108e+001
         vertex 9.513437e+000 6.034369e+001 9.801932e+001
         vertex 9.513437e+000 6.034369e+001 8.782108e+001
      endloop
   endfacet
   facet normal 0.000000e+000 0.000000e+000 -1.000000e+000
      outer loop
         vertex 7.091073e+001 6.664120e+001 9.801932e+001
         vertex 7.091073e+001 6.034369e+001 9.801932e+001
         vertex 9.513437e+000 6.664120e+001 9.801932e+001
      endloop
   endfacet
   facet normal 0.000000e+000 0.000000e+000 -1.000000e+000
      outer loop
         vertex 9.513437e+000 6.664120e+001 9.801932e+001
         vertex 7.091073e+001 6.034369e+001 9.801932e+001
         vertex 9.513437e+000 6.034369e+001 9.801932e+001
      endloop
   endfacet
   facet normal -1.000000e+000 0.000000e+000 0.000000e+000
      outer loop
         vertex 7.091073e+001 6.664120e+001 8.782108e+001
         vertex 7.091073e+001 6.034369e+001 8.782108e+001
         vertex 7.091073e+001 6.664120e+001 9.801932e+001
      endloop
   endfacet
   facet normal -1.000000e+000 0.000000e+000 0.000000e+000
      outer loop
         vertex 7.091073e+001 6.664120e+001 9.801932e+001
         vertex 7.091073e+001 6.034369e+001 8.782108e+001
         vertex 7.091073e+001 6.034369e+001 9.801932e+001
      endloop
   endfacet
   facet normal 0.000000e+000 0.000000e+000 1.000000e+000
      outer loop
         vertex 9.513437e+000 6.664120e+001 8.782108e+001
         vertex 9.513437e+000 6.034369e+001 8.782108e+001
         vertex 7.091073e+001 6.664120e+001 8.782108e+001
      endloop
   endfacet
   facet normal 0.000000e+000 0.000000e+000 1.000000e+000
      outer loop
         vertex 7.091073e+001 6.664120e+001 8.782108e+001
         vertex 9.513437e+000 6.034369e+001 8.782108e+001
         vertex 7.091073e+001 6.034369e+001 8.782108e+001
      endloop
   endfacet
   facet normal 1.000000e+000 0.000000e+000 0.000000e+000
      outer loop
         vertex 9.513437e+000 6.664120e+001 7.970477e+001
         vertex 9.513437e+000 6.034369e+001 7.970477e+001
         vertex 9.513437e+000 6.664120e+001 6.968855e+001
      endloop
   endfacet
   facet normal 1.000000e+000 0.000000e+000 0.000000e+000
      outer loop
         vertex 9.513437e+000 6.664120e+001 6.968855e+001
         vertex 9.513437e+000 6.034369e+001 7.970477e+001
         vertex 9.513437e+000 6.034369e+001 6.968855e+001
      endloop
   endfacet
   facet normal 0.000000e+000 0.000000e+000 -1.000000e+000
      outer loop
         vertex 7.091073e+001 6.664120e+001 7.970477e+001
         vertex 7.091073e+001 6.034369e+001 7.970477e+001
         vertex 9.513437e+000 6.664120e+001 7.970477e+001
      endloop
   endfacet
   facet normal 0.000000e+000 0.000000e+000 -1.000000e+000
      outer loop
         vertex 9.513437e+000 6.664120e+001 7.970477e+001
         vertex 7.091073e+001 6.034369e+001 7.970477e+001
         vertex 9.513437e+000 6.034369e+001 7.970477e+001
      endloop
   endfacet
   facet normal -1.000000e+000 0.000000e+000 0.000000e+000
      outer loop
         vertex 7.091073e+001 6.664120e+001 6.968855e+001
         vertex 7.091073e+001 6.034369e+001 6.968855e+001
         vertex 7.091073e+001 6.664120e+001 7.970477e+001
      endloop
   endfacet
   facet normal -1.000000e+000 0.000000e+000 0.000000e+000
      outer loop
         vertex 7.091073e+001 6.664120e+001 7.970477e+001
         vertex 7.091073e+001 6.034369e+001 6.968855e+001
         vertex 7.091073e+001 6.034369e+001 7.970477e+001
      endloop
   endfacet
   facet normal 0.000000e+000 0.000000e+000 1.000000e+000
      outer loop
         vertex 9.513437e+000 6.664120e+001 6.968855e+001
         vertex 9.513437e+000 6.034369e+001 6.968855e+001
         vertex 7.091073e+001 6.664120e+001 6.968855e+001
      endloop
   endfacet
   facet normal 0.000000e+000 0.000000e+000 1.000000e+000
      outer loop
         vertex 7.091073e+001 6.664120e+001 6.968855e+001
         vertex 9.513437e+000 6.034369e+001 6.968855e+001
         vertex 7.091073e+001 6.034369e+001 6.968855e+001
      endloop
   endfacet
endsolid