solid test
   facet normal -1.000000e+000 0.000000e+000 0.000000e+000
      outer loop
         vertex 0.000000e+000 0.000000e+000 1.549400e+001
         vertex 0.000000e+000 6.486791e+001 1.549400e+001
         vertex 0.000000e+000 0.000000e+000 0.000000e+000
      endloop
   endfacet
   facet normal -1.000000e+000 0.000000e+000 0.000000e+000
      outer loop
         vertex 0.000000e+000 0.000000e+000 0.000000e+000
         vertex 0.000000e+000 6.486791e+001 1.549400e+001
         vertex 0.000000e+000 6.486791e+001 0.000000e+000
      endloop
   endfacet
   facet normal 0.000000e+000 -1.000000e+000 0.000000e+000
      outer loop
         vertex 1.292463e+002 0.000000e+000 1.549400e+001
         vertex 0.000000e+000 0.000000e+000 1.549400e+001
         vertex 1.292463e+002 0.000000e+000 0.000000e+000
      endloop
   endfacet
   facet normal 0.000000e+000 -1.000000e+000 0.000000e+000
      outer loop
         vertex 1.292463e+002 0.000000e+000 0.000000e+000
         vertex 0.000000e+000 0.000000e+000 1.549400e+001
         vertex 0.000000e+000 0.000000e+000 0.000000e+000
      endloop
   endfacet
   facet normal 1.000000e+000 0.000000e+000 0.000000e+000
      outer loop
         vertex 1.292463e+002 6.486791e+001 1.549400e+001
         vertex 1.292463e+002 0.000000e+000 1.549400e+001
         vertex 1.292463e+002 6.486791e+001 0.000000e+000
      endloop
   endfacet
   facet normal 1.000000e+000 0.000000e+000 0.000000e+000
      outer loop
         vertex 1.292463e+002 6.486791e+001 0.000000e+000
         vertex 1.292463e+002 0.000000e+000 1.549400e+001
         vertex 1.292463e+002 0.000000e+000 0.000000e+000
      endloop
   endfacet
   facet normal 0.000000e+000 1.000000e+000 0.000000e+000
      outer loop
         vertex 0.000000e+000 6.486791e+001 1.549400e+001
         vertex 1.292463e+002 6.486791e+001 1.549400e+001
         vertex 0.000000e+000 6.486791e+001 0.000000e+000
      endloop
   endfacet
   facet normal 0.000000e+000 1.000000e+000 0.000000e+000
      outer loop
         vertex 0.000000e+000 6.486791e+001 0.000000e+000
         vertex 1.292463e+002 6.486791e+001 1.549400e+001
         vertex 1.292463e+002 6.486791e+001 0.000000e+000
      endloop
   endfacet
   facet normal 0.000000e+000 0.000000e+000 1.000000e+000
      outer loop
         vertex 1.292463e+002 0.000000e+000 1.549400e+001
         vertex 1.292463e+002 6.486791e+001 1.549400e+001
         vertex 0.000000e+000 0.000000e+000 1.549400e+001
      endloop
   endfacet
   facet normal 0.000000e+000 0.000000e+000 1.000000e+000
      outer loop
         vertex 0.000000e+000 0.000000e+000 1.549400e+001
         vertex 1.292463e+002 6.486791e+001 1.549400e+001
         vertex 0.000000e+000 6.486791e+001 1.549400e+001
      endloop
   endfacet
   facet normal 0.000000e+000 0.000000e+000 -1.000000e+000
      outer loop
         vertex 1.292463e+002 6.486791e+001 0.000000e+000
         vertex 1.292463e+002 0.000000e+000 0.000000e+000
         vertex 0.000000e+000 6.486791e+001 0.000000e+000
      endloop
   endfacet
   facet normal 0.000000e+000 0.000000e+000 -1.000000e+000
      outer loop
         vertex 0.000000e+000 6.486791e+001 0.000000e+000
         vertex 1.292463e+002 0.000000e+000 0.000000e+000
         vertex 0.000000e+000 0.000000e+000 0.000000e+000
      endloop
   endfacet
endsolid