solid test
   facet normal -1.000000e+000 0.000000e+000 0.000000e+000
      outer loop
         vertex 5.215406e-005 4.397322e+001 9.245600e+001
         vertex 5.215406e-005 6.365225e+001 9.245600e+001
         vertex 5.215406e-005 4.397322e+001 9.906000e+000
      endloop
   endfacet
   facet normal -1.000000e+000 0.000000e+000 0.000000e+000
      outer loop
         vertex 5.215406e-005 4.397322e+001 9.906000e+000
         vertex 5.215406e-005 6.365225e+001 9.245600e+001
         vertex 5.215406e-005 6.365225e+001 0.000000e+000
      endloop
   endfacet
   facet normal -1.000000e+000 0.000000e+000 0.000000e+000
      outer loop
         vertex 5.215406e-005 4.397322e+001 9.906000e+000
         vertex 5.215406e-005 6.365225e+001 0.000000e+000
         vertex 5.215406e-005 8.251518e-003 9.906000e+000
      endloop
   endfacet
   facet normal -1.000000e+000 0.000000e+000 0.000000e+000
      outer loop
         vertex 5.215406e-005 8.251518e-003 9.906000e+000
         vertex 5.215406e-005 6.365225e+001 0.000000e+000
         vertex 5.215406e-005 8.251518e-003 0.000000e+000
      endloop
   endfacet
   facet normal 0.000000e+000 -1.000000e+000 0.000000e+000
      outer loop
         vertex 8.396116e+001 8.251518e-003 9.906000e+000
         vertex 5.215406e-005 8.251518e-003 9.906000e+000
         vertex 8.396116e+001 8.251518e-003 0.000000e+000
      endloop
   endfacet
   facet normal 0.000000e+000 -1.000000e+000 0.000000e+000
      outer loop
         vertex 8.396116e+001 8.251518e-003 0.000000e+000
         vertex 5.215406e-005 8.251518e-003 9.906000e+000
         vertex 5.215406e-005 8.251518e-003 0.000000e+000
      endloop
   endfacet
   facet normal 1.000000e+000 0.000000e+000 0.000000e+000
      outer loop
         vertex 8.396116e+001 8.251518e-003 9.906000e+000
         vertex 8.396116e+001 8.251518e-003 0.000000e+000
         vertex 8.396116e+001 4.397322e+001 9.906000e+000
      endloop
   endfacet
   facet normal 1.000000e+000 0.000000e+000 0.000000e+000
      outer loop
         vertex 8.396116e+001 4.397322e+001 9.906000e+000
         vertex 8.396116e+001 8.251518e-003 0.000000e+000
         vertex 8.396116e+001 6.365225e+001 0.000000e+000
      endloop
   endfacet
   facet normal 1.000000e+000 0.000000e+000 0.000000e+000
      outer loop
         vertex 8.396116e+001 4.397322e+001 9.906000e+000
         vertex 8.396116e+001 6.365225e+001 0.000000e+000
         vertex 8.396116e+001 4.397322e+001 9.245600e+001
      endloop
   endfacet
   facet normal 1.000000e+000 0.000000e+000 0.000000e+000
      outer loop
         vertex 8.396116e+001 4.397322e+001 9.245600e+001
         vertex 8.396116e+001 6.365225e+001 0.000000e+000
         vertex 8.396116e+001 6.365225e+001 9.245600e+001
      endloop
   endfacet
   facet normal 0.000000e+000 1.000000e+000 0.000000e+000
      outer loop
         vertex 5.215406e-005 6.365225e+001 9.245600e+001
         vertex 8.396116e+001 6.365225e+001 9.245600e+001
         vertex 5.215406e-005 6.365225e+001 0.000000e+000
      endloop
   endfacet
   facet normal 0.000000e+000 1.000000e+000 0.000000e+000
      outer loop
         vertex 5.215406e-005 6.365225e+001 0.000000e+000
         vertex 8.396116e+001 6.365225e+001 9.245600e+001
         vertex 8.396116e+001 6.365225e+001 0.000000e+000
      endloop
   endfacet
   facet normal 0.000000e+000 0.000000e+000 1.000000e+000
      outer loop
         vertex 5.215406e-005 8.251518e-003 9.906000e+000
         vertex 8.396116e+001 8.251518e-003 9.906000e+000
         vertex 5.215406e-005 4.397322e+001 9.906000e+000
      endloop
   endfacet
   facet normal 0.000000e+000 0.000000e+000 1.000000e+000
      outer loop
         vertex 5.215406e-005 4.397322e+001 9.906000e+000
         vertex 8.396116e+001 8.251518e-003 9.906000e+000
         vertex 8.396116e+001 4.397322e+001 9.906000e+000
      endloop
   endfacet
   facet normal 0.000000e+000 0.000000e+000 -1.000000e+000
      outer loop
         vertex 8.396116e+001 6.365225e+001 0.000000e+000
         vertex 8.396116e+001 8.251518e-003 0.000000e+000
         vertex 5.215406e-005 6.365225e+001 0.000000e+000
      endloop
   endfacet
   facet normal 0.000000e+000 0.000000e+000 -1.000000e+000
      outer loop
         vertex 5.215406e-005 6.365225e+001 0.000000e+000
         vertex 8.396116e+001 8.251518e-003 0.000000e+000
         vertex 5.215406e-005 8.251518e-003 0.000000e+000
      endloop
   endfacet
   facet normal 0.000000e+000 -1.000000e+000 0.000000e+000
      outer loop
         vertex 8.396116e+001 4.397322e+001 9.245600e+001
         vertex 5.215406e-005 4.397322e+001 9.245600e+001
         vertex 8.396116e+001 4.397322e+001 9.906000e+000
      endloop
   endfacet
   facet normal 0.000000e+000 -1.000000e+000 0.000000e+000
      outer loop
         vertex 8.396116e+001 4.397322e+001 9.906000e+000
         vertex 5.215406e-005 4.397322e+001 9.245600e+001
         vertex 5.215406e-005 4.397322e+001 9.906000e+000
      endloop
   endfacet
   facet normal 0.000000e+000 0.000000e+000 1.000000e+000
      outer loop
         vertex 5.215406e-005 6.365225e+001 9.245600e+001
         vertex 5.215406e-005 4.397322e+001 9.245600e+001
         vertex 8.396116e+001 6.365225e+001 9.245600e+001
      endloop
   endfacet
   facet normal 0.000000e+000 0.000000e+000 1.000000e+000
      outer loop
         vertex 8.396116e+001 6.365225e+001 9.245600e+001
         vertex 5.215406e-005 4.397322e+001 9.245600e+001
         vertex 8.396116e+001 4.397322e+001 9.245600e+001
      endloop
   endfacet
endsolid