solid test
   facet normal 0.000000e+000 0.000000e+000 -1.000000e+000
      outer loop
         vertex 5.071874e+000 0.000000e+000 0.000000e+000
         vertex 0.000000e+000 0.000000e+000 0.000000e+000
         vertex 5.071874e+000 4.877074e+000 0.000000e+000
      endloop
   endfacet
   facet normal 0.000000e+000 0.000000e+000 -1.000000e+000
      outer loop
         vertex 5.071874e+000 4.877074e+000 0.000000e+000
         vertex 0.000000e+000 0.000000e+000 0.000000e+000
         vertex 0.000000e+000 4.877074e+000 0.000000e+000
      endloop
   endfacet
   facet normal 0.000000e+000 0.000000e+000 -1.000000e+000
      outer loop
         vertex 5.071874e+000 6.078341e+001 3.270708e+000
         vertex 0.000000e+000 6.078341e+001 3.270708e+000
         vertex 5.071874e+000 6.788585e+001 3.270708e+000
      endloop
   endfacet
   facet normal 0.000000e+000 0.000000e+000 -1.000000e+000
      outer loop
         vertex 5.071874e+000 6.788585e+001 3.270708e+000
         vertex 0.000000e+000 6.078341e+001 3.270708e+000
         vertex 0.000000e+000 6.788585e+001 3.270708e+000
      endloop
   endfacet
   facet normal 0.000000e+000 0.000000e+000 1.000000e+000
      outer loop
         vertex 7.061200e+001 6.078341e+001 1.252877e+002
         vertex 7.061200e+001 6.788585e+001 1.252877e+002
         vertex 0.000000e+000 6.078341e+001 1.252877e+002
      endloop
   endfacet
   facet normal 0.000000e+000 0.000000e+000 1.000000e+000
      outer loop
         vertex 0.000000e+000 6.078341e+001 1.252877e+002
         vertex 7.061200e+001 6.788585e+001 1.252877e+002
         vertex 0.000000e+000 6.788585e+001 1.252877e+002
      endloop
   endfacet
   facet normal 0.000000e+000 -1.000000e+000 0.000000e+000
      outer loop
         vertex 7.061200e+001 6.078341e+001 5.949276e+001
         vertex 7.061200e+001 6.078341e+001 1.252877e+002
         vertex 0.000000e+000 6.078341e+001 5.949276e+001
      endloop
   endfacet
   facet normal 0.000000e+000 -1.000000e+000 0.000000e+000
      outer loop
         vertex 0.000000e+000 6.078341e+001 5.949276e+001
         vertex 7.061200e+001 6.078341e+001 1.252877e+002
         vertex 0.000000e+000 6.078341e+001 1.252877e+002
      endloop
   endfacet
   facet normal 0.000000e+000 0.000000e+000 1.000000e+000
      outer loop
         vertex 7.061200e+001 0.000000e+000 5.949276e+001
         vertex 7.061200e+001 6.078341e+001 5.949276e+001
         vertex 0.000000e+000 0.000000e+000 5.949276e+001
      endloop
   endfacet
   facet normal 0.000000e+000 0.000000e+000 1.000000e+000
      outer loop
         vertex 0.000000e+000 0.000000e+000 5.949276e+001
         vertex 7.061200e+001 6.078341e+001 5.949276e+001
         vertex 0.000000e+000 6.078341e+001 5.949276e+001
      endloop
   endfacet
   facet normal 0.000000e+000 -1.000000e+000 0.000000e+000
      outer loop
         vertex 6.364194e+001 0.000000e+000 0.000000e+000
         vertex 7.061200e+001 0.000000e+000 0.000000e+000
         vertex 6.364194e+001 0.000000e+000 5.342068e+001
      endloop
   endfacet
   facet normal 0.000000e+000 -1.000000e+000 0.000000e+000
      outer loop
         vertex 6.364194e+001 0.000000e+000 5.342068e+001
         vertex 7.061200e+001 0.000000e+000 0.000000e+000
         vertex 7.061200e+001 0.000000e+000 5.949276e+001
      endloop
   endfacet
   facet normal 0.000000e+000 -1.000000e+000 0.000000e+000
      outer loop
         vertex 6.364194e+001 0.000000e+000 5.342068e+001
         vertex 7.061200e+001 0.000000e+000 5.949276e+001
         vertex 5.071874e+000 0.000000e+000 5.342068e+001
      endloop
   endfacet
   facet normal 0.000000e+000 -1.000000e+000 0.000000e+000
      outer loop
         vertex 5.071874e+000 0.000000e+000 5.342068e+001
         vertex 7.061200e+001 0.000000e+000 5.949276e+001
         vertex 0.000000e+000 0.000000e+000 5.949276e+001
      endloop
   endfacet
   facet normal 0.000000e+000 -1.000000e+000 0.000000e+000
      outer loop
         vertex 5.071874e+000 0.000000e+000 5.342068e+001
         vertex 0.000000e+000 0.000000e+000 5.949276e+001
         vertex 5.071874e+000 0.000000e+000 0.000000e+000
      endloop
   endfacet
   facet normal 0.000000e+000 -1.000000e+000 0.000000e+000
      outer loop
         vertex 5.071874e+000 0.000000e+000 0.000000e+000
         vertex 0.000000e+000 0.000000e+000 5.949276e+001
         vertex 0.000000e+000 0.000000e+000 0.000000e+000
      endloop
   endfacet
   facet normal 0.000000e+000 0.000000e+000 -1.000000e+000
      outer loop
         vertex 6.364194e+001 4.877074e+000 0.000000e+000
         vertex 7.061200e+001 4.877074e+000 0.000000e+000
         vertex 6.364194e+001 0.000000e+000 0.000000e+000
      endloop
   endfacet
   facet normal 0.000000e+000 0.000000e+000 -1.000000e+000
      outer loop
         vertex 6.364194e+001 0.000000e+000 0.000000e+000
         vertex 7.061200e+001 4.877074e+000 0.000000e+000
         vertex 7.061200e+001 0.000000e+000 0.000000e+000
      endloop
   endfacet
   facet normal 0.000000e+000 1.000000e+000 0.000000e+000
      outer loop
         vertex 5.071874e+000 4.877074e+000 0.000000e+000
         vertex 0.000000e+000 4.877074e+000 0.000000e+000
         vertex 5.071874e+000 4.877074e+000 5.342068e+001
      endloop
   endfacet
   facet normal 0.000000e+000 1.000000e+000 0.000000e+000
      outer loop
         vertex 5.071874e+000 4.877074e+000 5.342068e+001
         vertex 0.000000e+000 4.877074e+000 0.000000e+000
         vertex 0.000000e+000 4.877074e+000 5.584530e+001
      endloop
   endfacet
   facet normal 0.000000e+000 1.000000e+000 0.000000e+000
      outer loop
         vertex 5.071874e+000 4.877074e+000 5.342068e+001
         vertex 0.000000e+000 4.877074e+000 5.584530e+001
         vertex 6.364194e+001 4.877074e+000 5.342068e+001
      endloop
   endfacet
   facet normal 0.000000e+000 1.000000e+000 0.000000e+000
      outer loop
         vertex 6.364194e+001 4.877074e+000 5.342068e+001
         vertex 0.000000e+000 4.877074e+000 5.584530e+001
         vertex 7.061200e+001 4.877074e+000 5.584530e+001
      endloop
   endfacet
   facet normal 0.000000e+000 1.000000e+000 0.000000e+000
      outer loop
         vertex 6.364194e+001 4.877074e+000 5.342068e+001
         vertex 7.061200e+001 4.877074e+000 5.584530e+001
         vertex 6.364194e+001 4.877074e+000 0.000000e+000
      endloop
   endfacet
   facet normal 0.000000e+000 1.000000e+000 0.000000e+000
      outer loop
         vertex 6.364194e+001 4.877074e+000 0.000000e+000
         vertex 7.061200e+001 4.877074e+000 5.584530e+001
         vertex 7.061200e+001 4.877074e+000 0.000000e+000
      endloop
   endfacet
   facet normal 0.000000e+000 0.000000e+000 -1.000000e+000
      outer loop
         vertex 7.061200e+001 6.078341e+001 5.584530e+001
         vertex 7.061200e+001 4.877074e+000 5.584530e+001
         vertex 0.000000e+000 6.078341e+001 5.584530e+001
      endloop
   endfacet
   facet normal 0.000000e+000 0.000000e+000 -1.000000e+000
      outer loop
         vertex 0.000000e+000 6.078341e+001 5.584530e+001
         vertex 7.061200e+001 4.877074e+000 5.584530e+001
         vertex 0.000000e+000 4.877074e+000 5.584530e+001
      endloop
   endfacet
   facet normal 0.000000e+000 -1.000000e+000 0.000000e+000
      outer loop
         vertex 6.364194e+001 6.078341e+001 3.270708e+000
         vertex 7.061200e+001 6.078341e+001 3.270708e+000
         vertex 6.364194e+001 6.078341e+001 5.342068e+001
      endloop
   endfacet
   facet normal 0.000000e+000 -1.000000e+000 0.000000e+000
      outer loop
         vertex 6.364194e+001 6.078341e+001 5.342068e+001
         vertex 7.061200e+001 6.078341e+001 3.270708e+000
         vertex 7.061200e+001 6.078341e+001 5.584530e+001
      endloop
   endfacet
   facet normal 0.000000e+000 -1.000000e+000 0.000000e+000
      outer loop
         vertex 6.364194e+001 6.078341e+001 5.342068e+001
         vertex 7.061200e+001 6.078341e+001 5.584530e+001
         vertex 5.071874e+000 6.078341e+001 5.342068e+001
      endloop
   endfacet
   facet normal 0.000000e+000 -1.000000e+000 0.000000e+000
      outer loop
         vertex 5.071874e+000 6.078341e+001 5.342068e+001
         vertex 7.061200e+001 6.078341e+001 5.584530e+001
         vertex 0.000000e+000 6.078341e+001 5.584530e+001
      endloop
   endfacet
   facet normal 0.000000e+000 -1.000000e+000 0.000000e+000
      outer loop
         vertex 5.071874e+000 6.078341e+001 5.342068e+001
         vertex 0.000000e+000 6.078341e+001 5.584530e+001
         vertex 5.071874e+000 6.078341e+001 3.270708e+000
      endloop
   endfacet
   facet normal 0.000000e+000 -1.000000e+000 0.000000e+000
      outer loop
         vertex 5.071874e+000 6.078341e+001 3.270708e+000
         vertex 0.000000e+000 6.078341e+001 5.584530e+001
         vertex 0.000000e+000 6.078341e+001 3.270708e+000
      endloop
   endfacet
   facet normal 0.000000e+000 0.000000e+000 -1.000000e+000
      outer loop
         vertex 6.364194e+001 6.788585e+001 3.270708e+000
         vertex 7.061200e+001 6.788585e+001 3.270708e+000
         vertex 6.364194e+001 6.078341e+001 3.270708e+000
      endloop
   endfacet
   facet normal 0.000000e+000 0.000000e+000 -1.000000e+000
      outer loop
         vertex 6.364194e+001 6.078341e+001 3.270708e+000
         vertex 7.061200e+001 6.788585e+001 3.270708e+000
         vertex 7.061200e+001 6.078341e+001 3.270708e+000
      endloop
   endfacet
   facet normal 0.000000e+000 1.000000e+000 0.000000e+000
      outer loop
         vertex 7.061200e+001 6.788585e+001 3.270708e+000
         vertex 6.364194e+001 6.788585e+001 3.270708e+000
         vertex 6.364194e+001 6.788585e+001 5.342068e+001
      endloop
   endfacet
   facet normal 0.000000e+000 1.000000e+000 0.000000e+000
      outer loop
         vertex 5.071874e+000 6.788585e+001 3.270708e+000
         vertex 2.775558e-014 6.788585e+001 3.270708e+000
         vertex 5.071874e+000 6.788585e+001 5.342068e+001
      endloop
   endfacet
   facet normal 0.000000e+000 1.000000e+000 0.000000e+000
      outer loop
         vertex 5.071874e+000 6.788585e+001 5.342068e+001
         vertex 2.775558e-014 6.788585e+001 3.270708e+000
         vertex 2.775558e-014 6.788585e+001 1.252877e+002
      endloop
   endfacet
   facet normal 0.000000e+000 1.000000e+000 0.000000e+000
      outer loop
         vertex 5.071874e+000 6.788585e+001 5.342068e+001
         vertex 2.775558e-014 6.788585e+001 1.252877e+002
         vertex 6.364194e+001 6.788585e+001 5.342068e+001
      endloop
   endfacet
   facet normal 0.000000e+000 1.000000e+000 0.000000e+000
      outer loop
         vertex 6.364194e+001 6.788585e+001 5.342068e+001
         vertex 2.775558e-014 6.788585e+001 1.252877e+002
         vertex 7.061200e+001 6.788585e+001 1.252877e+002
      endloop
   endfacet
   facet normal 0.000000e+000 1.000000e+000 0.000000e+000
      outer loop
         vertex 6.364194e+001 6.788585e+001 5.342068e+001
         vertex 7.061200e+001 6.788585e+001 1.252877e+002
         vertex 7.061200e+001 6.788585e+001 3.270708e+000
      endloop
   endfacet
   facet normal 1.000000e+000 0.000000e+000 0.000000e+000
      outer loop
         vertex 7.061200e+001 6.788585e+001 3.270708e+000
         vertex 7.061200e+001 6.788585e+001 1.252877e+002
         vertex 7.061200e+001 6.078341e+001 5.949276e+001
      endloop
   endfacet
   facet normal 1.000000e+000 0.000000e+000 0.000000e+000
      outer loop
         vertex 7.061200e+001 6.078341e+001 5.949276e+001
         vertex 7.061200e+001 6.788585e+001 1.252877e+002
         vertex 7.061200e+001 6.078341e+001 1.252877e+002
      endloop
   endfacet
   facet normal 1.000000e+000 0.000000e+000 0.000000e+000
      outer loop
         vertex 7.061200e+001 6.078341e+001 3.270708e+000
         vertex 7.061200e+001 6.788585e+001 3.270708e+000
         vertex 7.061200e+001 6.078341e+001 5.584530e+001
      endloop
   endfacet
   facet normal 1.000000e+000 0.000000e+000 0.000000e+000
      outer loop
         vertex 7.061200e+001 6.078341e+001 5.584530e+001
         vertex 7.061200e+001 6.788585e+001 3.270708e+000
         vertex 7.061200e+001 6.078341e+001 5.949276e+001
      endloop
   endfacet
   facet normal 1.000000e+000 0.000000e+000 0.000000e+000
      outer loop
         vertex 7.061200e+001 6.078341e+001 5.584530e+001
         vertex 7.061200e+001 6.078341e+001 5.949276e+001
         vertex 7.061200e+001 4.877074e+000 5.584530e+001
      endloop
   endfacet
   facet normal 1.000000e+000 0.000000e+000 0.000000e+000
      outer loop
         vertex 7.061200e+001 4.877074e+000 5.584530e+001
         vertex 7.061200e+001 6.078341e+001 5.949276e+001
         vertex 7.061200e+001 0.000000e+000 5.949276e+001
      endloop
   endfacet
   facet normal 1.000000e+000 0.000000e+000 0.000000e+000
      outer loop
         vertex 7.061200e+001 4.877074e+000 5.584530e+001
         vertex 7.061200e+001 0.000000e+000 5.949276e+001
         vertex 7.061200e+001 4.877074e+000 0.000000e+000
      endloop
   endfacet
   facet normal 1.000000e+000 0.000000e+000 0.000000e+000
      outer loop
         vertex 7.061200e+001 4.877074e+000 0.000000e+000
         vertex 7.061200e+001 0.000000e+000 5.949276e+001
         vertex 7.061200e+001 0.000000e+000 0.000000e+000
      endloop
   endfacet
   facet normal -1.000000e+000 0.000000e+000 0.000000e+000
      outer loop
         vertex 0.000000e+000 6.788585e+001 1.252877e+002
         vertex 0.000000e+000 6.788585e+001 3.270708e+000
         vertex 0.000000e+000 6.078341e+001 5.584530e+001
      endloop
   endfacet
   facet normal -1.000000e+000 0.000000e+000 0.000000e+000
      outer loop
         vertex 0.000000e+000 6.078341e+001 5.584530e+001
         vertex 0.000000e+000 6.788585e+001 3.270708e+000
         vertex 0.000000e+000 6.078341e+001 3.270708e+000
      endloop
   endfacet
   facet normal -1.000000e+000 0.000000e+000 0.000000e+000
      outer loop
         vertex 0.000000e+000 6.078341e+001 1.252877e+002
         vertex 0.000000e+000 6.788585e+001 1.252877e+002
         vertex 0.000000e+000 6.078341e+001 5.949276e+001
      endloop
   endfacet
   facet normal -1.000000e+000 0.000000e+000 0.000000e+000
      outer loop
         vertex 0.000000e+000 6.078341e+001 5.949276e+001
         vertex 0.000000e+000 6.788585e+001 1.252877e+002
         vertex 0.000000e+000 6.078341e+001 5.584530e+001
      endloop
   endfacet
   facet normal -1.000000e+000 0.000000e+000 0.000000e+000
      outer loop
         vertex 0.000000e+000 6.078341e+001 5.949276e+001
         vertex 0.000000e+000 6.078341e+001 5.584530e+001
         vertex 0.000000e+000 0.000000e+000 5.949276e+001
      endloop
   endfacet
   facet normal -1.000000e+000 0.000000e+000 0.000000e+000
      outer loop
         vertex 0.000000e+000 0.000000e+000 5.949276e+001
         vertex 0.000000e+000 6.078341e+001 5.584530e+001
         vertex 0.000000e+000 4.877074e+000 5.584530e+001
      endloop
   endfacet
   facet normal -1.000000e+000 0.000000e+000 0.000000e+000
      outer loop
         vertex 0.000000e+000 0.000000e+000 5.949276e+001
         vertex 0.000000e+000 4.877074e+000 5.584530e+001
         vertex 0.000000e+000 0.000000e+000 0.000000e+000
      endloop
   endfacet
   facet normal -1.000000e+000 0.000000e+000 0.000000e+000
      outer loop
         vertex 0.000000e+000 0.000000e+000 0.000000e+000
         vertex 0.000000e+000 4.877074e+000 5.584530e+001
         vertex 0.000000e+000 4.877074e+000 0.000000e+000
      endloop
   endfacet
   facet normal -1.000000e+000 0.000000e+000 0.000000e+000
      outer loop
         vertex 6.364194e+001 6.788585e+001 3.270708e+000
         vertex 6.364194e+001 6.078341e+001 3.270708e+000
         vertex 6.364194e+001 6.788585e+001 5.342068e+001
      endloop
   endfacet
   facet normal -1.000000e+000 0.000000e+000 0.000000e+000
      outer loop
         vertex 6.364194e+001 6.788585e+001 5.342068e+001
         vertex 6.364194e+001 6.078341e+001 3.270708e+000
         vertex 6.364194e+001 6.078341e+001 5.342068e+001
      endloop
   endfacet
   facet normal 0.000000e+000 0.000000e+000 -1.000000e+000
      outer loop
         vertex 6.364194e+001 6.788585e+001 5.342068e+001
         vertex 6.364194e+001 6.078341e+001 5.342068e+001
         vertex 5.071874e+000 6.788585e+001 5.342068e+001
      endloop
   endfacet
   facet normal 0.000000e+000 0.000000e+000 -1.000000e+000
      outer loop
         vertex 5.071874e+000 6.788585e+001 5.342068e+001
         vertex 6.364194e+001 6.078341e+001 5.342068e+001
         vertex 5.071874e+000 6.078341e+001 5.342068e+001
      endloop
   endfacet
   facet normal 1.000000e+000 0.000000e+000 0.000000e+000
      outer loop
         vertex 5.071874e+000 6.788585e+001 5.342068e+001
         vertex 5.071874e+000 6.078341e+001 5.342068e+001
         vertex 5.071874e+000 6.788585e+001 3.270708e+000
      endloop
   endfacet
   facet normal 1.000000e+000 0.000000e+000 0.000000e+000
      outer loop
         vertex 5.071874e+000 6.788585e+001 3.270708e+000
         vertex 5.071874e+000 6.078341e+001 5.342068e+001
         vertex 5.071874e+000 6.078341e+001 3.270708e+000
      endloop
   endfacet
   facet normal 1.000000e+000 0.000000e+000 0.000000e+000
      outer loop
         vertex 5.071874e+000 0.000000e+000 0.000000e+000
         vertex 5.071874e+000 4.877074e+000 0.000000e+000
         vertex 5.071874e+000 0.000000e+000 5.342068e+001
      endloop
   endfacet
   facet normal 1.000000e+000 0.000000e+000 0.000000e+000
      outer loop
         vertex 5.071874e+000 0.000000e+000 5.342068e+001
         vertex 5.071874e+000 4.877074e+000 0.000000e+000
         vertex 5.071874e+000 4.877074e+000 5.342068e+001
      endloop
   endfacet
   facet normal 0.000000e+000 0.000000e+000 -1.000000e+000
      outer loop
         vertex 5.071874e+000 0.000000e+000 5.342068e+001
         vertex 5.071874e+000 4.877074e+000 5.342068e+001
         vertex 6.364194e+001 0.000000e+000 5.342068e+001
      endloop
   endfacet
   facet normal 0.000000e+000 0.000000e+000 -1.000000e+000
      outer loop
         vertex 6.364194e+001 0.000000e+000 5.342068e+001
         vertex 5.071874e+000 4.877074e+000 5.342068e+001
         vertex 6.364194e+001 4.877074e+000 5.342068e+001
      endloop
   endfacet
   facet normal -1.000000e+000 0.000000e+000 0.000000e+000
      outer loop
         vertex 6.364194e+001 0.000000e+000 5.342068e+001
         vertex 6.364194e+001 4.877074e+000 5.342068e+001
         vertex 6.364194e+001 0.000000e+000 0.000000e+000
      endloop
   endfacet
   facet normal -1.000000e+000 0.000000e+000 0.000000e+000
      outer loop
         vertex 6.364194e+001 0.000000e+000 0.000000e+000
         vertex 6.364194e+001 4.877074e+000 5.342068e+001
         vertex 6.364194e+001 4.877074e+000 0.000000e+000
      endloop
   endfacet
endsolid