solid test
   facet normal 1.000000e+000 0.000000e+000 0.000000e+000
      outer loop
         vertex 1.651961e+001 8.174229e+001 1.286572e+002
         vertex 1.651961e+001 8.174229e+001 1.187329e+002
         vertex 1.651961e+001 9.751245e+001 1.286572e+002
      endloop
   endfacet
   facet normal 1.000000e+000 0.000000e+000 0.000000e+000
      outer loop
         vertex 1.651961e+001 9.751245e+001 1.286572e+002
         vertex 1.651961e+001 8.174229e+001 1.187329e+002
         vertex 1.651961e+001 9.751245e+001 1.187329e+002
      endloop
   endfacet
   facet normal 0.000000e+000 0.000000e+000 -1.000000e+000
      outer loop
         vertex 5.869220e+001 8.174229e+001 1.286572e+002
         vertex 1.651961e+001 8.174229e+001 1.286572e+002
         vertex 5.869220e+001 9.751245e+001 1.286572e+002
      endloop
   endfacet
   facet normal 0.000000e+000 0.000000e+000 -1.000000e+000
      outer loop
         vertex 5.869220e+001 9.751245e+001 1.286572e+002
         vertex 1.651961e+001 8.174229e+001 1.286572e+002
         vertex 1.651961e+001 9.751245e+001 1.286572e+002
      endloop
   endfacet
   facet normal -1.000000e+000 0.000000e+000 0.000000e+000
      outer loop
         vertex 5.869220e+001 8.174229e+001 1.187329e+002
         vertex 5.869220e+001 8.174229e+001 1.286572e+002
         vertex 5.869220e+001 9.751245e+001 1.187329e+002
      endloop
   endfacet
   facet normal -1.000000e+000 0.000000e+000 0.000000e+000
      outer loop
         vertex 5.869220e+001 9.751245e+001 1.187329e+002
         vertex 5.869220e+001 8.174229e+001 1.286572e+002
         vertex 5.869220e+001 9.751245e+001 1.286572e+002
      endloop
   endfacet
   facet normal 0.000000e+000 0.000000e+000 1.000000e+000
      outer loop
         vertex 1.651961e+001 8.174229e+001 1.187329e+002
         vertex 5.869220e+001 8.174229e+001 1.187329e+002
         vertex 1.651961e+001 9.751245e+001 1.187329e+002
      endloop
   endfacet
   facet normal 0.000000e+000 0.000000e+000 1.000000e+000
      outer loop
         vertex 1.651961e+001 9.751245e+001 1.187329e+002
         vertex 5.869220e+001 8.174229e+001 1.187329e+002
         vertex 5.869220e+001 9.751245e+001 1.187329e+002
      endloop
   endfacet
   facet normal 1.000000e+000 0.000000e+000 0.000000e+000
      outer loop
         vertex 1.651961e+001 8.174229e+001 1.060921e+002
         vertex 1.651961e+001 8.174229e+001 9.551755e+001
         vertex 1.651961e+001 9.751245e+001 1.060921e+002
      endloop
   endfacet
   facet normal 1.000000e+000 0.000000e+000 0.000000e+000
      outer loop
         vertex 1.651961e+001 9.751245e+001 1.060921e+002
         vertex 1.651961e+001 8.174229e+001 9.551755e+001
         vertex 1.651961e+001 9.751245e+001 9.551755e+001
      endloop
   endfacet
   facet normal 0.000000e+000 0.000000e+000 -1.000000e+000
      outer loop
         vertex 6.091014e+001 8.174229e+001 1.060921e+002
         vertex 1.651961e+001 8.174229e+001 1.060921e+002
         vertex 6.091014e+001 9.751245e+001 1.060921e+002
      endloop
   endfacet
   facet normal 0.000000e+000 0.000000e+000 -1.000000e+000
      outer loop
         vertex 6.091014e+001 9.751245e+001 1.060921e+002
         vertex 1.651961e+001 8.174229e+001 1.060921e+002
         vertex 1.651961e+001 9.751245e+001 1.060921e+002
      endloop
   endfacet
   facet normal -1.000000e+000 0.000000e+000 0.000000e+000
      outer loop
         vertex 6.091014e+001 8.174229e+001 9.551755e+001
         vertex 6.091014e+001 8.174229e+001 1.060921e+002
         vertex 6.091014e+001 9.751245e+001 9.551755e+001
      endloop
   endfacet
   facet normal -1.000000e+000 0.000000e+000 0.000000e+000
      outer loop
         vertex 6.091014e+001 9.751245e+001 9.551755e+001
         vertex 6.091014e+001 8.174229e+001 1.060921e+002
         vertex 6.091014e+001 9.751245e+001 1.060921e+002
      endloop
   endfacet
   facet normal 0.000000e+000 0.000000e+000 1.000000e+000
      outer loop
         vertex 1.651961e+001 8.174229e+001 9.551755e+001
         vertex 6.091014e+001 8.174229e+001 9.551755e+001
         vertex 1.651961e+001 9.751245e+001 9.551755e+001
      endloop
   endfacet
   facet normal 0.000000e+000 0.000000e+000 1.000000e+000
      outer loop
         vertex 1.651961e+001 9.751245e+001 9.551755e+001
         vertex 6.091014e+001 8.174229e+001 9.551755e+001
         vertex 6.091014e+001 9.751245e+001 9.551755e+001
      endloop
   endfacet
endsolid