solid test
   facet normal -1.000000e+000 0.000000e+000 0.000000e+000
      outer loop
         vertex 6.504795e+001 6.720128e+001 0.000000e+000
         vertex 6.504795e+001 5.772223e+001 0.000000e+000
         vertex 6.504795e+001 6.720128e+001 4.752370e+001
      endloop
   endfacet
   facet normal -1.000000e+000 0.000000e+000 0.000000e+000
      outer loop
         vertex 6.504795e+001 6.720128e+001 4.752370e+001
         vertex 6.504795e+001 5.772223e+001 0.000000e+000
         vertex 6.504795e+001 5.772223e+001 4.752370e+001
      endloop
   endfacet
   facet normal 0.000000e+000 0.000000e+000 -1.000000e+000
      outer loop
         vertex 6.504795e+001 6.720128e+001 4.752370e+001
         vertex 6.504795e+001 5.772223e+001 4.752370e+001
         vertex 9.838137e+000 6.720128e+001 4.752370e+001
      endloop
   endfacet
   facet normal 0.000000e+000 0.000000e+000 -1.000000e+000
      outer loop
         vertex 9.838137e+000 6.720128e+001 4.752370e+001
         vertex 6.504795e+001 5.772223e+001 4.752370e+001
         vertex 9.838137e+000 5.772223e+001 4.752370e+001
      endloop
   endfacet
   facet normal 1.000000e+000 0.000000e+000 0.000000e+000
      outer loop
         vertex 9.838137e+000 6.720128e+001 4.752370e+001
         vertex 9.838137e+000 5.772223e+001 4.752370e+001
         vertex 9.838137e+000 6.720128e+001 0.000000e+000
      endloop
   endfacet
   facet normal 1.000000e+000 0.000000e+000 0.000000e+000
      outer loop
         vertex 9.838137e+000 6.720128e+001 0.000000e+000
         vertex 9.838137e+000 5.772223e+001 4.752370e+001
         vertex 9.838137e+000 5.772223e+001 0.000000e+000
      endloop
   endfacet
   facet normal 1.000000e+000 0.000000e+000 0.000000e+000
      outer loop
         vertex 9.838137e+000 0.000000e+000 0.000000e+000
         vertex 9.838137e+000 9.674950e+000 0.000000e+000
         vertex 9.838137e+000 0.000000e+000 4.752370e+001
      endloop
   endfacet
   facet normal 1.000000e+000 0.000000e+000 0.000000e+000
      outer loop
         vertex 9.838137e+000 0.000000e+000 4.752370e+001
         vertex 9.838137e+000 9.674950e+000 0.000000e+000
         vertex 9.838137e+000 9.674950e+000 4.752370e+001
      endloop
   endfacet
   facet normal 0.000000e+000 0.000000e+000 -1.000000e+000
      outer loop
         vertex 9.838137e+000 0.000000e+000 4.752370e+001
         vertex 9.838137e+000 9.674950e+000 4.752370e+001
         vertex 6.504795e+001 0.000000e+000 4.752370e+001
      endloop
   endfacet
   facet normal 0.000000e+000 0.000000e+000 -1.000000e+000
      outer loop
         vertex 6.504795e+001 0.000000e+000 4.752370e+001
         vertex 9.838137e+000 9.674950e+000 4.752370e+001
         vertex 6.504795e+001 9.674950e+000 4.752370e+001
      endloop
   endfacet
   facet normal -1.000000e+000 0.000000e+000 0.000000e+000
      outer loop
         vertex 6.504795e+001 0.000000e+000 4.752370e+001
         vertex 6.504795e+001 9.674950e+000 4.752370e+001
         vertex 6.504795e+001 0.000000e+000 0.000000e+000
      endloop
   endfacet
   facet normal -1.000000e+000 0.000000e+000 0.000000e+000
      outer loop
         vertex 6.504795e+001 0.000000e+000 0.000000e+000
         vertex 6.504795e+001 9.674950e+000 4.752370e+001
         vertex 6.504795e+001 9.674950e+000 0.000000e+000
      endloop
   endfacet
   facet normal 1.000000e+000 0.000000e+000 0.000000e+000
      outer loop
         vertex 9.838137e+000 6.720128e+001 1.033889e+002
         vertex 9.838137e+000 5.772223e+001 1.033889e+002
         vertex 9.838137e+000 6.720128e+001 9.367280e+001
      endloop
   endfacet
   facet normal 1.000000e+000 0.000000e+000 0.000000e+000
      outer loop
         vertex 9.838137e+000 6.720128e+001 9.367280e+001
         vertex 9.838137e+000 5.772223e+001 1.033889e+002
         vertex 9.838137e+000 5.772223e+001 9.367280e+001
      endloop
   endfacet
   facet normal 0.000000e+000 0.000000e+000 -1.000000e+000
      outer loop
         vertex 6.504795e+001 6.720128e+001 1.033889e+002
         vertex 6.504795e+001 5.772223e+001 1.033889e+002
         vertex 9.838137e+000 6.720128e+001 1.033889e+002
      endloop
   endfacet
   facet normal 0.000000e+000 0.000000e+000 -1.000000e+000
      outer loop
         vertex 9.838137e+000 6.720128e+001 1.033889e+002
         vertex 6.504795e+001 5.772223e+001 1.033889e+002
         vertex 9.838137e+000 5.772223e+001 1.033889e+002
      endloop
   endfacet
   facet normal -1.000000e+000 0.000000e+000 0.000000e+000
      outer loop
         vertex 6.504795e+001 6.720128e+001 9.367280e+001
         vertex 6.504795e+001 5.772223e+001 9.367280e+001
         vertex 6.504795e+001 6.720128e+001 1.033889e+002
      endloop
   endfacet
   facet normal -1.000000e+000 0.000000e+000 0.000000e+000
      outer loop
         vertex 6.504795e+001 6.720128e+001 1.033889e+002
         vertex 6.504795e+001 5.772223e+001 9.367280e+001
         vertex 6.504795e+001 5.772223e+001 1.033889e+002
      endloop
   endfacet
   facet normal 0.000000e+000 0.000000e+000 1.000000e+000
      outer loop
         vertex 9.838137e+000 6.720128e+001 9.367280e+001
         vertex 9.838137e+000 5.772223e+001 9.367280e+001
         vertex 6.504795e+001 6.720128e+001 9.367280e+001
      endloop
   endfacet
   facet normal 0.000000e+000 0.000000e+000 1.000000e+000
      outer loop
         vertex 6.504795e+001 6.720128e+001 9.367280e+001
         vertex 9.838137e+000 5.772223e+001 9.367280e+001
         vertex 6.504795e+001 5.772223e+001 9.367280e+001
      endloop
   endfacet
   facet normal 1.000000e+000 0.000000e+000 0.000000e+000
      outer loop
         vertex 9.838137e+000 6.720128e+001 8.277540e+001
         vertex 9.838137e+000 5.772223e+001 8.277540e+001
         vertex 9.838137e+000 6.720128e+001 7.161072e+001
      endloop
   endfacet
   facet normal 1.000000e+000 0.000000e+000 0.000000e+000
      outer loop
         vertex 9.838137e+000 6.720128e+001 7.161072e+001
         vertex 9.838137e+000 5.772223e+001 8.277540e+001
         vertex 9.838137e+000 5.772223e+001 7.161072e+001
      endloop
   endfacet
   facet normal 0.000000e+000 0.000000e+000 -1.000000e+000
      outer loop
         vertex 6.504795e+001 6.720128e+001 8.277540e+001
         vertex 6.504795e+001 5.772223e+001 8.277540e+001
         vertex 9.838137e+000 6.720128e+001 8.277540e+001
      endloop
   endfacet
   facet normal 0.000000e+000 0.000000e+000 -1.000000e+000
      outer loop
         vertex 9.838137e+000 6.720128e+001 8.277540e+001
         vertex 6.504795e+001 5.772223e+001 8.277540e+001
         vertex 9.838137e+000 5.772223e+001 8.277540e+001
      endloop
   endfacet
   facet normal -1.000000e+000 0.000000e+000 0.000000e+000
      outer loop
         vertex 6.504795e+001 6.720128e+001 7.161072e+001
         vertex 6.504795e+001 5.772223e+001 7.161072e+001
         vertex 6.504795e+001 6.720128e+001 8.277540e+001
      endloop
   endfacet
   facet normal -1.000000e+000 0.000000e+000 0.000000e+000
      outer loop
         vertex 6.504795e+001 6.720128e+001 8.277540e+001
         vertex 6.504795e+001 5.772223e+001 7.161072e+001
         vertex 6.504795e+001 5.772223e+001 8.277540e+001
      endloop
   endfacet
   facet normal 0.000000e+000 0.000000e+000 1.000000e+000
      outer loop
         vertex 9.838137e+000 6.720128e+001 7.161072e+001
         vertex 9.838137e+000 5.772223e+001 7.161072e+001
         vertex 6.504795e+001 6.720128e+001 7.161072e+001
      endloop
   endfacet
   facet normal 0.000000e+000 0.000000e+000 1.000000e+000
      outer loop
         vertex 6.504795e+001 6.720128e+001 7.161072e+001
         vertex 9.838137e+000 5.772223e+001 7.161072e+001
         vertex 6.504795e+001 5.772223e+001 7.161072e+001
      endloop
   endfacet
endsolid