solid test
   facet normal 0.000000e+000 0.000000e+000 -1.000000e+000
      outer loop
         vertex 9.019994e+000 0.000000e+000 0.000000e+000
         vertex 0.000000e+000 0.000000e+000 0.000000e+000
         vertex 9.019994e+000 4.507977e+000 0.000000e+000
      endloop
   endfacet
   facet normal 0.000000e+000 0.000000e+000 -1.000000e+000
      outer loop
         vertex 9.019994e+000 4.507977e+000 0.000000e+000
         vertex 0.000000e+000 0.000000e+000 0.000000e+000
         vertex 0.000000e+000 4.507977e+000 0.000000e+000
      endloop
   endfacet
   facet normal 0.000000e+000 0.000000e+000 -1.000000e+000
      outer loop
         vertex 9.019994e+000 6.250366e+001 0.000000e+000
         vertex 0.000000e+000 6.250366e+001 0.000000e+000
         vertex 9.019994e+000 6.649635e+001 0.000000e+000
      endloop
   endfacet
   facet normal 0.000000e+000 0.000000e+000 -1.000000e+000
      outer loop
         vertex 9.019994e+000 6.649635e+001 0.000000e+000
         vertex 0.000000e+000 6.250366e+001 0.000000e+000
         vertex 0.000000e+000 6.649635e+001 0.000000e+000
      endloop
   endfacet
   facet normal 0.000000e+000 0.000000e+000 1.000000e+000
      outer loop
         vertex 7.366000e+001 6.250366e+001 1.284751e+002
         vertex 7.366000e+001 6.649635e+001 1.284751e+002
         vertex 0.000000e+000 6.250366e+001 1.284751e+002
      endloop
   endfacet
   facet normal 0.000000e+000 0.000000e+000 1.000000e+000
      outer loop
         vertex 0.000000e+000 6.250366e+001 1.284751e+002
         vertex 7.366000e+001 6.649635e+001 1.284751e+002
         vertex 0.000000e+000 6.649635e+001 1.284751e+002
      endloop
   endfacet
   facet normal 0.000000e+000 -1.000000e+000 0.000000e+000
      outer loop
         vertex 9.019994e+000 6.250366e+001 1.107809e+002
         vertex 9.019994e+000 6.250366e+001 1.002993e+002
         vertex 6.452396e+001 6.250366e+001 1.107809e+002
      endloop
   endfacet
   facet normal 0.000000e+000 -1.000000e+000 0.000000e+000
      outer loop
         vertex 6.452396e+001 6.250366e+001 1.107809e+002
         vertex 9.019994e+000 6.250366e+001 1.002993e+002
         vertex 6.452396e+001 6.250366e+001 1.002993e+002
      endloop
   endfacet
   facet normal 0.000000e+000 -1.000000e+000 0.000000e+000
      outer loop
         vertex 6.452396e+001 6.250366e+001 1.221092e+002
         vertex 7.366000e+001 6.250366e+001 1.284751e+002
         vertex 9.019994e+000 6.250366e+001 1.221092e+002
      endloop
   endfacet
   facet normal 0.000000e+000 -1.000000e+000 0.000000e+000
      outer loop
         vertex 9.019994e+000 6.250366e+001 1.221092e+002
         vertex 7.366000e+001 6.250366e+001 1.284751e+002
         vertex 2.775558e-014 6.250366e+001 1.284751e+002
      endloop
   endfacet
   facet normal 0.000000e+000 -1.000000e+000 0.000000e+000
      outer loop
         vertex 9.019994e+000 6.250366e+001 1.221092e+002
         vertex 2.775558e-014 6.250366e+001 1.284751e+002
         vertex 9.019994e+000 6.250366e+001 1.107809e+002
      endloop
   endfacet
   facet normal 0.000000e+000 -1.000000e+000 0.000000e+000
      outer loop
         vertex 9.019994e+000 6.250366e+001 1.107809e+002
         vertex 2.775558e-014 6.250366e+001 1.284751e+002
         vertex 2.775558e-014 6.250366e+001 6.423757e+001
      endloop
   endfacet
   facet normal 0.000000e+000 -1.000000e+000 0.000000e+000
      outer loop
         vertex 9.019994e+000 6.250366e+001 1.107809e+002
         vertex 2.775558e-014 6.250366e+001 6.423757e+001
         vertex 9.019994e+000 6.250366e+001 1.002993e+002
      endloop
   endfacet
   facet normal 0.000000e+000 -1.000000e+000 0.000000e+000
      outer loop
         vertex 6.452396e+001 6.250366e+001 1.221092e+002
         vertex 6.452396e+001 6.250366e+001 1.107809e+002
         vertex 7.366000e+001 6.250366e+001 1.284751e+002
      endloop
   endfacet
   facet normal 0.000000e+000 -1.000000e+000 0.000000e+000
      outer loop
         vertex 7.366000e+001 6.250366e+001 1.284751e+002
         vertex 6.452396e+001 6.250366e+001 1.107809e+002
         vertex 6.452396e+001 6.250366e+001 1.002993e+002
      endloop
   endfacet
   facet normal 0.000000e+000 -1.000000e+000 0.000000e+000
      outer loop
         vertex 7.366000e+001 6.250366e+001 1.284751e+002
         vertex 6.452396e+001 6.250366e+001 1.002993e+002
         vertex 7.366000e+001 6.250366e+001 6.423757e+001
      endloop
   endfacet
   facet normal 0.000000e+000 -1.000000e+000 0.000000e+000
      outer loop
         vertex 7.366000e+001 6.250366e+001 6.423757e+001
         vertex 6.452396e+001 6.250366e+001 1.002993e+002
         vertex 6.452396e+001 6.250366e+001 8.855573e+001
      endloop
   endfacet
   facet normal 0.000000e+000 -1.000000e+000 0.000000e+000
      outer loop
         vertex 7.366000e+001 6.250366e+001 6.423757e+001
         vertex 6.452396e+001 6.250366e+001 8.855573e+001
         vertex 2.775558e-014 6.250366e+001 6.423757e+001
      endloop
   endfacet
   facet normal 0.000000e+000 -1.000000e+000 0.000000e+000
      outer loop
         vertex 2.775558e-014 6.250366e+001 6.423757e+001
         vertex 6.452396e+001 6.250366e+001 8.855573e+001
         vertex 9.019994e+000 6.250366e+001 8.855573e+001
      endloop
   endfacet
   facet normal 0.000000e+000 -1.000000e+000 0.000000e+000
      outer loop
         vertex 2.775558e-014 6.250366e+001 6.423757e+001
         vertex 9.019994e+000 6.250366e+001 8.855573e+001
         vertex 9.019994e+000 6.250366e+001 1.002993e+002
      endloop
   endfacet
   facet normal 0.000000e+000 0.000000e+000 1.000000e+000
      outer loop
         vertex 7.366000e+001 0.000000e+000 6.423757e+001
         vertex 7.366000e+001 6.250366e+001 6.423757e+001
         vertex 0.000000e+000 0.000000e+000 6.423757e+001
      endloop
   endfacet
   facet normal 0.000000e+000 0.000000e+000 1.000000e+000
      outer loop
         vertex 0.000000e+000 0.000000e+000 6.423757e+001
         vertex 7.366000e+001 6.250366e+001 6.423757e+001
         vertex 0.000000e+000 6.250366e+001 6.423757e+001
      endloop
   endfacet
   facet normal 0.000000e+000 -1.000000e+000 0.000000e+000
      outer loop
         vertex 6.452396e+001 0.000000e+000 0.000000e+000
         vertex 7.366000e+001 0.000000e+000 0.000000e+000
         vertex 6.452396e+001 0.000000e+000 5.545071e+001
      endloop
   endfacet
   facet normal 0.000000e+000 -1.000000e+000 0.000000e+000
      outer loop
         vertex 6.452396e+001 0.000000e+000 5.545071e+001
         vertex 7.366000e+001 0.000000e+000 0.000000e+000
         vertex 7.366000e+001 0.000000e+000 6.423757e+001
      endloop
   endfacet
   facet normal 0.000000e+000 -1.000000e+000 0.000000e+000
      outer loop
         vertex 6.452396e+001 0.000000e+000 5.545071e+001
         vertex 7.366000e+001 0.000000e+000 6.423757e+001
         vertex 9.019994e+000 0.000000e+000 5.545071e+001
      endloop
   endfacet
   facet normal 0.000000e+000 -1.000000e+000 0.000000e+000
      outer loop
         vertex 9.019994e+000 0.000000e+000 5.545071e+001
         vertex 7.366000e+001 0.000000e+000 6.423757e+001
         vertex 0.000000e+000 0.000000e+000 6.423757e+001
      endloop
   endfacet
   facet normal 0.000000e+000 -1.000000e+000 0.000000e+000
      outer loop
         vertex 9.019994e+000 0.000000e+000 5.545071e+001
         vertex 0.000000e+000 0.000000e+000 6.423757e+001
         vertex 9.019994e+000 0.000000e+000 0.000000e+000
      endloop
   endfacet
   facet normal 0.000000e+000 -1.000000e+000 0.000000e+000
      outer loop
         vertex 9.019994e+000 0.000000e+000 0.000000e+000
         vertex 0.000000e+000 0.000000e+000 6.423757e+001
         vertex 0.000000e+000 0.000000e+000 0.000000e+000
      endloop
   endfacet
   facet normal 0.000000e+000 0.000000e+000 -1.000000e+000
      outer loop
         vertex 6.452396e+001 4.507977e+000 0.000000e+000
         vertex 7.366000e+001 4.507977e+000 0.000000e+000
         vertex 6.452396e+001 0.000000e+000 0.000000e+000
      endloop
   endfacet
   facet normal 0.000000e+000 0.000000e+000 -1.000000e+000
      outer loop
         vertex 6.452396e+001 0.000000e+000 0.000000e+000
         vertex 7.366000e+001 4.507977e+000 0.000000e+000
         vertex 7.366000e+001 0.000000e+000 0.000000e+000
      endloop
   endfacet
   facet normal 0.000000e+000 1.000000e+000 0.000000e+000
      outer loop
         vertex 9.019994e+000 4.507977e+000 0.000000e+000
         vertex 0.000000e+000 4.507977e+000 0.000000e+000
         vertex 9.019994e+000 4.507977e+000 5.545071e+001
      endloop
   endfacet
   facet normal 0.000000e+000 1.000000e+000 0.000000e+000
      outer loop
         vertex 9.019994e+000 4.507977e+000 5.545071e+001
         vertex 0.000000e+000 4.507977e+000 0.000000e+000
         vertex 0.000000e+000 4.507977e+000 5.951747e+001
      endloop
   endfacet
   facet normal 0.000000e+000 1.000000e+000 0.000000e+000
      outer loop
         vertex 9.019994e+000 4.507977e+000 5.545071e+001
         vertex 0.000000e+000 4.507977e+000 5.951747e+001
         vertex 6.452396e+001 4.507977e+000 5.545071e+001
      endloop
   endfacet
   facet normal 0.000000e+000 1.000000e+000 0.000000e+000
      outer loop
         vertex 6.452396e+001 4.507977e+000 5.545071e+001
         vertex 0.000000e+000 4.507977e+000 5.951747e+001
         vertex 7.366000e+001 4.507977e+000 5.951747e+001
      endloop
   endfacet
   facet normal 0.000000e+000 1.000000e+000 0.000000e+000
      outer loop
         vertex 6.452396e+001 4.507977e+000 5.545071e+001
         vertex 7.366000e+001 4.507977e+000 5.951747e+001
         vertex 6.452396e+001 4.507977e+000 0.000000e+000
      endloop
   endfacet
   facet normal 0.000000e+000 1.000000e+000 0.000000e+000
      outer loop
         vertex 6.452396e+001 4.507977e+000 0.000000e+000
         vertex 7.366000e+001 4.507977e+000 5.951747e+001
         vertex 7.366000e+001 4.507977e+000 0.000000e+000
      endloop
   endfacet
   facet normal 0.000000e+000 0.000000e+000 -1.000000e+000
      outer loop
         vertex 7.366000e+001 6.250366e+001 5.951747e+001
         vertex 7.366000e+001 4.507977e+000 5.951747e+001
         vertex 0.000000e+000 6.250366e+001 5.951747e+001
      endloop
   endfacet
   facet normal 0.000000e+000 0.000000e+000 -1.000000e+000
      outer loop
         vertex 0.000000e+000 6.250366e+001 5.951747e+001
         vertex 7.366000e+001 4.507977e+000 5.951747e+001
         vertex 0.000000e+000 4.507977e+000 5.951747e+001
      endloop
   endfacet
   facet normal 0.000000e+000 -1.000000e+000 0.000000e+000
      outer loop
         vertex 6.452396e+001 6.250366e+001 0.000000e+000
         vertex 7.366000e+001 6.250366e+001 0.000000e+000
         vertex 6.452396e+001 6.250366e+001 5.545071e+001
      endloop
   endfacet
   facet normal 0.000000e+000 -1.000000e+000 0.000000e+000
      outer loop
         vertex 6.452396e+001 6.250366e+001 5.545071e+001
         vertex 7.366000e+001 6.250366e+001 0.000000e+000
         vertex 7.366000e+001 6.250366e+001 5.951747e+001
      endloop
   endfacet
   facet normal 0.000000e+000 -1.000000e+000 0.000000e+000
      outer loop
         vertex 6.452396e+001 6.250366e+001 5.545071e+001
         vertex 7.366000e+001 6.250366e+001 5.951747e+001
         vertex 9.019994e+000 6.250366e+001 5.545071e+001
      endloop
   endfacet
   facet normal 0.000000e+000 -1.000000e+000 0.000000e+000
      outer loop
         vertex 9.019994e+000 6.250366e+001 5.545071e+001
         vertex 7.366000e+001 6.250366e+001 5.951747e+001
         vertex 0.000000e+000 6.250366e+001 5.951747e+001
      endloop
   endfacet
   facet normal 0.000000e+000 -1.000000e+000 0.000000e+000
      outer loop
         vertex 9.019994e+000 6.250366e+001 5.545071e+001
         vertex 0.000000e+000 6.250366e+001 5.951747e+001
         vertex 9.019994e+000 6.250366e+001 0.000000e+000
      endloop
   endfacet
   facet normal 0.000000e+000 -1.000000e+000 0.000000e+000
      outer loop
         vertex 9.019994e+000 6.250366e+001 0.000000e+000
         vertex 0.000000e+000 6.250366e+001 5.951747e+001
         vertex 0.000000e+000 6.250366e+001 0.000000e+000
      endloop
   endfacet
   facet normal 0.000000e+000 0.000000e+000 -1.000000e+000
      outer loop
         vertex 6.452396e+001 6.649635e+001 0.000000e+000
         vertex 7.366000e+001 6.649635e+001 0.000000e+000
         vertex 6.452396e+001 6.250366e+001 0.000000e+000
      endloop
   endfacet
   facet normal 0.000000e+000 0.000000e+000 -1.000000e+000
      outer loop
         vertex 6.452396e+001 6.250366e+001 0.000000e+000
         vertex 7.366000e+001 6.649635e+001 0.000000e+000
         vertex 7.366000e+001 6.250366e+001 0.000000e+000
      endloop
   endfacet
   facet normal 0.000000e+000 1.000000e+000 0.000000e+000
      outer loop
         vertex 9.019994e+000 6.649635e+001 0.000000e+000
         vertex 2.775558e-014 6.649635e+001 0.000000e+000
         vertex 9.019994e+000 6.649635e+001 5.545071e+001
      endloop
   endfacet
   facet normal 0.000000e+000 1.000000e+000 0.000000e+000
      outer loop
         vertex 9.019994e+000 6.649635e+001 5.545071e+001
         vertex 2.775558e-014 6.649635e+001 0.000000e+000
         vertex 2.775558e-014 6.649635e+001 1.284751e+002
      endloop
   endfacet
   facet normal 0.000000e+000 1.000000e+000 0.000000e+000
      outer loop
         vertex 9.019994e+000 6.649635e+001 8.855573e+001
         vertex 6.452396e+001 6.649635e+001 8.855573e+001
         vertex 6.452396e+001 6.649635e+001 5.545071e+001
      endloop
   endfacet
   facet normal 0.000000e+000 1.000000e+000 0.000000e+000
      outer loop
         vertex 6.452396e+001 6.649635e+001 1.002993e+002
         vertex 7.366000e+001 6.649635e+001 1.284751e+002
         vertex 6.452396e+001 6.649635e+001 8.855573e+001
      endloop
   endfacet
   facet normal 0.000000e+000 1.000000e+000 0.000000e+000
      outer loop
         vertex 6.452396e+001 6.649635e+001 8.855573e+001
         vertex 7.366000e+001 6.649635e+001 1.284751e+002
         vertex 7.366000e+001 6.649635e+001 0.000000e+000
      endloop
   endfacet
   facet normal 0.000000e+000 1.000000e+000 0.000000e+000
      outer loop
         vertex 6.452396e+001 6.649635e+001 8.855573e+001
         vertex 7.366000e+001 6.649635e+001 0.000000e+000
         vertex 6.452396e+001 6.649635e+001 5.545071e+001
      endloop
   endfacet
   facet normal 0.000000e+000 1.000000e+000 0.000000e+000
      outer loop
         vertex 6.452396e+001 6.649635e+001 5.545071e+001
         vertex 7.366000e+001 6.649635e+001 0.000000e+000
         vertex 6.452396e+001 6.649635e+001 0.000000e+000
      endloop
   endfacet
   facet normal 0.000000e+000 1.000000e+000 0.000000e+000
      outer loop
         vertex 6.452396e+001 6.649635e+001 5.545071e+001
         vertex 9.019994e+000 6.649635e+001 5.545071e+001
         vertex 9.019994e+000 6.649635e+001 8.855573e+001
      endloop
   endfacet
   facet normal 0.000000e+000 1.000000e+000 0.000000e+000
      outer loop
         vertex 9.019994e+000 6.649635e+001 8.855573e+001
         vertex 9.019994e+000 6.649635e+001 5.545071e+001
         vertex 2.775558e-014 6.649635e+001 1.284751e+002
      endloop
   endfacet
   facet normal 0.000000e+000 1.000000e+000 0.000000e+000
      outer loop
         vertex 9.019994e+000 6.649635e+001 8.855573e+001
         vertex 2.775558e-014 6.649635e+001 1.284751e+002
         vertex 9.019994e+000 6.649635e+001 1.002993e+002
      endloop
   endfacet
   facet normal 0.000000e+000 1.000000e+000 0.000000e+000
      outer loop
         vertex 9.019994e+000 6.649635e+001 1.002993e+002
         vertex 2.775558e-014 6.649635e+001 1.284751e+002
         vertex 9.019994e+000 6.649635e+001 1.107809e+002
      endloop
   endfacet
   facet normal 0.000000e+000 1.000000e+000 0.000000e+000
      outer loop
         vertex 9.019994e+000 6.649635e+001 1.002993e+002
         vertex 9.019994e+000 6.649635e+001 1.107809e+002
         vertex 6.452396e+001 6.649635e+001 1.002993e+002
      endloop
   endfacet
   facet normal 0.000000e+000 1.000000e+000 0.000000e+000
      outer loop
         vertex 6.452396e+001 6.649635e+001 1.002993e+002
         vertex 9.019994e+000 6.649635e+001 1.107809e+002
         vertex 6.452396e+001 6.649635e+001 1.107809e+002
      endloop
   endfacet
   facet normal 0.000000e+000 1.000000e+000 0.000000e+000
      outer loop
         vertex 6.452396e+001 6.649635e+001 1.002993e+002
         vertex 6.452396e+001 6.649635e+001 1.107809e+002
         vertex 7.366000e+001 6.649635e+001 1.284751e+002
      endloop
   endfacet
   facet normal 0.000000e+000 1.000000e+000 0.000000e+000
      outer loop
         vertex 7.366000e+001 6.649635e+001 1.284751e+002
         vertex 6.452396e+001 6.649635e+001 1.107809e+002
         vertex 6.452396e+001 6.649635e+001 1.221092e+002
      endloop
   endfacet
   facet normal 0.000000e+000 1.000000e+000 0.000000e+000
      outer loop
         vertex 7.366000e+001 6.649635e+001 1.284751e+002
         vertex 6.452396e+001 6.649635e+001 1.221092e+002
         vertex 2.775558e-014 6.649635e+001 1.284751e+002
      endloop
   endfacet
   facet normal 0.000000e+000 1.000000e+000 0.000000e+000
      outer loop
         vertex 2.775558e-014 6.649635e+001 1.284751e+002
         vertex 6.452396e+001 6.649635e+001 1.221092e+002
         vertex 9.019994e+000 6.649635e+001 1.221092e+002
      endloop
   endfacet
   facet normal 0.000000e+000 1.000000e+000 0.000000e+000
      outer loop
         vertex 2.775558e-014 6.649635e+001 1.284751e+002
         vertex 9.019994e+000 6.649635e+001 1.221092e+002
         vertex 9.019994e+000 6.649635e+001 1.107809e+002
      endloop
   endfacet
   facet normal 1.000000e+000 0.000000e+000 0.000000e+000
      outer loop
         vertex 7.366000e+001 6.649635e+001 0.000000e+000
         vertex 7.366000e+001 6.649635e+001 1.284751e+002
         vertex 7.366000e+001 6.250366e+001 6.423757e+001
      endloop
   endfacet
   facet normal 1.000000e+000 0.000000e+000 0.000000e+000
      outer loop
         vertex 7.366000e+001 6.250366e+001 6.423757e+001
         vertex 7.366000e+001 6.649635e+001 1.284751e+002
         vertex 7.366000e+001 6.250366e+001 1.284751e+002
      endloop
   endfacet
   facet normal 1.000000e+000 0.000000e+000 0.000000e+000
      outer loop
         vertex 7.366000e+001 6.250366e+001 0.000000e+000
         vertex 7.366000e+001 6.649635e+001 0.000000e+000
         vertex 7.366000e+001 6.250366e+001 5.951747e+001
      endloop
   endfacet
   facet normal 1.000000e+000 0.000000e+000 0.000000e+000
      outer loop
         vertex 7.366000e+001 6.250366e+001 5.951747e+001
         vertex 7.366000e+001 6.649635e+001 0.000000e+000
         vertex 7.366000e+001 6.250366e+001 6.423757e+001
      endloop
   endfacet
   facet normal 1.000000e+000 0.000000e+000 0.000000e+000
      outer loop
         vertex 7.366000e+001 6.250366e+001 5.951747e+001
         vertex 7.366000e+001 6.250366e+001 6.423757e+001
         vertex 7.366000e+001 4.507977e+000 5.951747e+001
      endloop
   endfacet
   facet normal 1.000000e+000 0.000000e+000 0.000000e+000
      outer loop
         vertex 7.366000e+001 4.507977e+000 5.951747e+001
         vertex 7.366000e+001 6.250366e+001 6.423757e+001
         vertex 7.366000e+001 0.000000e+000 6.423757e+001
      endloop
   endfacet
   facet normal 1.000000e+000 0.000000e+000 0.000000e+000
      outer loop
         vertex 7.366000e+001 4.507977e+000 5.951747e+001
         vertex 7.366000e+001 0.000000e+000 6.423757e+001
         vertex 7.366000e+001 4.507977e+000 0.000000e+000
      endloop
   endfacet
   facet normal 1.000000e+000 0.000000e+000 0.000000e+000
      outer loop
         vertex 7.366000e+001 4.507977e+000 0.000000e+000
         vertex 7.366000e+001 0.000000e+000 6.423757e+001
         vertex 7.366000e+001 0.000000e+000 0.000000e+000
      endloop
   endfacet
   facet normal -1.000000e+000 0.000000e+000 0.000000e+000
      outer loop
         vertex 0.000000e+000 6.649635e+001 1.284751e+002
         vertex 0.000000e+000 6.649635e+001 0.000000e+000
         vertex 0.000000e+000 6.250366e+001 5.951747e+001
      endloop
   endfacet
   facet normal -1.000000e+000 0.000000e+000 0.000000e+000
      outer loop
         vertex 0.000000e+000 6.250366e+001 5.951747e+001
         vertex 0.000000e+000 6.649635e+001 0.000000e+000
         vertex 0.000000e+000 6.250366e+001 0.000000e+000
      endloop
   endfacet
   facet normal -1.000000e+000 0.000000e+000 0.000000e+000
      outer loop
         vertex 0.000000e+000 6.250366e+001 1.284751e+002
         vertex 0.000000e+000 6.649635e+001 1.284751e+002
         vertex 0.000000e+000 6.250366e+001 6.423757e+001
      endloop
   endfacet
   facet normal -1.000000e+000 0.000000e+000 0.000000e+000
      outer loop
         vertex 0.000000e+000 6.250366e+001 6.423757e+001
         vertex 0.000000e+000 6.649635e+001 1.284751e+002
         vertex 0.000000e+000 6.250366e+001 5.951747e+001
      endloop
   endfacet
   facet normal -1.000000e+000 0.000000e+000 0.000000e+000
      outer loop
         vertex 0.000000e+000 6.250366e+001 6.423757e+001
         vertex 0.000000e+000 6.250366e+001 5.951747e+001
         vertex 0.000000e+000 0.000000e+000 6.423757e+001
      endloop
   endfacet
   facet normal -1.000000e+000 0.000000e+000 0.000000e+000
      outer loop
         vertex 0.000000e+000 0.000000e+000 6.423757e+001
         vertex 0.000000e+000 6.250366e+001 5.951747e+001
         vertex 0.000000e+000 4.507977e+000 5.951747e+001
      endloop
   endfacet
   facet normal -1.000000e+000 0.000000e+000 0.000000e+000
      outer loop
         vertex 0.000000e+000 0.000000e+000 6.423757e+001
         vertex 0.000000e+000 4.507977e+000 5.951747e+001
         vertex 0.000000e+000 0.000000e+000 0.000000e+000
      endloop
   endfacet
   facet normal -1.000000e+000 0.000000e+000 0.000000e+000
      outer loop
         vertex 0.000000e+000 0.000000e+000 0.000000e+000
         vertex 0.000000e+000 4.507977e+000 5.951747e+001
         vertex 0.000000e+000 4.507977e+000 0.000000e+000
      endloop
   endfacet
   facet normal -1.000000e+000 0.000000e+000 0.000000e+000
      outer loop
         vertex 6.452396e+001 6.649635e+001 0.000000e+000
         vertex 6.452396e+001 6.250366e+001 0.000000e+000
         vertex 6.452396e+001 6.649635e+001 5.545071e+001
      endloop
   endfacet
   facet normal -1.000000e+000 0.000000e+000 0.000000e+000
      outer loop
         vertex 6.452396e+001 6.649635e+001 5.545071e+001
         vertex 6.452396e+001 6.250366e+001 0.000000e+000
         vertex 6.452396e+001 6.250366e+001 5.545071e+001
      endloop
   endfacet
   facet normal 0.000000e+000 0.000000e+000 -1.000000e+000
      outer loop
         vertex 6.452396e+001 6.649635e+001 5.545071e+001
         vertex 6.452396e+001 6.250366e+001 5.545071e+001
         vertex 9.019994e+000 6.649635e+001 5.545071e+001
      endloop
   endfacet
   facet normal 0.000000e+000 0.000000e+000 -1.000000e+000
      outer loop
         vertex 9.019994e+000 6.649635e+001 5.545071e+001
         vertex 6.452396e+001 6.250366e+001 5.545071e+001
         vertex 9.019994e+000 6.250366e+001 5.545071e+001
      endloop
   endfacet
   facet normal 1.000000e+000 0.000000e+000 0.000000e+000
      outer loop
         vertex 9.019994e+000 6.649635e+001 5.545071e+001
         vertex 9.019994e+000 6.250366e+001 5.545071e+001
         vertex 9.019994e+000 6.649635e+001 0.000000e+000
      endloop
   endfacet
   facet normal 1.000000e+000 0.000000e+000 0.000000e+000
      outer loop
         vertex 9.019994e+000 6.649635e+001 0.000000e+000
         vertex 9.019994e+000 6.250366e+001 5.545071e+001
         vertex 9.019994e+000 6.250366e+001 0.000000e+000
      endloop
   endfacet
   facet normal 1.000000e+000 0.000000e+000 0.000000e+000
      outer loop
         vertex 9.019994e+000 0.000000e+000 0.000000e+000
         vertex 9.019994e+000 4.507977e+000 0.000000e+000
         vertex 9.019994e+000 0.000000e+000 5.545071e+001
      endloop
   endfacet
   facet normal 1.000000e+000 0.000000e+000 0.000000e+000
      outer loop
         vertex 9.019994e+000 0.000000e+000 5.545071e+001
         vertex 9.019994e+000 4.507977e+000 0.000000e+000
         vertex 9.019994e+000 4.507977e+000 5.545071e+001
      endloop
   endfacet
   facet normal 0.000000e+000 0.000000e+000 -1.000000e+000
      outer loop
         vertex 9.019994e+000 0.000000e+000 5.545071e+001
         vertex 9.019994e+000 4.507977e+000 5.545071e+001
         vertex 6.452396e+001 0.000000e+000 5.545071e+001
      endloop
   endfacet
   facet normal 0.000000e+000 0.000000e+000 -1.000000e+000
      outer loop
         vertex 6.452396e+001 0.000000e+000 5.545071e+001
         vertex 9.019994e+000 4.507977e+000 5.545071e+001
         vertex 6.452396e+001 4.507977e+000 5.545071e+001
      endloop
   endfacet
   facet normal -1.000000e+000 0.000000e+000 0.000000e+000
      outer loop
         vertex 6.452396e+001 0.000000e+000 5.545071e+001
         vertex 6.452396e+001 4.507977e+000 5.545071e+001
         vertex 6.452396e+001 0.000000e+000 0.000000e+000
      endloop
   endfacet
   facet normal -1.000000e+000 0.000000e+000 0.000000e+000
      outer loop
         vertex 6.452396e+001 0.000000e+000 0.000000e+000
         vertex 6.452396e+001 4.507977e+000 5.545071e+001
         vertex 6.452396e+001 4.507977e+000 0.000000e+000
      endloop
   endfacet
   facet normal 1.000000e+000 0.000000e+000 0.000000e+000
      outer loop
         vertex 9.019994e+000 6.649635e+001 1.221092e+002
         vertex 9.019994e+000 6.250366e+001 1.221092e+002
         vertex 9.019994e+000 6.649635e+001 1.107809e+002
      endloop
   endfacet
   facet normal 1.000000e+000 0.000000e+000 0.000000e+000
      outer loop
         vertex 9.019994e+000 6.649635e+001 1.107809e+002
         vertex 9.019994e+000 6.250366e+001 1.221092e+002
         vertex 9.019994e+000 6.250366e+001 1.107809e+002
      endloop
   endfacet
   facet normal 0.000000e+000 0.000000e+000 -1.000000e+000
      outer loop
         vertex 6.452396e+001 6.649635e+001 1.221092e+002
         vertex 6.452396e+001 6.250366e+001 1.221092e+002
         vertex 9.019994e+000 6.649635e+001 1.221092e+002
      endloop
   endfacet
   facet normal 0.000000e+000 0.000000e+000 -1.000000e+000
      outer loop
         vertex 9.019994e+000 6.649635e+001 1.221092e+002
         vertex 6.452396e+001 6.250366e+001 1.221092e+002
         vertex 9.019994e+000 6.250366e+001 1.221092e+002
      endloop
   endfacet
   facet normal -1.000000e+000 0.000000e+000 0.000000e+000
      outer loop
         vertex 6.452396e+001 6.649635e+001 1.107809e+002
         vertex 6.452396e+001 6.250366e+001 1.107809e+002
         vertex 6.452396e+001 6.649635e+001 1.221092e+002
      endloop
   endfacet
   facet normal -1.000000e+000 0.000000e+000 0.000000e+000
      outer loop
         vertex 6.452396e+001 6.649635e+001 1.221092e+002
         vertex 6.452396e+001 6.250366e+001 1.107809e+002
         vertex 6.452396e+001 6.250366e+001 1.221092e+002
      endloop
   endfacet
   facet normal 0.000000e+000 0.000000e+000 1.000000e+000
      outer loop
         vertex 9.019994e+000 6.649635e+001 1.107809e+002
         vertex 9.019994e+000 6.250366e+001 1.107809e+002
         vertex 6.452396e+001 6.649635e+001 1.107809e+002
      endloop
   endfacet
   facet normal 0.000000e+000 0.000000e+000 1.000000e+000
      outer loop
         vertex 6.452396e+001 6.649635e+001 1.107809e+002
         vertex 9.019994e+000 6.250366e+001 1.107809e+002
         vertex 6.452396e+001 6.250366e+001 1.107809e+002
      endloop
   endfacet
   facet normal 1.000000e+000 0.000000e+000 0.000000e+000
      outer loop
         vertex 9.019994e+000 6.649635e+001 1.002993e+002
         vertex 9.019994e+000 6.250366e+001 1.002993e+002
         vertex 9.019994e+000 6.649635e+001 8.855573e+001
      endloop
   endfacet
   facet normal 1.000000e+000 0.000000e+000 0.000000e+000
      outer loop
         vertex 9.019994e+000 6.649635e+001 8.855573e+001
         vertex 9.019994e+000 6.250366e+001 1.002993e+002
         vertex 9.019994e+000 6.250366e+001 8.855573e+001
      endloop
   endfacet
   facet normal 0.000000e+000 0.000000e+000 -1.000000e+000
      outer loop
         vertex 6.452396e+001 6.649635e+001 1.002993e+002
         vertex 6.452396e+001 6.250366e+001 1.002993e+002
         vertex 9.019994e+000 6.649635e+001 1.002993e+002
      endloop
   endfacet
   facet normal 0.000000e+000 0.000000e+000 -1.000000e+000
      outer loop
         vertex 9.019994e+000 6.649635e+001 1.002993e+002
         vertex 6.452396e+001 6.250366e+001 1.002993e+002
         vertex 9.019994e+000 6.250366e+001 1.002993e+002
      endloop
   endfacet
   facet normal -1.000000e+000 0.000000e+000 0.000000e+000
      outer loop
         vertex 6.452396e+001 6.649635e+001 8.855573e+001
         vertex 6.452396e+001 6.250366e+001 8.855573e+001
         vertex 6.452396e+001 6.649635e+001 1.002993e+002
      endloop
   endfacet
   facet normal -1.000000e+000 0.000000e+000 0.000000e+000
      outer loop
         vertex 6.452396e+001 6.649635e+001 1.002993e+002
         vertex 6.452396e+001 6.250366e+001 8.855573e+001
         vertex 6.452396e+001 6.250366e+001 1.002993e+002
      endloop
   endfacet
   facet normal 0.000000e+000 0.000000e+000 1.000000e+000
      outer loop
         vertex 9.019994e+000 6.649635e+001 8.855573e+001
         vertex 9.019994e+000 6.250366e+001 8.855573e+001
         vertex 6.452396e+001 6.649635e+001 8.855573e+001
      endloop
   endfacet
   facet normal 0.000000e+000 0.000000e+000 1.000000e+000
      outer loop
         vertex 6.452396e+001 6.649635e+001 8.855573e+001
         vertex 9.019994e+000 6.250366e+001 8.855573e+001
         vertex 6.452396e+001 6.250366e+001 8.855573e+001
      endloop
   endfacet
endsolid