solid test
   facet normal 0.000000e+000 -1.000000e+000 0.000000e+000
      outer loop
         vertex 8.396114e+001 8.251518e-003 1.750060e+002
         vertex 7.028324e+001 8.251518e-003 1.750060e+002
         vertex 8.396114e+001 8.251518e-003 8.255000e+001
      endloop
   endfacet
   facet normal 0.000000e+000 -1.000000e+000 0.000000e+000
      outer loop
         vertex 8.396114e+001 8.251518e-003 8.255000e+001
         vertex 7.028324e+001 8.251518e-003 1.750060e+002
         vertex 7.028324e+001 8.251518e-003 9.245600e+001
      endloop
   endfacet
   facet normal 0.000000e+000 -1.000000e+000 0.000000e+000
      outer loop
         vertex 8.396114e+001 8.251518e-003 8.255000e+001
         vertex 7.028324e+001 8.251518e-003 9.245600e+001
         vertex 5.289584e+000 8.251518e-003 8.255000e+001
      endloop
   endfacet
   facet normal 0.000000e+000 -1.000000e+000 0.000000e+000
      outer loop
         vertex 5.289584e+000 8.251518e-003 8.255000e+001
         vertex 7.028324e+001 8.251518e-003 9.245600e+001
         vertex 2.607703e-005 8.251518e-003 9.245600e+001
      endloop
   endfacet
   facet normal 0.000000e+000 -1.000000e+000 0.000000e+000
      outer loop
         vertex 5.289584e+000 8.251518e-003 8.255000e+001
         vertex 2.607703e-005 8.251518e-003 9.245600e+001
         vertex 4.745822e+000 8.251518e-003 8.255000e+001
      endloop
   endfacet
   facet normal 0.000000e+000 -1.000000e+000 0.000000e+000
      outer loop
         vertex 4.745822e+000 8.251518e-003 8.255000e+001
         vertex 2.607703e-005 8.251518e-003 9.245600e+001
         vertex 2.607703e-005 8.251518e-003 8.255000e+001
      endloop
   endfacet
   facet normal 1.000000e+000 0.000000e+000 0.000000e+000
      outer loop
         vertex 8.396114e+001 6.365225e+001 1.750060e+002
         vertex 8.396114e+001 8.251518e-003 1.750060e+002
         vertex 8.396114e+001 6.365225e+001 8.255000e+001
      endloop
   endfacet
   facet normal 1.000000e+000 0.000000e+000 0.000000e+000
      outer loop
         vertex 8.396114e+001 6.365225e+001 8.255000e+001
         vertex 8.396114e+001 8.251518e-003 1.750060e+002
         vertex 8.396114e+001 8.251518e-003 8.255000e+001
      endloop
   endfacet
   facet normal 0.000000e+000 1.000000e+000 0.000000e+000
      outer loop
         vertex 7.028324e+001 6.365225e+001 1.750060e+002
         vertex 8.396114e+001 6.365225e+001 1.750060e+002
         vertex 7.028324e+001 6.365225e+001 9.245600e+001
      endloop
   endfacet
   facet normal 0.000000e+000 1.000000e+000 0.000000e+000
      outer loop
         vertex 7.028324e+001 6.365225e+001 9.245600e+001
         vertex 8.396114e+001 6.365225e+001 1.750060e+002
         vertex 8.396114e+001 6.365225e+001 8.255000e+001
      endloop
   endfacet
   facet normal 0.000000e+000 1.000000e+000 0.000000e+000
      outer loop
         vertex 7.028324e+001 6.365225e+001 9.245600e+001
         vertex 8.396114e+001 6.365225e+001 8.255000e+001
         vertex 2.607703e-005 6.365225e+001 9.245600e+001
      endloop
   endfacet
   facet normal 0.000000e+000 1.000000e+000 0.000000e+000
      outer loop
         vertex 2.607703e-005 6.365225e+001 9.245600e+001
         vertex 8.396114e+001 6.365225e+001 8.255000e+001
         vertex 2.607703e-005 6.365225e+001 8.255000e+001
      endloop
   endfacet
   facet normal -1.000000e+000 0.000000e+000 0.000000e+000
      outer loop
         vertex 7.028324e+001 8.251518e-003 1.750060e+002
         vertex 7.028324e+001 6.365225e+001 1.750060e+002
         vertex 7.028324e+001 8.251518e-003 9.245600e+001
      endloop
   endfacet
   facet normal -1.000000e+000 0.000000e+000 0.000000e+000
      outer loop
         vertex 7.028324e+001 8.251518e-003 9.245600e+001
         vertex 7.028324e+001 6.365225e+001 1.750060e+002
         vertex 7.028324e+001 6.365225e+001 9.245600e+001
      endloop
   endfacet
   facet normal 0.000000e+000 0.000000e+000 1.000000e+000
      outer loop
         vertex 7.028324e+001 6.365225e+001 1.750060e+002
         vertex 7.028324e+001 8.251518e-003 1.750060e+002
         vertex 8.396114e+001 6.365225e+001 1.750060e+002
      endloop
   endfacet
   facet normal 0.000000e+000 0.000000e+000 1.000000e+000
      outer loop
         vertex 8.396114e+001 6.365225e+001 1.750060e+002
         vertex 7.028324e+001 8.251518e-003 1.750060e+002
         vertex 8.396114e+001 8.251518e-003 1.750060e+002
      endloop
   endfacet
endsolid