solid test
   facet normal -1.000000e+000 0.000000e+000 0.000000e+000
      outer loop
         vertex 6.364194e+001 6.788585e+001 3.270708e+000
         vertex 6.364194e+001 6.078341e+001 3.270708e+000
         vertex 6.364194e+001 6.788585e+001 5.342068e+001
      endloop
   endfacet
   facet normal -1.000000e+000 0.000000e+000 0.000000e+000
      outer loop
         vertex 6.364194e+001 6.788585e+001 5.342068e+001
         vertex 6.364194e+001 6.078341e+001 3.270708e+000
         vertex 6.364194e+001 6.078341e+001 5.342068e+001
      endloop
   endfacet
   facet normal 0.000000e+000 0.000000e+000 -1.000000e+000
      outer loop
         vertex 6.364194e+001 6.788585e+001 5.342068e+001
         vertex 6.364194e+001 6.078341e+001 5.342068e+001
         vertex 5.071874e+000 6.788585e+001 5.342068e+001
      endloop
   endfacet
   facet normal 0.000000e+000 0.000000e+000 -1.000000e+000
      outer loop
         vertex 5.071874e+000 6.788585e+001 5.342068e+001
         vertex 6.364194e+001 6.078341e+001 5.342068e+001
         vertex 5.071874e+000 6.078341e+001 5.342068e+001
      endloop
   endfacet
   facet normal 1.000000e+000 0.000000e+000 0.000000e+000
      outer loop
         vertex 5.071874e+000 6.788585e+001 5.342068e+001
         vertex 5.071874e+000 6.078341e+001 5.342068e+001
         vertex 5.071874e+000 6.788585e+001 3.270708e+000
      endloop
   endfacet
   facet normal 1.000000e+000 0.000000e+000 0.000000e+000
      outer loop
         vertex 5.071874e+000 6.788585e+001 3.270708e+000
         vertex 5.071874e+000 6.078341e+001 5.342068e+001
         vertex 5.071874e+000 6.078341e+001 3.270708e+000
      endloop
   endfacet
   facet normal 1.000000e+000 0.000000e+000 0.000000e+000
      outer loop
         vertex 5.071874e+000 0.000000e+000 0.000000e+000
         vertex 5.071874e+000 4.877074e+000 0.000000e+000
         vertex 5.071874e+000 0.000000e+000 5.342068e+001
      endloop
   endfacet
   facet normal 1.000000e+000 0.000000e+000 0.000000e+000
      outer loop
         vertex 5.071874e+000 0.000000e+000 5.342068e+001
         vertex 5.071874e+000 4.877074e+000 0.000000e+000
         vertex 5.071874e+000 4.877074e+000 5.342068e+001
      endloop
   endfacet
   facet normal 0.000000e+000 0.000000e+000 -1.000000e+000
      outer loop
         vertex 5.071874e+000 0.000000e+000 5.342068e+001
         vertex 5.071874e+000 4.877074e+000 5.342068e+001
         vertex 6.364194e+001 0.000000e+000 5.342068e+001
      endloop
   endfacet
   facet normal 0.000000e+000 0.000000e+000 -1.000000e+000
      outer loop
         vertex 6.364194e+001 0.000000e+000 5.342068e+001
         vertex 5.071874e+000 4.877074e+000 5.342068e+001
         vertex 6.364194e+001 4.877074e+000 5.342068e+001
      endloop
   endfacet
   facet normal -1.000000e+000 0.000000e+000 0.000000e+000
      outer loop
         vertex 6.364194e+001 0.000000e+000 5.342068e+001
         vertex 6.364194e+001 4.877074e+000 5.342068e+001
         vertex 6.364194e+001 0.000000e+000 0.000000e+000
      endloop
   endfacet
   facet normal -1.000000e+000 0.000000e+000 0.000000e+000
      outer loop
         vertex 6.364194e+001 0.000000e+000 0.000000e+000
         vertex 6.364194e+001 4.877074e+000 5.342068e+001
         vertex 6.364194e+001 4.877074e+000 0.000000e+000
      endloop
   endfacet
endsolid