solid test
   facet normal 0.000000e+000 0.000000e+000 -1.000000e+000
      outer loop
         vertex 2.552530e+001 0.000000e+000 0.000000e+000
         vertex 0.000000e+000 0.000000e+000 0.000000e+000
         vertex 2.552530e+001 7.964482e+000 0.000000e+000
      endloop
   endfacet
   facet normal 0.000000e+000 0.000000e+000 -1.000000e+000
      outer loop
         vertex 2.552530e+001 7.964482e+000 0.000000e+000
         vertex 0.000000e+000 0.000000e+000 0.000000e+000
         vertex 0.000000e+000 7.964482e+000 0.000000e+000
      endloop
   endfacet
   facet normal 0.000000e+000 0.000000e+000 -1.000000e+000
      outer loop
         vertex 2.552530e+001 5.640636e+001 0.000000e+000
         vertex 0.000000e+000 5.640636e+001 0.000000e+000
         vertex 2.552530e+001 6.393197e+001 0.000000e+000
      endloop
   endfacet
   facet normal 0.000000e+000 0.000000e+000 -1.000000e+000
      outer loop
         vertex 2.552530e+001 6.393197e+001 0.000000e+000
         vertex 0.000000e+000 5.640636e+001 0.000000e+000
         vertex 0.000000e+000 6.393197e+001 0.000000e+000
      endloop
   endfacet
   facet normal 0.000000e+000 0.000000e+000 1.000000e+000
      outer loop
         vertex 6.756400e+001 5.640636e+001 1.118970e+002
         vertex 6.756400e+001 6.393197e+001 1.118970e+002
         vertex 0.000000e+000 5.640636e+001 1.118970e+002
      endloop
   endfacet
   facet normal 0.000000e+000 0.000000e+000 1.000000e+000
      outer loop
         vertex 0.000000e+000 5.640636e+001 1.118970e+002
         vertex 6.756400e+001 6.393197e+001 1.118970e+002
         vertex 0.000000e+000 6.393197e+001 1.118970e+002
      endloop
   endfacet
   facet normal 0.000000e+000 -1.000000e+000 0.000000e+000
      outer loop
         vertex 6.756400e+001 5.640636e+001 5.594849e+001
         vertex 6.756400e+001 5.640636e+001 1.118970e+002
         vertex 0.000000e+000 5.640636e+001 5.594849e+001
      endloop
   endfacet
   facet normal 0.000000e+000 -1.000000e+000 0.000000e+000
      outer loop
         vertex 0.000000e+000 5.640636e+001 5.594849e+001
         vertex 6.756400e+001 5.640636e+001 1.118970e+002
         vertex 0.000000e+000 5.640636e+001 1.118970e+002
      endloop
   endfacet
   facet normal 0.000000e+000 0.000000e+000 1.000000e+000
      outer loop
         vertex 6.756400e+001 0.000000e+000 5.594849e+001
         vertex 6.756400e+001 5.640636e+001 5.594849e+001
         vertex 0.000000e+000 0.000000e+000 5.594849e+001
      endloop
   endfacet
   facet normal 0.000000e+000 0.000000e+000 1.000000e+000
      outer loop
         vertex 0.000000e+000 0.000000e+000 5.594849e+001
         vertex 6.756400e+001 5.640636e+001 5.594849e+001
         vertex 0.000000e+000 5.640636e+001 5.594849e+001
      endloop
   endfacet
   facet normal 0.000000e+000 -1.000000e+000 0.000000e+000
      outer loop
         vertex 4.288506e+001 0.000000e+000 0.000000e+000
         vertex 6.756400e+001 0.000000e+000 0.000000e+000
         vertex 4.288506e+001 0.000000e+000 1.837626e+001
      endloop
   endfacet
   facet normal 0.000000e+000 -1.000000e+000 0.000000e+000
      outer loop
         vertex 4.288506e+001 0.000000e+000 1.837626e+001
         vertex 6.756400e+001 0.000000e+000 0.000000e+000
         vertex 6.756400e+001 0.000000e+000 5.594849e+001
      endloop
   endfacet
   facet normal 0.000000e+000 -1.000000e+000 0.000000e+000
      outer loop
         vertex 4.288506e+001 0.000000e+000 1.837626e+001
         vertex 6.756400e+001 0.000000e+000 5.594849e+001
         vertex 2.552530e+001 0.000000e+000 1.837626e+001
      endloop
   endfacet
   facet normal 0.000000e+000 -1.000000e+000 0.000000e+000
      outer loop
         vertex 2.552530e+001 0.000000e+000 1.837626e+001
         vertex 6.756400e+001 0.000000e+000 5.594849e+001
         vertex 0.000000e+000 0.000000e+000 5.594849e+001
      endloop
   endfacet
   facet normal 0.000000e+000 -1.000000e+000 0.000000e+000
      outer loop
         vertex 2.552530e+001 0.000000e+000 1.837626e+001
         vertex 0.000000e+000 0.000000e+000 5.594849e+001
         vertex 2.552530e+001 0.000000e+000 0.000000e+000
      endloop
   endfacet
   facet normal 0.000000e+000 -1.000000e+000 0.000000e+000
      outer loop
         vertex 2.552530e+001 0.000000e+000 0.000000e+000
         vertex 0.000000e+000 0.000000e+000 5.594849e+001
         vertex 0.000000e+000 0.000000e+000 0.000000e+000
      endloop
   endfacet
   facet normal 0.000000e+000 0.000000e+000 -1.000000e+000
      outer loop
         vertex 4.288506e+001 7.964482e+000 0.000000e+000
         vertex 6.756400e+001 7.964482e+000 0.000000e+000
         vertex 4.288506e+001 0.000000e+000 0.000000e+000
      endloop
   endfacet
   facet normal 0.000000e+000 0.000000e+000 -1.000000e+000
      outer loop
         vertex 4.288506e+001 0.000000e+000 0.000000e+000
         vertex 6.756400e+001 7.964482e+000 0.000000e+000
         vertex 6.756400e+001 0.000000e+000 0.000000e+000
      endloop
   endfacet
   facet normal 0.000000e+000 1.000000e+000 0.000000e+000
      outer loop
         vertex 2.552530e+001 7.964482e+000 0.000000e+000
         vertex 0.000000e+000 7.964482e+000 0.000000e+000
         vertex 2.552530e+001 7.964482e+000 1.837626e+001
      endloop
   endfacet
   facet normal 0.000000e+000 1.000000e+000 0.000000e+000
      outer loop
         vertex 2.552530e+001 7.964482e+000 1.837626e+001
         vertex 0.000000e+000 7.964482e+000 0.000000e+000
         vertex 0.000000e+000 7.964482e+000 4.948709e+001
      endloop
   endfacet
   facet normal 0.000000e+000 1.000000e+000 0.000000e+000
      outer loop
         vertex 2.552530e+001 7.964482e+000 1.837626e+001
         vertex 0.000000e+000 7.964482e+000 4.948709e+001
         vertex 4.288506e+001 7.964482e+000 1.837626e+001
      endloop
   endfacet
   facet normal 0.000000e+000 1.000000e+000 0.000000e+000
      outer loop
         vertex 4.288506e+001 7.964482e+000 1.837626e+001
         vertex 0.000000e+000 7.964482e+000 4.948709e+001
         vertex 6.756400e+001 7.964482e+000 4.948709e+001
      endloop
   endfacet
   facet normal 0.000000e+000 1.000000e+000 0.000000e+000
      outer loop
         vertex 4.288506e+001 7.964482e+000 1.837626e+001
         vertex 6.756400e+001 7.964482e+000 4.948709e+001
         vertex 4.288506e+001 7.964482e+000 0.000000e+000
      endloop
   endfacet
   facet normal 0.000000e+000 1.000000e+000 0.000000e+000
      outer loop
         vertex 4.288506e+001 7.964482e+000 0.000000e+000
         vertex 6.756400e+001 7.964482e+000 4.948709e+001
         vertex 6.756400e+001 7.964482e+000 0.000000e+000
      endloop
   endfacet
   facet normal 0.000000e+000 0.000000e+000 -1.000000e+000
      outer loop
         vertex 6.756400e+001 5.640636e+001 4.948709e+001
         vertex 6.756400e+001 7.964482e+000 4.948709e+001
         vertex 0.000000e+000 5.640636e+001 4.948709e+001
      endloop
   endfacet
   facet normal 0.000000e+000 0.000000e+000 -1.000000e+000
      outer loop
         vertex 0.000000e+000 5.640636e+001 4.948709e+001
         vertex 6.756400e+001 7.964482e+000 4.948709e+001
         vertex 0.000000e+000 7.964482e+000 4.948709e+001
      endloop
   endfacet
   facet normal 0.000000e+000 -1.000000e+000 0.000000e+000
      outer loop
         vertex 4.288506e+001 5.640636e+001 0.000000e+000
         vertex 6.756400e+001 5.640636e+001 0.000000e+000
         vertex 4.288506e+001 5.640636e+001 1.837626e+001
      endloop
   endfacet
   facet normal 0.000000e+000 -1.000000e+000 0.000000e+000
      outer loop
         vertex 4.288506e+001 5.640636e+001 1.837626e+001
         vertex 6.756400e+001 5.640636e+001 0.000000e+000
         vertex 6.756400e+001 5.640636e+001 4.948709e+001
      endloop
   endfacet
   facet normal 0.000000e+000 -1.000000e+000 0.000000e+000
      outer loop
         vertex 4.288506e+001 5.640636e+001 1.837626e+001
         vertex 6.756400e+001 5.640636e+001 4.948709e+001
         vertex 2.552530e+001 5.640636e+001 1.837626e+001
      endloop
   endfacet
   facet normal 0.000000e+000 -1.000000e+000 0.000000e+000
      outer loop
         vertex 2.552530e+001 5.640636e+001 1.837626e+001
         vertex 6.756400e+001 5.640636e+001 4.948709e+001
         vertex 0.000000e+000 5.640636e+001 4.948709e+001
      endloop
   endfacet
   facet normal 0.000000e+000 -1.000000e+000 0.000000e+000
      outer loop
         vertex 2.552530e+001 5.640636e+001 1.837626e+001
         vertex 0.000000e+000 5.640636e+001 4.948709e+001
         vertex 2.552530e+001 5.640636e+001 0.000000e+000
      endloop
   endfacet
   facet normal 0.000000e+000 -1.000000e+000 0.000000e+000
      outer loop
         vertex 2.552530e+001 5.640636e+001 0.000000e+000
         vertex 0.000000e+000 5.640636e+001 4.948709e+001
         vertex 0.000000e+000 5.640636e+001 0.000000e+000
      endloop
   endfacet
   facet normal 0.000000e+000 0.000000e+000 -1.000000e+000
      outer loop
         vertex 4.288506e+001 6.393197e+001 0.000000e+000
         vertex 6.756400e+001 6.393197e+001 0.000000e+000
         vertex 4.288506e+001 5.640636e+001 0.000000e+000
      endloop
   endfacet
   facet normal 0.000000e+000 0.000000e+000 -1.000000e+000
      outer loop
         vertex 4.288506e+001 5.640636e+001 0.000000e+000
         vertex 6.756400e+001 6.393197e+001 0.000000e+000
         vertex 6.756400e+001 5.640636e+001 0.000000e+000
      endloop
   endfacet
   facet normal 0.000000e+000 1.000000e+000 0.000000e+000
      outer loop
         vertex 6.756400e+001 6.393197e+001 0.000000e+000
         vertex 4.288506e+001 6.393197e+001 0.000000e+000
         vertex 4.288506e+001 6.393197e+001 1.837626e+001
      endloop
   endfacet
   facet normal 0.000000e+000 1.000000e+000 0.000000e+000
      outer loop
         vertex 2.552530e+001 6.393197e+001 0.000000e+000
         vertex 0.000000e+000 6.393197e+001 0.000000e+000
         vertex 2.552530e+001 6.393197e+001 1.837626e+001
      endloop
   endfacet
   facet normal 0.000000e+000 1.000000e+000 0.000000e+000
      outer loop
         vertex 2.552530e+001 6.393197e+001 1.837626e+001
         vertex 0.000000e+000 6.393197e+001 0.000000e+000
         vertex 0.000000e+000 6.393197e+001 1.118970e+002
      endloop
   endfacet
   facet normal 0.000000e+000 1.000000e+000 0.000000e+000
      outer loop
         vertex 2.552530e+001 6.393197e+001 1.837626e+001
         vertex 0.000000e+000 6.393197e+001 1.118970e+002
         vertex 4.288506e+001 6.393197e+001 1.837626e+001
      endloop
   endfacet
   facet normal 0.000000e+000 1.000000e+000 0.000000e+000
      outer loop
         vertex 4.288506e+001 6.393197e+001 1.837626e+001
         vertex 0.000000e+000 6.393197e+001 1.118970e+002
         vertex 6.756400e+001 6.393197e+001 1.118970e+002
      endloop
   endfacet
   facet normal 0.000000e+000 1.000000e+000 0.000000e+000
      outer loop
         vertex 4.288506e+001 6.393197e+001 1.837626e+001
         vertex 6.756400e+001 6.393197e+001 1.118970e+002
         vertex 6.756400e+001 6.393197e+001 0.000000e+000
      endloop
   endfacet
   facet normal 1.000000e+000 0.000000e+000 0.000000e+000
      outer loop
         vertex 6.756400e+001 6.393197e+001 0.000000e+000
         vertex 6.756400e+001 6.393197e+001 1.118970e+002
         vertex 6.756400e+001 5.640636e+001 5.594849e+001
      endloop
   endfacet
   facet normal 1.000000e+000 0.000000e+000 0.000000e+000
      outer loop
         vertex 6.756400e+001 5.640636e+001 5.594849e+001
         vertex 6.756400e+001 6.393197e+001 1.118970e+002
         vertex 6.756400e+001 5.640636e+001 1.118970e+002
      endloop
   endfacet
   facet normal 1.000000e+000 0.000000e+000 0.000000e+000
      outer loop
         vertex 6.756400e+001 5.640636e+001 0.000000e+000
         vertex 6.756400e+001 6.393197e+001 0.000000e+000
         vertex 6.756400e+001 5.640636e+001 4.948709e+001
      endloop
   endfacet
   facet normal 1.000000e+000 0.000000e+000 0.000000e+000
      outer loop
         vertex 6.756400e+001 5.640636e+001 4.948709e+001
         vertex 6.756400e+001 6.393197e+001 0.000000e+000
         vertex 6.756400e+001 5.640636e+001 5.594849e+001
      endloop
   endfacet
   facet normal 1.000000e+000 0.000000e+000 0.000000e+000
      outer loop
         vertex 6.756400e+001 5.640636e+001 4.948709e+001
         vertex 6.756400e+001 5.640636e+001 5.594849e+001
         vertex 6.756400e+001 7.964482e+000 4.948709e+001
      endloop
   endfacet
   facet normal 1.000000e+000 0.000000e+000 0.000000e+000
      outer loop
         vertex 6.756400e+001 7.964482e+000 4.948709e+001
         vertex 6.756400e+001 5.640636e+001 5.594849e+001
         vertex 6.756400e+001 0.000000e+000 5.594849e+001
      endloop
   endfacet
   facet normal 1.000000e+000 0.000000e+000 0.000000e+000
      outer loop
         vertex 6.756400e+001 7.964482e+000 4.948709e+001
         vertex 6.756400e+001 0.000000e+000 5.594849e+001
         vertex 6.756400e+001 7.964482e+000 0.000000e+000
      endloop
   endfacet
   facet normal 1.000000e+000 0.000000e+000 0.000000e+000
      outer loop
         vertex 6.756400e+001 7.964482e+000 0.000000e+000
         vertex 6.756400e+001 0.000000e+000 5.594849e+001
         vertex 6.756400e+001 0.000000e+000 0.000000e+000
      endloop
   endfacet
   facet normal -1.000000e+000 0.000000e+000 0.000000e+000
      outer loop
         vertex 0.000000e+000 6.393197e+001 1.118970e+002
         vertex 0.000000e+000 6.393197e+001 0.000000e+000
         vertex 0.000000e+000 5.640636e+001 4.948709e+001
      endloop
   endfacet
   facet normal -1.000000e+000 0.000000e+000 0.000000e+000
      outer loop
         vertex 0.000000e+000 5.640636e+001 4.948709e+001
         vertex 0.000000e+000 6.393197e+001 0.000000e+000
         vertex 0.000000e+000 5.640636e+001 0.000000e+000
      endloop
   endfacet
   facet normal -1.000000e+000 0.000000e+000 0.000000e+000
      outer loop
         vertex 0.000000e+000 5.640636e+001 1.118970e+002
         vertex 0.000000e+000 6.393197e+001 1.118970e+002
         vertex 0.000000e+000 5.640636e+001 5.594849e+001
      endloop
   endfacet
   facet normal -1.000000e+000 0.000000e+000 0.000000e+000
      outer loop
         vertex 0.000000e+000 5.640636e+001 5.594849e+001
         vertex 0.000000e+000 6.393197e+001 1.118970e+002
         vertex 0.000000e+000 5.640636e+001 4.948709e+001
      endloop
   endfacet
   facet normal -1.000000e+000 0.000000e+000 0.000000e+000
      outer loop
         vertex 0.000000e+000 5.640636e+001 5.594849e+001
         vertex 0.000000e+000 5.640636e+001 4.948709e+001
         vertex 0.000000e+000 0.000000e+000 5.594849e+001
      endloop
   endfacet
   facet normal -1.000000e+000 0.000000e+000 0.000000e+000
      outer loop
         vertex 0.000000e+000 0.000000e+000 5.594849e+001
         vertex 0.000000e+000 5.640636e+001 4.948709e+001
         vertex 0.000000e+000 7.964482e+000 4.948709e+001
      endloop
   endfacet
   facet normal -1.000000e+000 0.000000e+000 0.000000e+000
      outer loop
         vertex 0.000000e+000 0.000000e+000 5.594849e+001
         vertex 0.000000e+000 7.964482e+000 4.948709e+001
         vertex 0.000000e+000 0.000000e+000 0.000000e+000
      endloop
   endfacet
   facet normal -1.000000e+000 0.000000e+000 0.000000e+000
      outer loop
         vertex 0.000000e+000 0.000000e+000 0.000000e+000
         vertex 0.000000e+000 7.964482e+000 4.948709e+001
         vertex 0.000000e+000 7.964482e+000 0.000000e+000
      endloop
   endfacet
   facet normal -1.000000e+000 0.000000e+000 0.000000e+000
      outer loop
         vertex 4.288506e+001 6.393197e+001 0.000000e+000
         vertex 4.288506e+001 5.640636e+001 0.000000e+000
         vertex 4.288506e+001 6.393197e+001 1.837626e+001
      endloop
   endfacet
   facet normal -1.000000e+000 0.000000e+000 0.000000e+000
      outer loop
         vertex 4.288506e+001 6.393197e+001 1.837626e+001
         vertex 4.288506e+001 5.640636e+001 0.000000e+000
         vertex 4.288506e+001 5.640636e+001 1.837626e+001
      endloop
   endfacet
   facet normal 0.000000e+000 0.000000e+000 -1.000000e+000
      outer loop
         vertex 4.288506e+001 6.393197e+001 1.837626e+001
         vertex 4.288506e+001 5.640636e+001 1.837626e+001
         vertex 2.552530e+001 6.393197e+001 1.837626e+001
      endloop
   endfacet
   facet normal 0.000000e+000 0.000000e+000 -1.000000e+000
      outer loop
         vertex 2.552530e+001 6.393197e+001 1.837626e+001
         vertex 4.288506e+001 5.640636e+001 1.837626e+001
         vertex 2.552530e+001 5.640636e+001 1.837626e+001
      endloop
   endfacet
   facet normal 1.000000e+000 0.000000e+000 0.000000e+000
      outer loop
         vertex 2.552530e+001 6.393197e+001 1.837626e+001
         vertex 2.552530e+001 5.640636e+001 1.837626e+001
         vertex 2.552530e+001 6.393197e+001 0.000000e+000
      endloop
   endfacet
   facet normal 1.000000e+000 0.000000e+000 0.000000e+000
      outer loop
         vertex 2.552530e+001 6.393197e+001 0.000000e+000
         vertex 2.552530e+001 5.640636e+001 1.837626e+001
         vertex 2.552530e+001 5.640636e+001 0.000000e+000
      endloop
   endfacet
   facet normal 1.000000e+000 0.000000e+000 0.000000e+000
      outer loop
         vertex 2.552530e+001 0.000000e+000 0.000000e+000
         vertex 2.552530e+001 7.964482e+000 0.000000e+000
         vertex 2.552530e+001 0.000000e+000 1.837626e+001
      endloop
   endfacet
   facet normal 1.000000e+000 0.000000e+000 0.000000e+000
      outer loop
         vertex 2.552530e+001 0.000000e+000 1.837626e+001
         vertex 2.552530e+001 7.964482e+000 0.000000e+000
         vertex 2.552530e+001 7.964482e+000 1.837626e+001
      endloop
   endfacet
   facet normal 0.000000e+000 0.000000e+000 -1.000000e+000
      outer loop
         vertex 2.552530e+001 0.000000e+000 1.837626e+001
         vertex 2.552530e+001 7.964482e+000 1.837626e+001
         vertex 4.288506e+001 0.000000e+000 1.837626e+001
      endloop
   endfacet
   facet normal 0.000000e+000 0.000000e+000 -1.000000e+000
      outer loop
         vertex 4.288506e+001 0.000000e+000 1.837626e+001
         vertex 2.552530e+001 7.964482e+000 1.837626e+001
         vertex 4.288506e+001 7.964482e+000 1.837626e+001
      endloop
   endfacet
   facet normal -1.000000e+000 0.000000e+000 0.000000e+000
      outer loop
         vertex 4.288506e+001 0.000000e+000 1.837626e+001
         vertex 4.288506e+001 7.964482e+000 1.837626e+001
         vertex 4.288506e+001 0.000000e+000 0.000000e+000
      endloop
   endfacet
   facet normal -1.000000e+000 0.000000e+000 0.000000e+000
      outer loop
         vertex 4.288506e+001 0.000000e+000 0.000000e+000
         vertex 4.288506e+001 7.964482e+000 1.837626e+001
         vertex 4.288506e+001 7.964482e+000 0.000000e+000
      endloop
   endfacet
endsolid