solid test
   facet normal 0.000000e+000 0.000000e+000 -1.000000e+000
      outer loop
         vertex 1.826897e+001 2.235174e-005 1.270002e+001
         vertex 1.572897e+001 2.235174e-005 1.270002e+001
         vertex 1.826897e+001 2.190044e+001 1.270002e+001
      endloop
   endfacet
   facet normal 0.000000e+000 0.000000e+000 -1.000000e+000
      outer loop
         vertex 1.826897e+001 2.190044e+001 1.270002e+001
         vertex 1.572897e+001 2.235174e-005 1.270002e+001
         vertex 1.572897e+001 2.190044e+001 1.270002e+001
      endloop
   endfacet
   facet normal 0.000000e+000 0.000000e+000 -1.000000e+000
      outer loop
         vertex 1.572897e+001 5.755191e+001 1.270002e+001
         vertex 1.826897e+001 5.755191e+001 1.270002e+001
         vertex 1.572897e+001 3.513974e+001 1.270002e+001
      endloop
   endfacet
   facet normal 0.000000e+000 0.000000e+000 -1.000000e+000
      outer loop
         vertex 1.572897e+001 3.513974e+001 1.270002e+001
         vertex 1.826897e+001 5.755191e+001 1.270002e+001
         vertex 1.826897e+001 3.513974e+001 1.270002e+001
      endloop
   endfacet
   facet normal 0.000000e+000 0.000000e+000 1.000000e+000
      outer loop
         vertex 1.826897e+001 2.235174e-005 6.583601e+001
         vertex 1.826897e+001 5.755191e+001 6.583601e+001
         vertex 1.572897e+001 2.235174e-005 6.583601e+001
      endloop
   endfacet
   facet normal 0.000000e+000 0.000000e+000 1.000000e+000
      outer loop
         vertex 1.572897e+001 2.235174e-005 6.583601e+001
         vertex 1.826897e+001 5.755191e+001 6.583601e+001
         vertex 1.572897e+001 5.755191e+001 6.583601e+001
      endloop
   endfacet
   facet normal 0.000000e+000 -1.000000e+000 0.000000e+000
      outer loop
         vertex 1.826897e+001 2.235174e-005 1.270002e+001
         vertex 1.826897e+001 2.235174e-005 6.583601e+001
         vertex 1.572897e+001 2.235174e-005 1.270002e+001
      endloop
   endfacet
   facet normal 0.000000e+000 -1.000000e+000 0.000000e+000
      outer loop
         vertex 1.572897e+001 2.235174e-005 1.270002e+001
         vertex 1.826897e+001 2.235174e-005 6.583601e+001
         vertex 1.572897e+001 2.235174e-005 6.583601e+001
      endloop
   endfacet
   facet normal 0.000000e+000 1.000000e+000 0.000000e+000
      outer loop
         vertex 1.826897e+001 5.755191e+001 6.583601e+001
         vertex 1.826897e+001 5.755191e+001 1.270002e+001
         vertex 1.572897e+001 5.755191e+001 6.583601e+001
      endloop
   endfacet
   facet normal 0.000000e+000 1.000000e+000 0.000000e+000
      outer loop
         vertex 1.572897e+001 5.755191e+001 6.583601e+001
         vertex 1.826897e+001 5.755191e+001 1.270002e+001
         vertex 1.572897e+001 5.755191e+001 1.270002e+001
      endloop
   endfacet
   facet normal 1.000000e+000 0.000000e+000 0.000000e+000
      outer loop
         vertex 1.826897e+001 2.235174e-005 6.583601e+001
         vertex 1.826897e+001 2.235174e-005 1.270002e+001
         vertex 1.826897e+001 5.755191e+001 6.583601e+001
      endloop
   endfacet
   facet normal 1.000000e+000 0.000000e+000 0.000000e+000
      outer loop
         vertex 1.826897e+001 5.755191e+001 6.583601e+001
         vertex 1.826897e+001 2.235174e-005 1.270002e+001
         vertex 1.826897e+001 2.190044e+001 1.270002e+001
      endloop
   endfacet
   facet normal 1.000000e+000 0.000000e+000 0.000000e+000
      outer loop
         vertex 1.826897e+001 5.755191e+001 1.270002e+001
         vertex 1.826897e+001 5.755191e+001 6.583601e+001
         vertex 1.826897e+001 3.513974e+001 1.270002e+001
      endloop
   endfacet
   facet normal 1.000000e+000 0.000000e+000 0.000000e+000
      outer loop
         vertex 1.826897e+001 3.513974e+001 1.270002e+001
         vertex 1.826897e+001 5.755191e+001 6.583601e+001
         vertex 1.826897e+001 2.190044e+001 1.270002e+001
      endloop
   endfacet
   facet normal 1.000000e+000 0.000000e+000 0.000000e+000
      outer loop
         vertex 1.826897e+001 3.513974e+001 1.270002e+001
         vertex 1.826897e+001 2.190044e+001 1.270002e+001
         vertex 1.826897e+001 3.513974e+001 2.607703e-005
      endloop
   endfacet
   facet normal 1.000000e+000 0.000000e+000 0.000000e+000
      outer loop
         vertex 1.826897e+001 3.513974e+001 2.607703e-005
         vertex 1.826897e+001 2.190044e+001 1.270002e+001
         vertex 1.826897e+001 2.190044e+001 2.607703e-005
      endloop
   endfacet
   facet normal -1.000000e+000 0.000000e+000 0.000000e+000
      outer loop
         vertex 1.572897e+001 5.755191e+001 6.583601e+001
         vertex 1.572897e+001 5.755191e+001 1.270002e+001
         vertex 1.572897e+001 2.235174e-005 6.583601e+001
      endloop
   endfacet
   facet normal -1.000000e+000 0.000000e+000 0.000000e+000
      outer loop
         vertex 1.572897e+001 2.235174e-005 6.583601e+001
         vertex 1.572897e+001 5.755191e+001 1.270002e+001
         vertex 1.572897e+001 3.513974e+001 1.270002e+001
      endloop
   endfacet
   facet normal -1.000000e+000 0.000000e+000 0.000000e+000
      outer loop
         vertex 1.572897e+001 2.235174e-005 1.270002e+001
         vertex 1.572897e+001 2.235174e-005 6.583601e+001
         vertex 1.572897e+001 2.190044e+001 1.270002e+001
      endloop
   endfacet
   facet normal -1.000000e+000 0.000000e+000 0.000000e+000
      outer loop
         vertex 1.572897e+001 2.190044e+001 1.270002e+001
         vertex 1.572897e+001 2.235174e-005 6.583601e+001
         vertex 1.572897e+001 3.513974e+001 1.270002e+001
      endloop
   endfacet
   facet normal -1.000000e+000 0.000000e+000 0.000000e+000
      outer loop
         vertex 1.572897e+001 2.190044e+001 1.270002e+001
         vertex 1.572897e+001 3.513974e+001 1.270002e+001
         vertex 1.572897e+001 2.190044e+001 2.607703e-005
      endloop
   endfacet
   facet normal -1.000000e+000 0.000000e+000 0.000000e+000
      outer loop
         vertex 1.572897e+001 2.190044e+001 2.607703e-005
         vertex 1.572897e+001 3.513974e+001 1.270002e+001
         vertex 1.572897e+001 3.513974e+001 2.607703e-005
      endloop
   endfacet
   facet normal 0.000000e+000 1.000000e+000 0.000000e+000
      outer loop
         vertex 1.826897e+001 3.513974e+001 2.607703e-005
         vertex 1.572897e+001 3.513974e+001 2.607703e-005
         vertex 1.826897e+001 3.513974e+001 1.270002e+001
      endloop
   endfacet
   facet normal 0.000000e+000 1.000000e+000 0.000000e+000
      outer loop
         vertex 1.826897e+001 3.513974e+001 1.270002e+001
         vertex 1.572897e+001 3.513974e+001 2.607703e-005
         vertex 1.572897e+001 3.513974e+001 1.270002e+001
      endloop
   endfacet
   facet normal 0.000000e+000 -1.000000e+000 0.000000e+000
      outer loop
         vertex 1.572897e+001 2.190044e+001 2.607703e-005
         vertex 1.826897e+001 2.190044e+001 2.607703e-005
         vertex 1.572897e+001 2.190044e+001 1.270002e+001
      endloop
   endfacet
   facet normal 0.000000e+000 -1.000000e+000 0.000000e+000
      outer loop
         vertex 1.572897e+001 2.190044e+001 1.270002e+001
         vertex 1.826897e+001 2.190044e+001 2.607703e-005
         vertex 1.826897e+001 2.190044e+001 1.270002e+001
      endloop
   endfacet
   facet normal 0.000000e+000 0.000000e+000 -1.000000e+000
      outer loop
         vertex 1.826897e+001 3.513974e+001 2.607703e-005
         vertex 1.826897e+001 2.190044e+001 2.607703e-005
         vertex 1.572897e+001 3.513974e+001 2.607703e-005
      endloop
   endfacet
   facet normal 0.000000e+000 0.000000e+000 -1.000000e+000
      outer loop
         vertex 1.572897e+001 3.513974e+001 2.607703e-005
         vertex 1.826897e+001 2.190044e+001 2.607703e-005
         vertex 1.572897e+001 2.190044e+001 2.607703e-005
      endloop
   endfacet
endsolid