solid test
   facet normal 0.000000e+000 0.000000e+000 -1.000000e+000
      outer loop
         vertex 7.519087e+000 0.000000e+000 0.000000e+000
         vertex 0.000000e+000 0.000000e+000 0.000000e+000
         vertex 7.519087e+000 7.730076e+000 0.000000e+000
      endloop
   endfacet
   facet normal 0.000000e+000 0.000000e+000 -1.000000e+000
      outer loop
         vertex 7.519087e+000 7.730076e+000 0.000000e+000
         vertex 0.000000e+000 0.000000e+000 0.000000e+000
         vertex 0.000000e+000 7.730076e+000 0.000000e+000
      endloop
   endfacet
   facet normal 0.000000e+000 1.000000e+000 0.000000e+000
      outer loop
         vertex 7.519087e+000 7.730076e+000 0.000000e+000
         vertex 1.387779e-014 7.730076e+000 0.000000e+000
         vertex 7.519087e+000 7.730076e+000 4.583033e+001
      endloop
   endfacet
   facet normal 0.000000e+000 1.000000e+000 0.000000e+000
      outer loop
         vertex 7.519087e+000 7.730076e+000 4.583033e+001
         vertex 1.387779e-014 7.730076e+000 0.000000e+000
         vertex 1.387779e-014 7.730076e+000 4.583033e+001
      endloop
   endfacet
   facet normal 0.000000e+000 0.000000e+000 -1.000000e+000
      outer loop
         vertex 7.519087e+000 7.730076e+000 4.583033e+001
         vertex 0.000000e+000 7.730076e+000 4.583033e+001
         vertex 7.519087e+000 5.482161e+001 4.583033e+001
      endloop
   endfacet
   facet normal 0.000000e+000 0.000000e+000 -1.000000e+000
      outer loop
         vertex 7.519087e+000 5.482161e+001 4.583033e+001
         vertex 0.000000e+000 7.730076e+000 4.583033e+001
         vertex 0.000000e+000 5.482161e+001 4.583033e+001
      endloop
   endfacet
   facet normal 0.000000e+000 -1.000000e+000 0.000000e+000
      outer loop
         vertex 7.519087e+000 5.482161e+001 4.583033e+001
         vertex 1.387779e-014 5.482161e+001 4.583033e+001
         vertex 7.519087e+000 5.482161e+001 0.000000e+000
      endloop
   endfacet
   facet normal 0.000000e+000 -1.000000e+000 0.000000e+000
      outer loop
         vertex 7.519087e+000 5.482161e+001 0.000000e+000
         vertex 1.387779e-014 5.482161e+001 4.583033e+001
         vertex 1.387779e-014 5.482161e+001 0.000000e+000
      endloop
   endfacet
   facet normal 0.000000e+000 0.000000e+000 -1.000000e+000
      outer loop
         vertex 7.519087e+000 5.482161e+001 0.000000e+000
         vertex 0.000000e+000 5.482161e+001 0.000000e+000
         vertex 7.519087e+000 6.195693e+001 0.000000e+000
      endloop
   endfacet
   facet normal 0.000000e+000 0.000000e+000 -1.000000e+000
      outer loop
         vertex 7.519087e+000 6.195693e+001 0.000000e+000
         vertex 0.000000e+000 5.482161e+001 0.000000e+000
         vertex 0.000000e+000 6.195693e+001 0.000000e+000
      endloop
   endfacet
   facet normal 0.000000e+000 0.000000e+000 1.000000e+000
      outer loop
         vertex 5.918200e+001 5.482161e+001 1.049237e+002
         vertex 5.918200e+001 6.195693e+001 1.049237e+002
         vertex 0.000000e+000 5.482161e+001 1.049237e+002
      endloop
   endfacet
   facet normal 0.000000e+000 0.000000e+000 1.000000e+000
      outer loop
         vertex 0.000000e+000 5.482161e+001 1.049237e+002
         vertex 5.918200e+001 6.195693e+001 1.049237e+002
         vertex 0.000000e+000 6.195693e+001 1.049237e+002
      endloop
   endfacet
   facet normal 0.000000e+000 -1.000000e+000 0.000000e+000
      outer loop
         vertex 7.519087e+000 5.482161e+001 9.267640e+001
         vertex 7.519087e+000 5.482161e+001 1.019916e+002
         vertex 1.387779e-014 5.482161e+001 1.049237e+002
      endloop
   endfacet
   facet normal 0.000000e+000 -1.000000e+000 0.000000e+000
      outer loop
         vertex 5.299777e+001 5.482161e+001 9.267640e+001
         vertex 5.918200e+001 5.482161e+001 5.246185e+001
         vertex 5.918200e+001 5.482161e+001 1.049237e+002
      endloop
   endfacet
   facet normal 0.000000e+000 -1.000000e+000 0.000000e+000
      outer loop
         vertex 1.387779e-014 5.482161e+001 1.049237e+002
         vertex 7.519087e+000 5.482161e+001 1.019916e+002
         vertex 5.918200e+001 5.482161e+001 1.049237e+002
      endloop
   endfacet
   facet normal 0.000000e+000 -1.000000e+000 0.000000e+000
      outer loop
         vertex 5.918200e+001 5.482161e+001 1.049237e+002
         vertex 7.519087e+000 5.482161e+001 1.019916e+002
         vertex 5.299777e+001 5.482161e+001 1.019916e+002
      endloop
   endfacet
   facet normal 0.000000e+000 -1.000000e+000 0.000000e+000
      outer loop
         vertex 5.918200e+001 5.482161e+001 1.049237e+002
         vertex 5.299777e+001 5.482161e+001 1.019916e+002
         vertex 5.299777e+001 5.482161e+001 9.267640e+001
      endloop
   endfacet
   facet normal 0.000000e+000 -1.000000e+000 0.000000e+000
      outer loop
         vertex 5.918200e+001 5.482161e+001 5.246185e+001
         vertex 7.519087e+000 5.482161e+001 7.304729e+001
         vertex 1.387779e-014 5.482161e+001 5.246185e+001
      endloop
   endfacet
   facet normal 0.000000e+000 -1.000000e+000 0.000000e+000
      outer loop
         vertex 1.387779e-014 5.482161e+001 5.246185e+001
         vertex 7.519087e+000 5.482161e+001 7.304729e+001
         vertex 7.519087e+000 5.482161e+001 8.287337e+001
      endloop
   endfacet
   facet normal 0.000000e+000 -1.000000e+000 0.000000e+000
      outer loop
         vertex 1.387779e-014 5.482161e+001 1.049237e+002
         vertex 1.387779e-014 5.482161e+001 5.246185e+001
         vertex 7.519087e+000 5.482161e+001 9.267640e+001
      endloop
   endfacet
   facet normal 0.000000e+000 -1.000000e+000 0.000000e+000
      outer loop
         vertex 7.519087e+000 5.482161e+001 9.267640e+001
         vertex 1.387779e-014 5.482161e+001 5.246185e+001
         vertex 7.519087e+000 5.482161e+001 8.287337e+001
      endloop
   endfacet
   facet normal 0.000000e+000 -1.000000e+000 0.000000e+000
      outer loop
         vertex 7.519087e+000 5.482161e+001 9.267640e+001
         vertex 7.519087e+000 5.482161e+001 8.287337e+001
         vertex 5.299777e+001 5.482161e+001 9.267640e+001
      endloop
   endfacet
   facet normal 0.000000e+000 -1.000000e+000 0.000000e+000
      outer loop
         vertex 5.299777e+001 5.482161e+001 9.267640e+001
         vertex 7.519087e+000 5.482161e+001 8.287337e+001
         vertex 5.299777e+001 5.482161e+001 8.287337e+001
      endloop
   endfacet
   facet normal 0.000000e+000 -1.000000e+000 0.000000e+000
      outer loop
         vertex 5.299777e+001 5.482161e+001 9.267640e+001
         vertex 5.299777e+001 5.482161e+001 8.287337e+001
         vertex 5.918200e+001 5.482161e+001 5.246185e+001
      endloop
   endfacet
   facet normal 0.000000e+000 -1.000000e+000 0.000000e+000
      outer loop
         vertex 5.918200e+001 5.482161e+001 5.246185e+001
         vertex 5.299777e+001 5.482161e+001 8.287337e+001
         vertex 5.299777e+001 5.482161e+001 7.304729e+001
      endloop
   endfacet
   facet normal 0.000000e+000 -1.000000e+000 0.000000e+000
      outer loop
         vertex 5.918200e+001 5.482161e+001 5.246185e+001
         vertex 5.299777e+001 5.482161e+001 7.304729e+001
         vertex 7.519087e+000 5.482161e+001 7.304729e+001
      endloop
   endfacet
   facet normal 0.000000e+000 0.000000e+000 1.000000e+000
      outer loop
         vertex 5.918200e+001 0.000000e+000 5.246185e+001
         vertex 5.918200e+001 5.482161e+001 5.246185e+001
         vertex 0.000000e+000 0.000000e+000 5.246185e+001
      endloop
   endfacet
   facet normal 0.000000e+000 0.000000e+000 1.000000e+000
      outer loop
         vertex 0.000000e+000 0.000000e+000 5.246185e+001
         vertex 5.918200e+001 5.482161e+001 5.246185e+001
         vertex 0.000000e+000 5.482161e+001 5.246185e+001
      endloop
   endfacet
   facet normal 0.000000e+000 -1.000000e+000 0.000000e+000
      outer loop
         vertex 5.299777e+001 0.000000e+000 0.000000e+000
         vertex 5.918200e+001 0.000000e+000 0.000000e+000
         vertex 5.299777e+001 0.000000e+000 4.646315e+001
      endloop
   endfacet
   facet normal 0.000000e+000 -1.000000e+000 0.000000e+000
      outer loop
         vertex 5.299777e+001 0.000000e+000 4.646315e+001
         vertex 5.918200e+001 0.000000e+000 0.000000e+000
         vertex 5.918200e+001 0.000000e+000 5.246185e+001
      endloop
   endfacet
   facet normal 0.000000e+000 -1.000000e+000 0.000000e+000
      outer loop
         vertex 5.299777e+001 0.000000e+000 4.646315e+001
         vertex 5.918200e+001 0.000000e+000 5.246185e+001
         vertex 7.519087e+000 0.000000e+000 4.646315e+001
      endloop
   endfacet
   facet normal 0.000000e+000 -1.000000e+000 0.000000e+000
      outer loop
         vertex 7.519087e+000 0.000000e+000 4.646315e+001
         vertex 5.918200e+001 0.000000e+000 5.246185e+001
         vertex 1.387779e-014 0.000000e+000 5.246185e+001
      endloop
   endfacet
   facet normal 0.000000e+000 -1.000000e+000 0.000000e+000
      outer loop
         vertex 7.519087e+000 0.000000e+000 4.646315e+001
         vertex 1.387779e-014 0.000000e+000 5.246185e+001
         vertex 7.519087e+000 0.000000e+000 0.000000e+000
      endloop
   endfacet
   facet normal 0.000000e+000 -1.000000e+000 0.000000e+000
      outer loop
         vertex 7.519087e+000 0.000000e+000 0.000000e+000
         vertex 1.387779e-014 0.000000e+000 5.246185e+001
         vertex 1.387779e-014 0.000000e+000 0.000000e+000
      endloop
   endfacet
   facet normal 0.000000e+000 0.000000e+000 -1.000000e+000
      outer loop
         vertex 5.299777e+001 7.730076e+000 0.000000e+000
         vertex 5.918200e+001 7.730076e+000 0.000000e+000
         vertex 5.299777e+001 0.000000e+000 0.000000e+000
      endloop
   endfacet
   facet normal 0.000000e+000 0.000000e+000 -1.000000e+000
      outer loop
         vertex 5.299777e+001 0.000000e+000 0.000000e+000
         vertex 5.918200e+001 7.730076e+000 0.000000e+000
         vertex 5.918200e+001 0.000000e+000 0.000000e+000
      endloop
   endfacet
   facet normal 0.000000e+000 1.000000e+000 0.000000e+000
      outer loop
         vertex 5.299777e+001 7.730076e+000 4.583033e+001
         vertex 5.918200e+001 7.730076e+000 4.583033e+001
         vertex 5.299777e+001 7.730076e+000 0.000000e+000
      endloop
   endfacet
   facet normal 0.000000e+000 1.000000e+000 0.000000e+000
      outer loop
         vertex 5.299777e+001 7.730076e+000 0.000000e+000
         vertex 5.918200e+001 7.730076e+000 4.583033e+001
         vertex 5.918200e+001 7.730076e+000 0.000000e+000
      endloop
   endfacet
   facet normal 0.000000e+000 0.000000e+000 -1.000000e+000
      outer loop
         vertex 5.299777e+001 5.482161e+001 4.583033e+001
         vertex 5.918200e+001 5.482161e+001 4.583033e+001
         vertex 5.299777e+001 7.730076e+000 4.583033e+001
      endloop
   endfacet
   facet normal 0.000000e+000 0.000000e+000 -1.000000e+000
      outer loop
         vertex 5.299777e+001 7.730076e+000 4.583033e+001
         vertex 5.918200e+001 5.482161e+001 4.583033e+001
         vertex 5.918200e+001 7.730076e+000 4.583033e+001
      endloop
   endfacet
   facet normal 0.000000e+000 -1.000000e+000 0.000000e+000
      outer loop
         vertex 5.299777e+001 5.482161e+001 0.000000e+000
         vertex 5.918200e+001 5.482161e+001 0.000000e+000
         vertex 5.299777e+001 5.482161e+001 4.583033e+001
      endloop
   endfacet
   facet normal 0.000000e+000 -1.000000e+000 0.000000e+000
      outer loop
         vertex 5.299777e+001 5.482161e+001 4.583033e+001
         vertex 5.918200e+001 5.482161e+001 0.000000e+000
         vertex 5.918200e+001 5.482161e+001 4.583033e+001
      endloop
   endfacet
   facet normal 0.000000e+000 0.000000e+000 -1.000000e+000
      outer loop
         vertex 5.299777e+001 6.195693e+001 0.000000e+000
         vertex 5.918200e+001 6.195693e+001 0.000000e+000
         vertex 5.299777e+001 5.482161e+001 0.000000e+000
      endloop
   endfacet
   facet normal 0.000000e+000 0.000000e+000 -1.000000e+000
      outer loop
         vertex 5.299777e+001 5.482161e+001 0.000000e+000
         vertex 5.918200e+001 6.195693e+001 0.000000e+000
         vertex 5.918200e+001 5.482161e+001 0.000000e+000
      endloop
   endfacet
   facet normal 0.000000e+000 1.000000e+000 0.000000e+000
      outer loop
         vertex 7.519087e+000 6.195693e+001 0.000000e+000
         vertex 1.387779e-014 6.195693e+001 0.000000e+000
         vertex 7.519087e+000 6.195693e+001 4.646315e+001
      endloop
   endfacet
   facet normal 0.000000e+000 1.000000e+000 0.000000e+000
      outer loop
         vertex 7.519087e+000 6.195693e+001 4.646315e+001
         vertex 1.387779e-014 6.195693e+001 0.000000e+000
         vertex 1.387779e-014 6.195693e+001 1.049237e+002
      endloop
   endfacet
   facet normal 0.000000e+000 1.000000e+000 0.000000e+000
      outer loop
         vertex 7.519087e+000 6.195693e+001 7.304729e+001
         vertex 5.299777e+001 6.195693e+001 7.304729e+001
         vertex 5.299777e+001 6.195693e+001 4.646315e+001
      endloop
   endfacet
   facet normal 0.000000e+000 1.000000e+000 0.000000e+000
      outer loop
         vertex 5.299777e+001 6.195693e+001 8.287337e+001
         vertex 5.918200e+001 6.195693e+001 1.049237e+002
         vertex 5.299777e+001 6.195693e+001 7.304729e+001
      endloop
   endfacet
   facet normal 0.000000e+000 1.000000e+000 0.000000e+000
      outer loop
         vertex 5.299777e+001 6.195693e+001 7.304729e+001
         vertex 5.918200e+001 6.195693e+001 1.049237e+002
         vertex 5.918200e+001 6.195693e+001 0.000000e+000
      endloop
   endfacet
   facet normal 0.000000e+000 1.000000e+000 0.000000e+000
      outer loop
         vertex 5.299777e+001 6.195693e+001 7.304729e+001
         vertex 5.918200e+001 6.195693e+001 0.000000e+000
         vertex 5.299777e+001 6.195693e+001 4.646315e+001
      endloop
   endfacet
   facet normal 0.000000e+000 1.000000e+000 0.000000e+000
      outer loop
         vertex 5.299777e+001 6.195693e+001 4.646315e+001
         vertex 5.918200e+001 6.195693e+001 0.000000e+000
         vertex 5.299777e+001 6.195693e+001 0.000000e+000
      endloop
   endfacet
   facet normal 0.000000e+000 1.000000e+000 0.000000e+000
      outer loop
         vertex 5.299777e+001 6.195693e+001 4.646315e+001
         vertex 7.519087e+000 6.195693e+001 4.646315e+001
         vertex 7.519087e+000 6.195693e+001 7.304729e+001
      endloop
   endfacet
   facet normal 0.000000e+000 1.000000e+000 0.000000e+000
      outer loop
         vertex 7.519087e+000 6.195693e+001 7.304729e+001
         vertex 7.519087e+000 6.195693e+001 4.646315e+001
         vertex 1.387779e-014 6.195693e+001 1.049237e+002
      endloop
   endfacet
   facet normal 0.000000e+000 1.000000e+000 0.000000e+000
      outer loop
         vertex 7.519087e+000 6.195693e+001 7.304729e+001
         vertex 1.387779e-014 6.195693e+001 1.049237e+002
         vertex 7.519087e+000 6.195693e+001 8.287337e+001
      endloop
   endfacet
   facet normal 0.000000e+000 1.000000e+000 0.000000e+000
      outer loop
         vertex 7.519087e+000 6.195693e+001 8.287337e+001
         vertex 1.387779e-014 6.195693e+001 1.049237e+002
         vertex 7.519087e+000 6.195693e+001 9.267640e+001
      endloop
   endfacet
   facet normal 0.000000e+000 1.000000e+000 0.000000e+000
      outer loop
         vertex 7.519087e+000 6.195693e+001 8.287337e+001
         vertex 7.519087e+000 6.195693e+001 9.267640e+001
         vertex 5.299777e+001 6.195693e+001 8.287337e+001
      endloop
   endfacet
   facet normal 0.000000e+000 1.000000e+000 0.000000e+000
      outer loop
         vertex 5.299777e+001 6.195693e+001 8.287337e+001
         vertex 7.519087e+000 6.195693e+001 9.267640e+001
         vertex 5.299777e+001 6.195693e+001 9.267640e+001
      endloop
   endfacet
   facet normal 0.000000e+000 1.000000e+000 0.000000e+000
      outer loop
         vertex 5.299777e+001 6.195693e+001 8.287337e+001
         vertex 5.299777e+001 6.195693e+001 9.267640e+001
         vertex 5.918200e+001 6.195693e+001 1.049237e+002
      endloop
   endfacet
   facet normal 0.000000e+000 1.000000e+000 0.000000e+000
      outer loop
         vertex 5.918200e+001 6.195693e+001 1.049237e+002
         vertex 5.299777e+001 6.195693e+001 9.267640e+001
         vertex 5.299777e+001 6.195693e+001 1.019916e+002
      endloop
   endfacet
   facet normal 0.000000e+000 1.000000e+000 0.000000e+000
      outer loop
         vertex 5.918200e+001 6.195693e+001 1.049237e+002
         vertex 5.299777e+001 6.195693e+001 1.019916e+002
         vertex 1.387779e-014 6.195693e+001 1.049237e+002
      endloop
   endfacet
   facet normal 0.000000e+000 1.000000e+000 0.000000e+000
      outer loop
         vertex 1.387779e-014 6.195693e+001 1.049237e+002
         vertex 5.299777e+001 6.195693e+001 1.019916e+002
         vertex 7.519087e+000 6.195693e+001 1.019916e+002
      endloop
   endfacet
   facet normal 0.000000e+000 1.000000e+000 0.000000e+000
      outer loop
         vertex 1.387779e-014 6.195693e+001 1.049237e+002
         vertex 7.519087e+000 6.195693e+001 1.019916e+002
         vertex 7.519087e+000 6.195693e+001 9.267640e+001
      endloop
   endfacet
   facet normal 1.000000e+000 0.000000e+000 0.000000e+000
      outer loop
         vertex 5.918200e+001 6.195693e+001 0.000000e+000
         vertex 5.918200e+001 6.195693e+001 1.049237e+002
         vertex 5.918200e+001 5.482161e+001 5.246185e+001
      endloop
   endfacet
   facet normal 1.000000e+000 0.000000e+000 0.000000e+000
      outer loop
         vertex 5.918200e+001 5.482161e+001 5.246185e+001
         vertex 5.918200e+001 6.195693e+001 1.049237e+002
         vertex 5.918200e+001 5.482161e+001 1.049237e+002
      endloop
   endfacet
   facet normal 1.000000e+000 0.000000e+000 0.000000e+000
      outer loop
         vertex 5.918200e+001 5.482161e+001 0.000000e+000
         vertex 5.918200e+001 6.195693e+001 0.000000e+000
         vertex 5.918200e+001 5.482161e+001 4.583033e+001
      endloop
   endfacet
   facet normal 1.000000e+000 0.000000e+000 0.000000e+000
      outer loop
         vertex 5.918200e+001 5.482161e+001 4.583033e+001
         vertex 5.918200e+001 6.195693e+001 0.000000e+000
         vertex 5.918200e+001 5.482161e+001 5.246185e+001
      endloop
   endfacet
   facet normal 1.000000e+000 0.000000e+000 0.000000e+000
      outer loop
         vertex 5.918200e+001 5.482161e+001 4.583033e+001
         vertex 5.918200e+001 5.482161e+001 5.246185e+001
         vertex 5.918200e+001 7.730076e+000 4.583033e+001
      endloop
   endfacet
   facet normal 1.000000e+000 0.000000e+000 0.000000e+000
      outer loop
         vertex 5.918200e+001 7.730076e+000 4.583033e+001
         vertex 5.918200e+001 5.482161e+001 5.246185e+001
         vertex 5.918200e+001 0.000000e+000 5.246185e+001
      endloop
   endfacet
   facet normal 1.000000e+000 0.000000e+000 0.000000e+000
      outer loop
         vertex 5.918200e+001 7.730076e+000 4.583033e+001
         vertex 5.918200e+001 0.000000e+000 5.246185e+001
         vertex 5.918200e+001 7.730076e+000 0.000000e+000
      endloop
   endfacet
   facet normal 1.000000e+000 0.000000e+000 0.000000e+000
      outer loop
         vertex 5.918200e+001 7.730076e+000 0.000000e+000
         vertex 5.918200e+001 0.000000e+000 5.246185e+001
         vertex 5.918200e+001 0.000000e+000 0.000000e+000
      endloop
   endfacet
   facet normal -1.000000e+000 0.000000e+000 0.000000e+000
      outer loop
         vertex 0.000000e+000 6.195693e+001 1.049237e+002
         vertex 0.000000e+000 6.195693e+001 0.000000e+000
         vertex 0.000000e+000 5.482161e+001 4.583033e+001
      endloop
   endfacet
   facet normal -1.000000e+000 0.000000e+000 0.000000e+000
      outer loop
         vertex 0.000000e+000 5.482161e+001 4.583033e+001
         vertex 0.000000e+000 6.195693e+001 0.000000e+000
         vertex 0.000000e+000 5.482161e+001 0.000000e+000
      endloop
   endfacet
   facet normal -1.000000e+000 0.000000e+000 0.000000e+000
      outer loop
         vertex 0.000000e+000 5.482161e+001 1.049237e+002
         vertex 0.000000e+000 6.195693e+001 1.049237e+002
         vertex 0.000000e+000 5.482161e+001 5.246185e+001
      endloop
   endfacet
   facet normal -1.000000e+000 0.000000e+000 0.000000e+000
      outer loop
         vertex 0.000000e+000 5.482161e+001 5.246185e+001
         vertex 0.000000e+000 6.195693e+001 1.049237e+002
         vertex 0.000000e+000 5.482161e+001 4.583033e+001
      endloop
   endfacet
   facet normal -1.000000e+000 0.000000e+000 0.000000e+000
      outer loop
         vertex 0.000000e+000 5.482161e+001 5.246185e+001
         vertex 0.000000e+000 5.482161e+001 4.583033e+001
         vertex 0.000000e+000 0.000000e+000 5.246185e+001
      endloop
   endfacet
   facet normal -1.000000e+000 0.000000e+000 0.000000e+000
      outer loop
         vertex 0.000000e+000 0.000000e+000 5.246185e+001
         vertex 0.000000e+000 5.482161e+001 4.583033e+001
         vertex 0.000000e+000 7.730076e+000 4.583033e+001
      endloop
   endfacet
   facet normal -1.000000e+000 0.000000e+000 0.000000e+000
      outer loop
         vertex 0.000000e+000 0.000000e+000 5.246185e+001
         vertex 0.000000e+000 7.730076e+000 4.583033e+001
         vertex 0.000000e+000 0.000000e+000 0.000000e+000
      endloop
   endfacet
   facet normal -1.000000e+000 0.000000e+000 0.000000e+000
      outer loop
         vertex 0.000000e+000 0.000000e+000 0.000000e+000
         vertex 0.000000e+000 7.730076e+000 4.583033e+001
         vertex 0.000000e+000 7.730076e+000 0.000000e+000
      endloop
   endfacet
   facet normal 1.000000e+000 0.000000e+000 0.000000e+000
      outer loop
         vertex 7.519087e+000 5.482161e+001 0.000000e+000
         vertex 7.519087e+000 6.195693e+001 0.000000e+000
         vertex 7.519087e+000 5.482161e+001 4.583033e+001
      endloop
   endfacet
   facet normal 1.000000e+000 0.000000e+000 0.000000e+000
      outer loop
         vertex 7.519087e+000 5.482161e+001 4.583033e+001
         vertex 7.519087e+000 6.195693e+001 0.000000e+000
         vertex 7.519087e+000 6.195693e+001 4.646315e+001
      endloop
   endfacet
   facet normal 1.000000e+000 0.000000e+000 0.000000e+000
      outer loop
         vertex 7.519087e+000 5.482161e+001 4.583033e+001
         vertex 7.519087e+000 6.195693e+001 4.646315e+001
         vertex 7.519087e+000 7.730076e+000 4.583033e+001
      endloop
   endfacet
   facet normal 1.000000e+000 0.000000e+000 0.000000e+000
      outer loop
         vertex 7.519087e+000 7.730076e+000 4.583033e+001
         vertex 7.519087e+000 6.195693e+001 4.646315e+001
         vertex 7.519087e+000 0.000000e+000 4.646315e+001
      endloop
   endfacet
   facet normal 1.000000e+000 0.000000e+000 0.000000e+000
      outer loop
         vertex 7.519087e+000 7.730076e+000 4.583033e+001
         vertex 7.519087e+000 0.000000e+000 4.646315e+001
         vertex 7.519087e+000 7.730076e+000 0.000000e+000
      endloop
   endfacet
   facet normal 1.000000e+000 0.000000e+000 0.000000e+000
      outer loop
         vertex 7.519087e+000 7.730076e+000 0.000000e+000
         vertex 7.519087e+000 0.000000e+000 4.646315e+001
         vertex 7.519087e+000 0.000000e+000 0.000000e+000
      endloop
   endfacet
   facet normal 0.000000e+000 0.000000e+000 -1.000000e+000
      outer loop
         vertex 7.519087e+000 0.000000e+000 4.646315e+001
         vertex 7.519087e+000 6.195693e+001 4.646315e+001
         vertex 5.299777e+001 0.000000e+000 4.646315e+001
      endloop
   endfacet
   facet normal 0.000000e+000 0.000000e+000 -1.000000e+000
      outer loop
         vertex 5.299777e+001 0.000000e+000 4.646315e+001
         vertex 7.519087e+000 6.195693e+001 4.646315e+001
         vertex 5.299777e+001 6.195693e+001 4.646315e+001
      endloop
   endfacet
   facet normal -1.000000e+000 0.000000e+000 0.000000e+000
      outer loop
         vertex 5.299777e+001 7.730076e+000 4.583033e+001
         vertex 5.299777e+001 7.730076e+000 0.000000e+000
         vertex 5.299777e+001 0.000000e+000 0.000000e+000
      endloop
   endfacet
   facet normal -1.000000e+000 0.000000e+000 0.000000e+000
      outer loop
         vertex 5.299777e+001 6.195693e+001 4.646315e+001
         vertex 5.299777e+001 6.195693e+001 0.000000e+000
         vertex 5.299777e+001 5.482161e+001 0.000000e+000
      endloop
   endfacet
   facet normal -1.000000e+000 0.000000e+000 0.000000e+000
      outer loop
         vertex 5.299777e+001 5.482161e+001 0.000000e+000
         vertex 5.299777e+001 5.482161e+001 4.583033e+001
         vertex 5.299777e+001 6.195693e+001 4.646315e+001
      endloop
   endfacet
   facet normal -1.000000e+000 0.000000e+000 0.000000e+000
      outer loop
         vertex 5.299777e+001 6.195693e+001 4.646315e+001
         vertex 5.299777e+001 5.482161e+001 4.583033e+001
         vertex 5.299777e+001 7.730076e+000 4.583033e+001
      endloop
   endfacet
   facet normal -1.000000e+000 0.000000e+000 0.000000e+000
      outer loop
         vertex 5.299777e+001 6.195693e+001 4.646315e+001
         vertex 5.299777e+001 7.730076e+000 4.583033e+001
         vertex 5.299777e+001 0.000000e+000 4.646315e+001
      endloop
   endfacet
   facet normal -1.000000e+000 0.000000e+000 0.000000e+000
      outer loop
         vertex 5.299777e+001 0.000000e+000 4.646315e+001
         vertex 5.299777e+001 7.730076e+000 4.583033e+001
         vertex 5.299777e+001 0.000000e+000 0.000000e+000
      endloop
   endfacet
   facet normal 1.000000e+000 0.000000e+000 0.000000e+000
      outer loop
         vertex 7.519087e+000 6.195693e+001 1.019916e+002
         vertex 7.519087e+000 5.482161e+001 1.019916e+002
         vertex 7.519087e+000 6.195693e+001 9.267640e+001
      endloop
   endfacet
   facet normal 1.000000e+000 0.000000e+000 0.000000e+000
      outer loop
         vertex 7.519087e+000 6.195693e+001 9.267640e+001
         vertex 7.519087e+000 5.482161e+001 1.019916e+002
         vertex 7.519087e+000 5.482161e+001 9.267640e+001
      endloop
   endfacet
   facet normal 0.000000e+000 0.000000e+000 -1.000000e+000
      outer loop
         vertex 5.299777e+001 6.195693e+001 1.019916e+002
         vertex 5.299777e+001 5.482161e+001 1.019916e+002
         vertex 7.519087e+000 6.195693e+001 1.019916e+002
      endloop
   endfacet
   facet normal 0.000000e+000 0.000000e+000 -1.000000e+000
      outer loop
         vertex 7.519087e+000 6.195693e+001 1.019916e+002
         vertex 5.299777e+001 5.482161e+001 1.019916e+002
         vertex 7.519087e+000 5.482161e+001 1.019916e+002
      endloop
   endfacet
   facet normal -1.000000e+000 0.000000e+000 0.000000e+000
      outer loop
         vertex 5.299777e+001 6.195693e+001 9.267640e+001
         vertex 5.299777e+001 5.482161e+001 9.267640e+001
         vertex 5.299777e+001 6.195693e+001 1.019916e+002
      endloop
   endfacet
   facet normal -1.000000e+000 0.000000e+000 0.000000e+000
      outer loop
         vertex 5.299777e+001 6.195693e+001 1.019916e+002
         vertex 5.299777e+001 5.482161e+001 9.267640e+001
         vertex 5.299777e+001 5.482161e+001 1.019916e+002
      endloop
   endfacet
   facet normal 0.000000e+000 0.000000e+000 1.000000e+000
      outer loop
         vertex 7.519087e+000 6.195693e+001 9.267640e+001
         vertex 7.519087e+000 5.482161e+001 9.267640e+001
         vertex 5.299777e+001 6.195693e+001 9.267640e+001
      endloop
   endfacet
   facet normal 0.000000e+000 0.000000e+000 1.000000e+000
      outer loop
         vertex 5.299777e+001 6.195693e+001 9.267640e+001
         vertex 7.519087e+000 5.482161e+001 9.267640e+001
         vertex 5.299777e+001 5.482161e+001 9.267640e+001
      endloop
   endfacet
   facet normal 1.000000e+000 0.000000e+000 0.000000e+000
      outer loop
         vertex 7.519087e+000 6.195693e+001 8.287337e+001
         vertex 7.519087e+000 5.482161e+001 8.287337e+001
         vertex 7.519087e+000 6.195693e+001 7.304729e+001
      endloop
   endfacet
   facet normal 1.000000e+000 0.000000e+000 0.000000e+000
      outer loop
         vertex 7.519087e+000 6.195693e+001 7.304729e+001
         vertex 7.519087e+000 5.482161e+001 8.287337e+001
         vertex 7.519087e+000 5.482161e+001 7.304729e+001
      endloop
   endfacet
   facet normal 0.000000e+000 0.000000e+000 -1.000000e+000
      outer loop
         vertex 5.299777e+001 6.195693e+001 8.287337e+001
         vertex 5.299777e+001 5.482161e+001 8.287337e+001
         vertex 7.519087e+000 6.195693e+001 8.287337e+001
      endloop
   endfacet
   facet normal 0.000000e+000 0.000000e+000 -1.000000e+000
      outer loop
         vertex 7.519087e+000 6.195693e+001 8.287337e+001
         vertex 5.299777e+001 5.482161e+001 8.287337e+001
         vertex 7.519087e+000 5.482161e+001 8.287337e+001
      endloop
   endfacet
   facet normal -1.000000e+000 0.000000e+000 0.000000e+000
      outer loop
         vertex 5.299777e+001 6.195693e+001 7.304729e+001
         vertex 5.299777e+001 5.482161e+001 7.304729e+001
         vertex 5.299777e+001 6.195693e+001 8.287337e+001
      endloop
   endfacet
   facet normal -1.000000e+000 0.000000e+000 0.000000e+000
      outer loop
         vertex 5.299777e+001 6.195693e+001 8.287337e+001
         vertex 5.299777e+001 5.482161e+001 7.304729e+001
         vertex 5.299777e+001 5.482161e+001 8.287337e+001
      endloop
   endfacet
   facet normal 0.000000e+000 0.000000e+000 1.000000e+000
      outer loop
         vertex 7.519087e+000 6.195693e+001 7.304729e+001
         vertex 7.519087e+000 5.482161e+001 7.304729e+001
         vertex 5.299777e+001 6.195693e+001 7.304729e+001
      endloop
   endfacet
   facet normal 0.000000e+000 0.000000e+000 1.000000e+000
      outer loop
         vertex 5.299777e+001 6.195693e+001 7.304729e+001
         vertex 7.519087e+000 5.482161e+001 7.304729e+001
         vertex 5.299777e+001 5.482161e+001 7.304729e+001
      endloop
   endfacet
endsolid