solid ÆÄÆ®2
   facet normal 0.000000e+000 0.000000e+000 -1.000000e+000
      outer loop
         vertex 1.154285e+001 0.000000e+000 0.000000e+000
         vertex 0.000000e+000 0.000000e+000 0.000000e+000
         vertex 1.154285e+001 7.179706e+000 0.000000e+000
      endloop
   endfacet
   facet normal 0.000000e+000 0.000000e+000 -1.000000e+000
      outer loop
         vertex 1.154285e+001 7.179706e+000 0.000000e+000
         vertex 0.000000e+000 0.000000e+000 0.000000e+000
         vertex 0.000000e+000 7.179706e+000 0.000000e+000
      endloop
   endfacet
   facet normal 0.000000e+000 0.000000e+000 -1.000000e+000
      outer loop
         vertex 1.154285e+001 4.056799e+001 0.000000e+000
         vertex 0.000000e+000 4.056799e+001 0.000000e+000
         vertex 1.154285e+001 5.022089e+001 0.000000e+000
      endloop
   endfacet
   facet normal 0.000000e+000 0.000000e+000 -1.000000e+000
      outer loop
         vertex 1.154285e+001 5.022089e+001 0.000000e+000
         vertex 0.000000e+000 4.056799e+001 0.000000e+000
         vertex 0.000000e+000 5.022089e+001 0.000000e+000
      endloop
   endfacet
   facet normal 0.000000e+000 0.000000e+000 1.000000e+000
      outer loop
         vertex 5.435600e+001 4.056799e+001 9.749113e+001
         vertex 5.435600e+001 5.022089e+001 9.749113e+001
         vertex 0.000000e+000 4.056799e+001 9.749113e+001
      endloop
   endfacet
   facet normal 0.000000e+000 0.000000e+000 1.000000e+000
      outer loop
         vertex 0.000000e+000 4.056799e+001 9.749113e+001
         vertex 5.435600e+001 5.022089e+001 9.749113e+001
         vertex 0.000000e+000 5.022089e+001 9.749113e+001
      endloop
   endfacet
   facet normal 0.000000e+000 -1.000000e+000 0.000000e+000
      outer loop
         vertex 1.154285e+001 4.056799e+001 8.773561e+001
         vertex 1.154285e+001 4.056799e+001 9.347448e+001
         vertex 0.000000e+000 4.056799e+001 9.749113e+001
      endloop
   endfacet
   facet normal 0.000000e+000 -1.000000e+000 0.000000e+000
      outer loop
         vertex 4.541373e+001 4.056799e+001 8.773561e+001
         vertex 5.435600e+001 4.056799e+001 4.874556e+001
         vertex 5.435600e+001 4.056799e+001 9.749113e+001
      endloop
   endfacet
   facet normal 0.000000e+000 -1.000000e+000 0.000000e+000
      outer loop
         vertex 0.000000e+000 4.056799e+001 9.749113e+001
         vertex 1.154285e+001 4.056799e+001 9.347448e+001
         vertex 5.435600e+001 4.056799e+001 9.749113e+001
      endloop
   endfacet
   facet normal 0.000000e+000 -1.000000e+000 0.000000e+000
      outer loop
         vertex 5.435600e+001 4.056799e+001 9.749113e+001
         vertex 1.154285e+001 4.056799e+001 9.347448e+001
         vertex 4.541373e+001 4.056799e+001 9.347448e+001
      endloop
   endfacet
   facet normal 0.000000e+000 -1.000000e+000 0.000000e+000
      outer loop
         vertex 5.435600e+001 4.056799e+001 9.749113e+001
         vertex 4.541373e+001 4.056799e+001 9.347448e+001
         vertex 4.541373e+001 4.056799e+001 8.773561e+001
      endloop
   endfacet
   facet normal 0.000000e+000 -1.000000e+000 0.000000e+000
      outer loop
         vertex 5.435600e+001 4.056799e+001 4.874556e+001
         vertex 1.154285e+001 4.056799e+001 7.163335e+001
         vertex 0.000000e+000 4.056799e+001 4.874556e+001
      endloop
   endfacet
   facet normal 0.000000e+000 -1.000000e+000 0.000000e+000
      outer loop
         vertex 0.000000e+000 4.056799e+001 4.874556e+001
         vertex 1.154285e+001 4.056799e+001 7.163335e+001
         vertex 1.154285e+001 4.056799e+001 7.891222e+001
      endloop
   endfacet
   facet normal 0.000000e+000 -1.000000e+000 0.000000e+000
      outer loop
         vertex 0.000000e+000 4.056799e+001 9.749113e+001
         vertex 0.000000e+000 4.056799e+001 4.874556e+001
         vertex 1.154285e+001 4.056799e+001 8.773561e+001
      endloop
   endfacet
   facet normal 0.000000e+000 -1.000000e+000 0.000000e+000
      outer loop
         vertex 1.154285e+001 4.056799e+001 8.773561e+001
         vertex 0.000000e+000 4.056799e+001 4.874556e+001
         vertex 1.154285e+001 4.056799e+001 7.891222e+001
      endloop
   endfacet
   facet normal 0.000000e+000 -1.000000e+000 0.000000e+000
      outer loop
         vertex 1.154285e+001 4.056799e+001 8.773561e+001
         vertex 1.154285e+001 4.056799e+001 7.891222e+001
         vertex 4.541373e+001 4.056799e+001 8.773561e+001
      endloop
   endfacet
   facet normal 0.000000e+000 -1.000000e+000 0.000000e+000
      outer loop
         vertex 4.541373e+001 4.056799e+001 8.773561e+001
         vertex 1.154285e+001 4.056799e+001 7.891222e+001
         vertex 4.541373e+001 4.056799e+001 7.891222e+001
      endloop
   endfacet
   facet normal 0.000000e+000 -1.000000e+000 0.000000e+000
      outer loop
         vertex 4.541373e+001 4.056799e+001 8.773561e+001
         vertex 4.541373e+001 4.056799e+001 7.891222e+001
         vertex 5.435600e+001 4.056799e+001 4.874556e+001
      endloop
   endfacet
   facet normal 0.000000e+000 -1.000000e+000 0.000000e+000
      outer loop
         vertex 5.435600e+001 4.056799e+001 4.874556e+001
         vertex 4.541373e+001 4.056799e+001 7.891222e+001
         vertex 4.541373e+001 4.056799e+001 7.163335e+001
      endloop
   endfacet
   facet normal 0.000000e+000 -1.000000e+000 0.000000e+000
      outer loop
         vertex 5.435600e+001 4.056799e+001 4.874556e+001
         vertex 4.541373e+001 4.056799e+001 7.163335e+001
         vertex 1.154285e+001 4.056799e+001 7.163335e+001
      endloop
   endfacet
   facet normal 0.000000e+000 0.000000e+000 1.000000e+000
      outer loop
         vertex 5.435600e+001 0.000000e+000 4.874556e+001
         vertex 5.435600e+001 4.056799e+001 4.874556e+001
         vertex 0.000000e+000 0.000000e+000 4.874556e+001
      endloop
   endfacet
   facet normal 0.000000e+000 0.000000e+000 1.000000e+000
      outer loop
         vertex 0.000000e+000 0.000000e+000 4.874556e+001
         vertex 5.435600e+001 4.056799e+001 4.874556e+001
         vertex 0.000000e+000 4.056799e+001 4.874556e+001
      endloop
   endfacet
   facet normal 0.000000e+000 -1.000000e+000 0.000000e+000
      outer loop
         vertex 4.541373e+001 0.000000e+000 0.000000e+000
         vertex 5.435600e+001 0.000000e+000 0.000000e+000
         vertex 4.541373e+001 0.000000e+000 3.991219e+001
      endloop
   endfacet
   facet normal 0.000000e+000 -1.000000e+000 0.000000e+000
      outer loop
         vertex 4.541373e+001 0.000000e+000 3.991219e+001
         vertex 5.435600e+001 0.000000e+000 0.000000e+000
         vertex 5.435600e+001 0.000000e+000 4.874556e+001
      endloop
   endfacet
   facet normal 0.000000e+000 -1.000000e+000 0.000000e+000
      outer loop
         vertex 4.541373e+001 0.000000e+000 3.991219e+001
         vertex 5.435600e+001 0.000000e+000 4.874556e+001
         vertex 1.154285e+001 0.000000e+000 3.991219e+001
      endloop
   endfacet
   facet normal 0.000000e+000 -1.000000e+000 0.000000e+000
      outer loop
         vertex 1.154285e+001 0.000000e+000 3.991219e+001
         vertex 5.435600e+001 0.000000e+000 4.874556e+001
         vertex 0.000000e+000 0.000000e+000 4.874556e+001
      endloop
   endfacet
   facet normal 0.000000e+000 -1.000000e+000 0.000000e+000
      outer loop
         vertex 1.154285e+001 0.000000e+000 3.991219e+001
         vertex 0.000000e+000 0.000000e+000 4.874556e+001
         vertex 1.154285e+001 0.000000e+000 0.000000e+000
      endloop
   endfacet
   facet normal 0.000000e+000 -1.000000e+000 0.000000e+000
      outer loop
         vertex 1.154285e+001 0.000000e+000 0.000000e+000
         vertex 0.000000e+000 0.000000e+000 4.874556e+001
         vertex 0.000000e+000 0.000000e+000 0.000000e+000
      endloop
   endfacet
   facet normal 0.000000e+000 0.000000e+000 -1.000000e+000
      outer loop
         vertex 4.541373e+001 7.179706e+000 0.000000e+000
         vertex 5.435600e+001 7.179706e+000 0.000000e+000
         vertex 4.541373e+001 0.000000e+000 0.000000e+000
      endloop
   endfacet
   facet normal 0.000000e+000 0.000000e+000 -1.000000e+000
      outer loop
         vertex 4.541373e+001 0.000000e+000 0.000000e+000
         vertex 5.435600e+001 7.179706e+000 0.000000e+000
         vertex 5.435600e+001 0.000000e+000 0.000000e+000
      endloop
   endfacet
   facet normal 0.000000e+000 1.000000e+000 0.000000e+000
      outer loop
         vertex 1.154285e+001 7.179706e+000 3.991219e+001
         vertex 1.154285e+001 7.179706e+000 0.000000e+000
         vertex 0.000000e+000 7.179706e+000 0.000000e+000
      endloop
   endfacet
   facet normal 0.000000e+000 1.000000e+000 0.000000e+000
      outer loop
         vertex 5.435600e+001 7.179706e+000 4.088086e+001
         vertex 5.435600e+001 7.179706e+000 0.000000e+000
         vertex 4.541373e+001 7.179706e+000 0.000000e+000
      endloop
   endfacet
   facet normal 0.000000e+000 1.000000e+000 0.000000e+000
      outer loop
         vertex 4.541373e+001 7.179706e+000 0.000000e+000
         vertex 4.541373e+001 7.179706e+000 3.991219e+001
         vertex 5.435600e+001 7.179706e+000 4.088086e+001
      endloop
   endfacet
   facet normal 0.000000e+000 1.000000e+000 0.000000e+000
      outer loop
         vertex 5.435600e+001 7.179706e+000 4.088086e+001
         vertex 4.541373e+001 7.179706e+000 3.991219e+001
         vertex 1.154285e+001 7.179706e+000 3.991219e+001
      endloop
   endfacet
   facet normal 0.000000e+000 1.000000e+000 0.000000e+000
      outer loop
         vertex 5.435600e+001 7.179706e+000 4.088086e+001
         vertex 1.154285e+001 7.179706e+000 3.991219e+001
         vertex 0.000000e+000 7.179706e+000 4.088086e+001
      endloop
   endfacet
   facet normal 0.000000e+000 1.000000e+000 0.000000e+000
      outer loop
         vertex 0.000000e+000 7.179706e+000 4.088086e+001
         vertex 1.154285e+001 7.179706e+000 3.991219e+001
         vertex 0.000000e+000 7.179706e+000 0.000000e+000
      endloop
   endfacet
   facet normal 0.000000e+000 0.000000e+000 -1.000000e+000
      outer loop
         vertex 5.435600e+001 4.056799e+001 4.088086e+001
         vertex 5.435600e+001 7.179706e+000 4.088086e+001
         vertex 0.000000e+000 4.056799e+001 4.088086e+001
      endloop
   endfacet
   facet normal 0.000000e+000 0.000000e+000 -1.000000e+000
      outer loop
         vertex 0.000000e+000 4.056799e+001 4.088086e+001
         vertex 5.435600e+001 7.179706e+000 4.088086e+001
         vertex 0.000000e+000 7.179706e+000 4.088086e+001
      endloop
   endfacet
   facet normal 0.000000e+000 -1.000000e+000 0.000000e+000
      outer loop
         vertex 4.541373e+001 4.056799e+001 0.000000e+000
         vertex 5.435600e+001 4.056799e+001 0.000000e+000
         vertex 4.541373e+001 4.056799e+001 3.991219e+001
      endloop
   endfacet
   facet normal 0.000000e+000 -1.000000e+000 0.000000e+000
      outer loop
         vertex 4.541373e+001 4.056799e+001 3.991219e+001
         vertex 5.435600e+001 4.056799e+001 0.000000e+000
         vertex 5.435600e+001 4.056799e+001 4.088086e+001
      endloop
   endfacet
   facet normal 0.000000e+000 -1.000000e+000 0.000000e+000
      outer loop
         vertex 4.541373e+001 4.056799e+001 3.991219e+001
         vertex 5.435600e+001 4.056799e+001 4.088086e+001
         vertex 1.154285e+001 4.056799e+001 3.991219e+001
      endloop
   endfacet
   facet normal 0.000000e+000 -1.000000e+000 0.000000e+000
      outer loop
         vertex 1.154285e+001 4.056799e+001 3.991219e+001
         vertex 5.435600e+001 4.056799e+001 4.088086e+001
         vertex 0.000000e+000 4.056799e+001 4.088086e+001
      endloop
   endfacet
   facet normal 0.000000e+000 -1.000000e+000 0.000000e+000
      outer loop
         vertex 1.154285e+001 4.056799e+001 3.991219e+001
         vertex 0.000000e+000 4.056799e+001 4.088086e+001
         vertex 1.154285e+001 4.056799e+001 0.000000e+000
      endloop
   endfacet
   facet normal 0.000000e+000 -1.000000e+000 0.000000e+000
      outer loop
         vertex 1.154285e+001 4.056799e+001 0.000000e+000
         vertex 0.000000e+000 4.056799e+001 4.088086e+001
         vertex 0.000000e+000 4.056799e+001 0.000000e+000
      endloop
   endfacet
   facet normal 0.000000e+000 0.000000e+000 -1.000000e+000
      outer loop
         vertex 4.541373e+001 5.022089e+001 0.000000e+000
         vertex 5.435600e+001 5.022089e+001 0.000000e+000
         vertex 4.541373e+001 4.056799e+001 0.000000e+000
      endloop
   endfacet
   facet normal 0.000000e+000 0.000000e+000 -1.000000e+000
      outer loop
         vertex 4.541373e+001 4.056799e+001 0.000000e+000
         vertex 5.435600e+001 5.022089e+001 0.000000e+000
         vertex 5.435600e+001 4.056799e+001 0.000000e+000
      endloop
   endfacet
   facet normal 0.000000e+000 1.000000e+000 0.000000e+000
      outer loop
         vertex 1.154285e+001 5.022089e+001 0.000000e+000
         vertex 0.000000e+000 5.022089e+001 0.000000e+000
         vertex 1.154285e+001 5.022089e+001 3.991219e+001
      endloop
   endfacet
   facet normal 0.000000e+000 1.000000e+000 0.000000e+000
      outer loop
         vertex 1.154285e+001 5.022089e+001 3.991219e+001
         vertex 0.000000e+000 5.022089e+001 0.000000e+000
         vertex 0.000000e+000 5.022089e+001 9.749113e+001
      endloop
   endfacet
   facet normal 0.000000e+000 1.000000e+000 0.000000e+000
      outer loop
         vertex 1.154285e+001 5.022089e+001 7.163335e+001
         vertex 4.541373e+001 5.022089e+001 7.163335e+001
         vertex 4.541373e+001 5.022089e+001 3.991219e+001
      endloop
   endfacet
   facet normal 0.000000e+000 1.000000e+000 0.000000e+000
      outer loop
         vertex 4.541373e+001 5.022089e+001 7.891222e+001
         vertex 5.435600e+001 5.022089e+001 9.749113e+001
         vertex 4.541373e+001 5.022089e+001 7.163335e+001
      endloop
   endfacet
   facet normal 0.000000e+000 1.000000e+000 0.000000e+000
      outer loop
         vertex 4.541373e+001 5.022089e+001 7.163335e+001
         vertex 5.435600e+001 5.022089e+001 9.749113e+001
         vertex 5.435600e+001 5.022089e+001 0.000000e+000
      endloop
   endfacet
   facet normal 0.000000e+000 1.000000e+000 0.000000e+000
      outer loop
         vertex 4.541373e+001 5.022089e+001 7.163335e+001
         vertex 5.435600e+001 5.022089e+001 0.000000e+000
         vertex 4.541373e+001 5.022089e+001 3.991219e+001
      endloop
   endfacet
   facet normal 0.000000e+000 1.000000e+000 0.000000e+000
      outer loop
         vertex 4.541373e+001 5.022089e+001 3.991219e+001
         vertex 5.435600e+001 5.022089e+001 0.000000e+000
         vertex 4.541373e+001 5.022089e+001 0.000000e+000
      endloop
   endfacet
   facet normal 0.000000e+000 1.000000e+000 0.000000e+000
      outer loop
         vertex 4.541373e+001 5.022089e+001 3.991219e+001
         vertex 1.154285e+001 5.022089e+001 3.991219e+001
         vertex 1.154285e+001 5.022089e+001 7.163335e+001
      endloop
   endfacet
   facet normal 0.000000e+000 1.000000e+000 0.000000e+000
      outer loop
         vertex 1.154285e+001 5.022089e+001 7.163335e+001
         vertex 1.154285e+001 5.022089e+001 3.991219e+001
         vertex 0.000000e+000 5.022089e+001 9.749113e+001
      endloop
   endfacet
   facet normal 0.000000e+000 1.000000e+000 0.000000e+000
      outer loop
         vertex 1.154285e+001 5.022089e+001 7.163335e+001
         vertex 0.000000e+000 5.022089e+001 9.749113e+001
         vertex 1.154285e+001 5.022089e+001 7.891222e+001
      endloop
   endfacet
   facet normal 0.000000e+000 1.000000e+000 0.000000e+000
      outer loop
         vertex 1.154285e+001 5.022089e+001 7.891222e+001
         vertex 0.000000e+000 5.022089e+001 9.749113e+001
         vertex 1.154285e+001 5.022089e+001 8.773561e+001
      endloop
   endfacet
   facet normal 0.000000e+000 1.000000e+000 0.000000e+000
      outer loop
         vertex 1.154285e+001 5.022089e+001 7.891222e+001
         vertex 1.154285e+001 5.022089e+001 8.773561e+001
         vertex 4.541373e+001 5.022089e+001 7.891222e+001
      endloop
   endfacet
   facet normal 0.000000e+000 1.000000e+000 0.000000e+000
      outer loop
         vertex 4.541373e+001 5.022089e+001 7.891222e+001
         vertex 1.154285e+001 5.022089e+001 8.773561e+001
         vertex 4.541373e+001 5.022089e+001 8.773561e+001
      endloop
   endfacet
   facet normal 0.000000e+000 1.000000e+000 0.000000e+000
      outer loop
         vertex 4.541373e+001 5.022089e+001 7.891222e+001
         vertex 4.541373e+001 5.022089e+001 8.773561e+001
         vertex 5.435600e+001 5.022089e+001 9.749113e+001
      endloop
   endfacet
   facet normal 0.000000e+000 1.000000e+000 0.000000e+000
      outer loop
         vertex 5.435600e+001 5.022089e+001 9.749113e+001
         vertex 4.541373e+001 5.022089e+001 8.773561e+001
         vertex 4.541373e+001 5.022089e+001 9.347448e+001
      endloop
   endfacet
   facet normal 0.000000e+000 1.000000e+000 0.000000e+000
      outer loop
         vertex 5.435600e+001 5.022089e+001 9.749113e+001
         vertex 4.541373e+001 5.022089e+001 9.347448e+001
         vertex 0.000000e+000 5.022089e+001 9.749113e+001
      endloop
   endfacet
   facet normal 0.000000e+000 1.000000e+000 0.000000e+000
      outer loop
         vertex 0.000000e+000 5.022089e+001 9.749113e+001
         vertex 4.541373e+001 5.022089e+001 9.347448e+001
         vertex 1.154285e+001 5.022089e+001 9.347448e+001
      endloop
   endfacet
   facet normal 0.000000e+000 1.000000e+000 0.000000e+000
      outer loop
         vertex 0.000000e+000 5.022089e+001 9.749113e+001
         vertex 1.154285e+001 5.022089e+001 9.347448e+001
         vertex 1.154285e+001 5.022089e+001 8.773561e+001
      endloop
   endfacet
   facet normal 1.000000e+000 0.000000e+000 0.000000e+000
      outer loop
         vertex 5.435600e+001 5.022089e+001 0.000000e+000
         vertex 5.435600e+001 5.022089e+001 9.749113e+001
         vertex 5.435600e+001 4.056799e+001 4.874556e+001
      endloop
   endfacet
   facet normal 1.000000e+000 0.000000e+000 0.000000e+000
      outer loop
         vertex 5.435600e+001 4.056799e+001 4.874556e+001
         vertex 5.435600e+001 5.022089e+001 9.749113e+001
         vertex 5.435600e+001 4.056799e+001 9.749113e+001
      endloop
   endfacet
   facet normal 1.000000e+000 0.000000e+000 0.000000e+000
      outer loop
         vertex 5.435600e+001 4.056799e+001 0.000000e+000
         vertex 5.435600e+001 5.022089e+001 0.000000e+000
         vertex 5.435600e+001 4.056799e+001 4.088086e+001
      endloop
   endfacet
   facet normal 1.000000e+000 0.000000e+000 0.000000e+000
      outer loop
         vertex 5.435600e+001 4.056799e+001 4.088086e+001
         vertex 5.435600e+001 5.022089e+001 0.000000e+000
         vertex 5.435600e+001 4.056799e+001 4.874556e+001
      endloop
   endfacet
   facet normal 1.000000e+000 0.000000e+000 0.000000e+000
      outer loop
         vertex 5.435600e+001 4.056799e+001 4.088086e+001
         vertex 5.435600e+001 4.056799e+001 4.874556e+001
         vertex 5.435600e+001 7.179706e+000 4.088086e+001
      endloop
   endfacet
   facet normal 1.000000e+000 0.000000e+000 0.000000e+000
      outer loop
         vertex 5.435600e+001 7.179706e+000 4.088086e+001
         vertex 5.435600e+001 4.056799e+001 4.874556e+001
         vertex 5.435600e+001 0.000000e+000 4.874556e+001
      endloop
   endfacet
   facet normal 1.000000e+000 0.000000e+000 0.000000e+000
      outer loop
         vertex 5.435600e+001 7.179706e+000 4.088086e+001
         vertex 5.435600e+001 0.000000e+000 4.874556e+001
         vertex 5.435600e+001 7.179706e+000 0.000000e+000
      endloop
   endfacet
   facet normal 1.000000e+000 0.000000e+000 0.000000e+000
      outer loop
         vertex 5.435600e+001 7.179706e+000 0.000000e+000
         vertex 5.435600e+001 0.000000e+000 4.874556e+001
         vertex 5.435600e+001 0.000000e+000 0.000000e+000
      endloop
   endfacet
   facet normal -1.000000e+000 0.000000e+000 0.000000e+000
      outer loop
         vertex 0.000000e+000 5.022089e+001 9.749113e+001
         vertex 0.000000e+000 5.022089e+001 0.000000e+000
         vertex 0.000000e+000 4.056799e+001 4.088086e+001
      endloop
   endfacet
   facet normal -1.000000e+000 0.000000e+000 0.000000e+000
      outer loop
         vertex 0.000000e+000 4.056799e+001 4.088086e+001
         vertex 0.000000e+000 5.022089e+001 0.000000e+000
         vertex 0.000000e+000 4.056799e+001 0.000000e+000
      endloop
   endfacet
   facet normal -1.000000e+000 0.000000e+000 0.000000e+000
      outer loop
         vertex 0.000000e+000 4.056799e+001 9.749113e+001
         vertex 0.000000e+000 5.022089e+001 9.749113e+001
         vertex 0.000000e+000 4.056799e+001 4.874556e+001
      endloop
   endfacet
   facet normal -1.000000e+000 0.000000e+000 0.000000e+000
      outer loop
         vertex 0.000000e+000 4.056799e+001 4.874556e+001
         vertex 0.000000e+000 5.022089e+001 9.749113e+001
         vertex 0.000000e+000 4.056799e+001 4.088086e+001
      endloop
   endfacet
   facet normal -1.000000e+000 0.000000e+000 0.000000e+000
      outer loop
         vertex 0.000000e+000 4.056799e+001 4.874556e+001
         vertex 0.000000e+000 4.056799e+001 4.088086e+001
         vertex 0.000000e+000 0.000000e+000 4.874556e+001
      endloop
   endfacet
   facet normal -1.000000e+000 0.000000e+000 0.000000e+000
      outer loop
         vertex 0.000000e+000 0.000000e+000 4.874556e+001
         vertex 0.000000e+000 4.056799e+001 4.088086e+001
         vertex 0.000000e+000 7.179706e+000 4.088086e+001
      endloop
   endfacet
   facet normal -1.000000e+000 0.000000e+000 0.000000e+000
      outer loop
         vertex 0.000000e+000 0.000000e+000 4.874556e+001
         vertex 0.000000e+000 7.179706e+000 4.088086e+001
         vertex 0.000000e+000 0.000000e+000 0.000000e+000
      endloop
   endfacet
   facet normal -1.000000e+000 0.000000e+000 0.000000e+000
      outer loop
         vertex 0.000000e+000 0.000000e+000 0.000000e+000
         vertex 0.000000e+000 7.179706e+000 4.088086e+001
         vertex 0.000000e+000 7.179706e+000 0.000000e+000
      endloop
   endfacet
   facet normal 1.000000e+000 0.000000e+000 0.000000e+000
      outer loop
         vertex 1.154285e+001 5.022089e+001 9.347448e+001
         vertex 1.154285e+001 4.056799e+001 9.347448e+001
         vertex 1.154285e+001 5.022089e+001 8.773561e+001
      endloop
   endfacet
   facet normal 1.000000e+000 0.000000e+000 0.000000e+000
      outer loop
         vertex 1.154285e+001 5.022089e+001 8.773561e+001
         vertex 1.154285e+001 4.056799e+001 9.347448e+001
         vertex 1.154285e+001 4.056799e+001 8.773561e+001
      endloop
   endfacet
   facet normal 0.000000e+000 0.000000e+000 -1.000000e+000
      outer loop
         vertex 4.541373e+001 5.022089e+001 9.347448e+001
         vertex 4.541373e+001 4.056799e+001 9.347448e+001
         vertex 1.154285e+001 5.022089e+001 9.347448e+001
      endloop
   endfacet
   facet normal 0.000000e+000 0.000000e+000 -1.000000e+000
      outer loop
         vertex 1.154285e+001 5.022089e+001 9.347448e+001
         vertex 4.541373e+001 4.056799e+001 9.347448e+001
         vertex 1.154285e+001 4.056799e+001 9.347448e+001
      endloop
   endfacet
   facet normal -1.000000e+000 0.000000e+000 0.000000e+000
      outer loop
         vertex 4.541373e+001 5.022089e+001 8.773561e+001
         vertex 4.541373e+001 4.056799e+001 8.773561e+001
         vertex 4.541373e+001 5.022089e+001 9.347448e+001
      endloop
   endfacet
   facet normal -1.000000e+000 0.000000e+000 0.000000e+000
      outer loop
         vertex 4.541373e+001 5.022089e+001 9.347448e+001
         vertex 4.541373e+001 4.056799e+001 8.773561e+001
         vertex 4.541373e+001 4.056799e+001 9.347448e+001
      endloop
   endfacet
   facet normal 0.000000e+000 0.000000e+000 1.000000e+000
      outer loop
         vertex 1.154285e+001 5.022089e+001 8.773561e+001
         vertex 1.154285e+001 4.056799e+001 8.773561e+001
         vertex 4.541373e+001 5.022089e+001 8.773561e+001
      endloop
   endfacet
   facet normal 0.000000e+000 0.000000e+000 1.000000e+000
      outer loop
         vertex 4.541373e+001 5.022089e+001 8.773561e+001
         vertex 1.154285e+001 4.056799e+001 8.773561e+001
         vertex 4.541373e+001 4.056799e+001 8.773561e+001
      endloop
   endfacet
   facet normal 1.000000e+000 0.000000e+000 0.000000e+000
      outer loop
         vertex 1.154285e+001 5.022089e+001 7.891222e+001
         vertex 1.154285e+001 4.056799e+001 7.891222e+001
         vertex 1.154285e+001 5.022089e+001 7.163335e+001
      endloop
   endfacet
   facet normal 1.000000e+000 0.000000e+000 0.000000e+000
      outer loop
         vertex 1.154285e+001 5.022089e+001 7.163335e+001
         vertex 1.154285e+001 4.056799e+001 7.891222e+001
         vertex 1.154285e+001 4.056799e+001 7.163335e+001
      endloop
   endfacet
   facet normal 0.000000e+000 0.000000e+000 -1.000000e+000
      outer loop
         vertex 4.541373e+001 5.022089e+001 7.891222e+001
         vertex 4.541373e+001 4.056799e+001 7.891222e+001
         vertex 1.154285e+001 5.022089e+001 7.891222e+001
      endloop
   endfacet
   facet normal 0.000000e+000 0.000000e+000 -1.000000e+000
      outer loop
         vertex 1.154285e+001 5.022089e+001 7.891222e+001
         vertex 4.541373e+001 4.056799e+001 7.891222e+001
         vertex 1.154285e+001 4.056799e+001 7.891222e+001
      endloop
   endfacet
   facet normal -1.000000e+000 0.000000e+000 0.000000e+000
      outer loop
         vertex 4.541373e+001 5.022089e+001 7.163335e+001
         vertex 4.541373e+001 4.056799e+001 7.163335e+001
         vertex 4.541373e+001 5.022089e+001 7.891222e+001
      endloop
   endfacet
   facet normal -1.000000e+000 0.000000e+000 0.000000e+000
      outer loop
         vertex 4.541373e+001 5.022089e+001 7.891222e+001
         vertex 4.541373e+001 4.056799e+001 7.163335e+001
         vertex 4.541373e+001 4.056799e+001 7.891222e+001
      endloop
   endfacet
   facet normal 0.000000e+000 0.000000e+000 1.000000e+000
      outer loop
         vertex 1.154285e+001 5.022089e+001 7.163335e+001
         vertex 1.154285e+001 4.056799e+001 7.163335e+001
         vertex 4.541373e+001 5.022089e+001 7.163335e+001
      endloop
   endfacet
   facet normal 0.000000e+000 0.000000e+000 1.000000e+000
      outer loop
         vertex 4.541373e+001 5.022089e+001 7.163335e+001
         vertex 1.154285e+001 4.056799e+001 7.163335e+001
         vertex 4.541373e+001 4.056799e+001 7.163335e+001
      endloop
   endfacet
   facet normal -1.000000e+000 0.000000e+000 0.000000e+000
      outer loop
         vertex 4.541373e+001 5.022089e+001 0.000000e+000
         vertex 4.541373e+001 4.056799e+001 0.000000e+000
         vertex 4.541373e+001 5.022089e+001 3.991219e+001
      endloop
   endfacet
   facet normal -1.000000e+000 0.000000e+000 0.000000e+000
      outer loop
         vertex 4.541373e+001 5.022089e+001 3.991219e+001
         vertex 4.541373e+001 4.056799e+001 0.000000e+000
         vertex 4.541373e+001 4.056799e+001 3.991219e+001
      endloop
   endfacet
   facet normal 0.000000e+000 0.000000e+000 -1.000000e+000
      outer loop
         vertex 4.541373e+001 5.022089e+001 3.991219e+001
         vertex 4.541373e+001 4.056799e+001 3.991219e+001
         vertex 1.154285e+001 5.022089e+001 3.991219e+001
      endloop
   endfacet
   facet normal 0.000000e+000 0.000000e+000 -1.000000e+000
      outer loop
         vertex 1.154285e+001 5.022089e+001 3.991219e+001
         vertex 4.541373e+001 4.056799e+001 3.991219e+001
         vertex 1.154285e+001 4.056799e+001 3.991219e+001
      endloop
   endfacet
   facet normal 1.000000e+000 0.000000e+000 0.000000e+000
      outer loop
         vertex 1.154285e+001 5.022089e+001 3.991219e+001
         vertex 1.154285e+001 4.056799e+001 3.991219e+001
         vertex 1.154285e+001 5.022089e+001 0.000000e+000
      endloop
   endfacet
   facet normal 1.000000e+000 0.000000e+000 0.000000e+000
      outer loop
         vertex 1.154285e+001 5.022089e+001 0.000000e+000
         vertex 1.154285e+001 4.056799e+001 3.991219e+001
         vertex 1.154285e+001 4.056799e+001 0.000000e+000
      endloop
   endfacet
   facet normal 1.000000e+000 0.000000e+000 0.000000e+000
      outer loop
         vertex 1.154285e+001 0.000000e+000 0.000000e+000
         vertex 1.154285e+001 7.179706e+000 0.000000e+000
         vertex 1.154285e+001 0.000000e+000 3.991219e+001
      endloop
   endfacet
   facet normal 1.000000e+000 0.000000e+000 0.000000e+000
      outer loop
         vertex 1.154285e+001 0.000000e+000 3.991219e+001
         vertex 1.154285e+001 7.179706e+000 0.000000e+000
         vertex 1.154285e+001 7.179706e+000 3.991219e+001
      endloop
   endfacet
   facet normal 0.000000e+000 0.000000e+000 -1.000000e+000
      outer loop
         vertex 1.154285e+001 0.000000e+000 3.991219e+001
         vertex 1.154285e+001 7.179706e+000 3.991219e+001
         vertex 4.541373e+001 0.000000e+000 3.991219e+001
      endloop
   endfacet
   facet normal 0.000000e+000 0.000000e+000 -1.000000e+000
      outer loop
         vertex 4.541373e+001 0.000000e+000 3.991219e+001
         vertex 1.154285e+001 7.179706e+000 3.991219e+001
         vertex 4.541373e+001 7.179706e+000 3.991219e+001
      endloop
   endfacet
   facet normal -1.000000e+000 0.000000e+000 0.000000e+000
      outer loop
         vertex 4.541373e+001 0.000000e+000 3.991219e+001
         vertex 4.541373e+001 7.179706e+000 3.991219e+001
         vertex 4.541373e+001 0.000000e+000 0.000000e+000
      endloop
   endfacet
   facet normal -1.000000e+000 0.000000e+000 0.000000e+000
      outer loop
         vertex 4.541373e+001 0.000000e+000 0.000000e+000
         vertex 4.541373e+001 7.179706e+000 3.991219e+001
         vertex 4.541373e+001 7.179706e+000 0.000000e+000
      endloop
   endfacet
endsolid